Scada-Bold.ufo
<glyph name="exclam" format="1">
  <advance width="290"/>
  <unicode hex="0021"/>
  <outline>
    <contour>
      <point x="85" y="200" type="line"/>
      <point x="65" y="700" type="line"/>
      <point x="225" y="700" type="line"/>
      <point x="205" y="200" type="line"/>
    </contour>
    <contour>
      <point x="145" y="-10" type="curve" smooth="yes"/>
      <point x="105" y="-10"/>
      <point x="70" y="25"/>
      <point x="70" y="65" type="curve" smooth="yes"/>
      <point x="70" y="105"/>
      <point x="105" y="140"/>
      <point x="145" y="140" type="curve" smooth="yes"/>
      <point x="185" y="140"/>
      <point x="220" y="105"/>
      <point x="220" y="65" type="curve" smooth="yes"/>
      <point x="220" y="25"/>
      <point x="185" y="-10"/>
    </contour>
  </outline>
</glyph>
<glyph name="quotedbl" format="1">
  <advance width="380"/>
  <unicode hex="0022"/>
  <outline>
    <contour>
      <point x="60" y="455" type="line"/>
      <point x="35" y="700" type="line"/>
      <point x="170" y="700" type="line"/>
      <point x="145" y="455" type="line"/>
    </contour>
    <contour>
      <point x="235" y="455" type="line"/>
      <point x="210" y="700" type="line"/>
      <point x="345" y="700" type="line"/>
      <point x="320" y="455" type="line"/>
    </contour>
  </outline>
</glyph>
<glyph name="numbersign" format="1">
  <advance width="667"/>
  <unicode hex="0023"/>
  <outline>
    <contour>
      <point x="62" y="0" type="line"/>
      <point x="107" y="170" type="line"/>
      <point x="15" y="170" type="line"/>
      <point x="15" y="260" type="line"/>
      <point x="132" y="260" type="line"/>
      <point x="177" y="440" type="line"/>
      <point x="72" y="440" type="line"/>
      <point x="72" y="530" type="line"/>
      <point x="197" y="530" type="line"/>
      <point x="242" y="700" type="line"/>
      <point x="372" y="700" type="line"/>
      <point x="327" y="530" type="line"/>
      <point x="427" y="530" type="line"/>
      <point x="472" y="700" type="line"/>
      <point x="602" y="700" type="line"/>
      <point x="557" y="530" type="line"/>
      <point x="652" y="530" type="line"/>
      <point x="652" y="440" type="line"/>
      <point x="537" y="440" type="line"/>
      <point x="492" y="260" type="line"/>
      <point x="595" y="260" type="line"/>
      <point x="595" y="170" type="line"/>
      <point x="467" y="170" type="line"/>
      <point x="422" y="0" type="line"/>
      <point x="292" y="0" type="line"/>
      <point x="337" y="170" type="line"/>
      <point x="237" y="170" type="line"/>
      <point x="192" y="0" type="line"/>
    </contour>
    <contour>
      <point x="262" y="260" type="line"/>
      <point x="362" y="260" type="line"/>
      <point x="407" y="440" type="line"/>
      <point x="307" y="440" type="line"/>
    </contour>
  </outline>
</glyph>
<glyph name="dollar" format="1">
  <advance width="535"/>
  <unicode hex="0024"/>
  <outline>
    <contour>
      <point x="195" y="-70" type="line"/>
      <point x="195" y="-5" type="line"/>
      <point x="139" y="0"/>
      <point x="101" y="13"/>
      <point x="74" y="24" type="curve" smooth="yes"/>
      <point x="59" y="31"/>
      <point x="46" y="38"/>
      <point x="35" y="45" type="curve"/>
      <point x="80" y="125" type="line"/>
      <point x="90" y="125" type="line"/>
      <point x="100" y="116"/>
      <point x="112" y="109"/>
      <point x="126" y="102" type="curve" smooth="yes"/>
      <point x="150" y="91"/>
      <point x="187" y="80"/>
      <point x="240" y="80" type="curve" smooth="yes"/>
      <point x="320" y="80"/>
      <point x="360" y="120"/>
      <point x="360" y="180" type="curve" smooth="yes"/>
      <point x="360" y="319"/>
      <point x="40" y="295"/>
      <point x="40" y="520" type="curve" smooth="yes"/>
      <point x="40" y="604"/>
      <point x="95" y="675"/>
      <point x="195" y="700" type="curve"/>
      <point x="195" y="770" type="line"/>
      <point x="330" y="770" type="line"/>
      <point x="330" y="705" type="line"/>
      <point x="381" y="700"/>
      <point x="417" y="687"/>
      <point x="442" y="676" type="curve" smooth="yes"/>
      <point x="457" y="669"/>
      <point x="469" y="662"/>
      <point x="480" y="655" type="curve"/>
      <point x="435" y="575" type="line"/>
      <point x="425" y="575" type="line"/>
      <point x="416" y="583"/>
      <point x="404" y="590"/>
      <point x="391" y="597" type="curve" smooth="yes"/>
      <point x="368" y="608"/>
      <point x="332" y="620"/>
      <point x="285" y="620" type="curve" smooth="yes"/>
      <point x="225" y="620"/>
      <point x="180" y="575"/>
      <point x="180" y="530" type="curve" smooth="yes"/>
      <point x="180" y="391"/>
      <point x="500" y="415"/>
      <point x="500" y="190" type="curve" smooth="yes"/>
      <point x="500" y="94"/>
      <point x="441" y="25"/>
      <point x="330" y="0" type="curve"/>
      <point x="330" y="-70" type="line"/>
    </contour>
  </outline>
</glyph>
<glyph name="percent" format="1">
  <advance width="850"/>
  <unicode hex="0025"/>
  <outline>
    <contour>
      <point x="195" y="350" type="curve" smooth="yes"/>
      <point x="95" y="350"/>
      <point x="20" y="426"/>
      <point x="20" y="530" type="curve" smooth="yes"/>
      <point x="20" y="634"/>
      <point x="95" y="710"/>
      <point x="195" y="710" type="curve" smooth="yes"/>
      <point x="295" y="710"/>
      <point x="370" y="634"/>
      <point x="370" y="530" type="curve" smooth="yes"/>
      <point x="370" y="426"/>
      <point x="295" y="350"/>
    </contour>
    <contour>
      <point x="115" y="0" type="line"/>
      <point x="585" y="700" type="line"/>
      <point x="735" y="700" type="line"/>
      <point x="265" y="0" type="line"/>
    </contour>
    <contour>
      <point x="195" y="430" type="curve" smooth="yes"/>
      <point x="224" y="430"/>
      <point x="250" y="455"/>
      <point x="250" y="530" type="curve" smooth="yes"/>
      <point x="250" y="605"/>
      <point x="224" y="630"/>
      <point x="195" y="630" type="curve" smooth="yes"/>
      <point x="164" y="630"/>
      <point x="140" y="605"/>
      <point x="140" y="530" type="curve" smooth="yes"/>
      <point x="140" y="455"/>
      <point x="164" y="430"/>
    </contour>
    <contour>
      <point x="655" y="-10" type="curve" smooth="yes"/>
      <point x="555" y="-10"/>
      <point x="480" y="66"/>
      <point x="480" y="170" type="curve" smooth="yes"/>
      <point x="480" y="274"/>
      <point x="555" y="350"/>
      <point x="655" y="350" type="curve" smooth="yes"/>
      <point x="755" y="350"/>
      <point x="830" y="274"/>
      <point x="830" y="170" type="curve" smooth="yes"/>
      <point x="830" y="66"/>
      <point x="755" y="-10"/>
    </contour>
    <contour>
      <point x="655" y="70" type="curve" smooth="yes"/>
      <point x="684" y="70"/>
      <point x="710" y="95"/>
      <point x="710" y="170" type="curve" smooth="yes"/>
      <point x="710" y="245"/>
      <point x="684" y="270"/>
      <point x="655" y="270" type="curve" smooth="yes"/>
      <point x="624" y="270"/>
      <point x="600" y="245"/>
      <point x="600" y="170" type="curve" smooth="yes"/>
      <point x="600" y="95"/>
      <point x="624" y="70"/>
    </contour>
  </outline>
</glyph>
<glyph name="ampersand" format="1">
  <advance width="645"/>
  <unicode hex="0026"/>
  <outline>
    <contour>
      <point x="250" y="-10" type="curve" smooth="yes"/>
      <point x="105" y="-10"/>
      <point x="20" y="75"/>
      <point x="20" y="180" type="curve" smooth="yes"/>
      <point x="20" y="245"/>
      <point x="56" y="294"/>
      <point x="95" y="329" type="curve" smooth="yes"/>
      <point x="117" y="349"/>
      <point x="142" y="366"/>
      <point x="170" y="380" type="curve"/>
      <point x="153" y="394"/>
      <point x="138" y="410"/>
      <point x="125" y="427" type="curve" smooth="yes"/>
      <point x="102" y="458"/>
      <point x="80" y="499"/>
      <point x="80" y="550" type="curve" smooth="yes"/>
      <point x="80" y="640"/>
      <point x="150" y="710"/>
      <point x="275" y="710" type="curve" smooth="yes"/>
      <point x="395" y="710"/>
      <point x="465" y="640"/>
      <point x="465" y="560" type="curve" smooth="yes"/>
      <point x="465" y="504"/>
      <point x="432" y="458"/>
      <point x="397" y="426" type="curve" smooth="yes"/>
      <point x="377" y="407"/>
      <point x="354" y="390"/>
      <point x="329" y="375" type="curve"/>
      <point x="455" y="225" type="line"/>
      <point x="457" y="254" type="line" smooth="yes"/>
      <point x="458" y="271"/>
      <point x="460" y="295"/>
      <point x="460" y="320" type="curve"/>
      <point x="590" y="320" type="line"/>
      <point x="590" y="235"/>
      <point x="565" y="180"/>
      <point x="530" y="135" type="curve"/>
      <point x="640" y="0" type="line"/>
      <point x="480" y="0" type="line"/>
      <point x="440" y="50" type="line"/>
      <point x="425" y="39"/>
      <point x="407" y="29"/>
      <point x="388" y="20" type="curve" smooth="yes"/>
      <point x="355" y="5"/>
      <point x="307" y="-10"/>
    </contour>
    <contour>
      <point x="265" y="450" type="curve"/>
      <point x="276" y="459"/>
      <point x="286" y="470"/>
      <point x="295" y="482" type="curve" smooth="yes"/>
      <point x="310" y="502"/>
      <point x="325" y="529"/>
      <point x="325" y="560" type="curve" smooth="yes"/>
      <point x="325" y="600"/>
      <point x="300" y="625"/>
      <point x="275" y="625" type="curve" smooth="yes"/>
      <point x="244" y="625"/>
      <point x="220" y="601"/>
      <point x="220" y="550" type="curve" smooth="yes"/>
      <point x="220" y="527"/>
      <point x="231" y="502"/>
      <point x="242" y="483" type="curve" smooth="yes"/>
      <point x="249" y="472"/>
      <point x="256" y="461"/>
    </contour>
    <contour>
      <point x="270" y="80" type="curve" smooth="yes"/>
      <point x="307" y="80"/>
      <point x="337" y="88"/>
      <point x="356" y="97" type="curve" smooth="yes"/>
      <point x="367" y="102"/>
      <point x="377" y="108"/>
      <point x="385" y="115" type="curve"/>
      <point x="230" y="300" type="line"/>
      <point x="217" y="291"/>
      <point x="205" y="280"/>
      <point x="195" y="268" type="curve" smooth="yes"/>
      <point x="176" y="247"/>
      <point x="160" y="217"/>
      <point x="160" y="180" type="curve" smooth="yes"/>
      <point x="160" y="124"/>
      <point x="205" y="80"/>
    </contour>
  </outline>
</glyph>
<glyph name="quotesingle" format="1">
  <advance width="205"/>
  <unicode hex="0027"/>
  <outline>
    <contour>
      <point x="60" y="455" type="line"/>
      <point x="35" y="700" type="line"/>
      <point x="170" y="700" type="line"/>
      <point x="145" y="455" type="line"/>
    </contour>
  </outline>
</glyph>
<glyph name="parenleft" format="1">
  <advance width="320"/>
  <unicode hex="0028"/>
  <outline>
    <contour>
      <point x="265" y="-185" type="line"/>
      <point x="140" y="-81"/>
      <point x="55" y="91"/>
      <point x="55" y="280" type="curve" smooth="yes"/>
      <point x="55" y="469"/>
      <point x="140" y="641"/>
      <point x="265" y="745" type="curve"/>
      <point x="320" y="690" type="line"/>
      <point x="240" y="585"/>
      <point x="195" y="460"/>
      <point x="195" y="280" type="curve" smooth="yes"/>
      <point x="195" y="100"/>
      <point x="240" y="-25"/>
      <point x="320" y="-130" type="curve"/>
    </contour>
  </outline>
</glyph>
<glyph name="parenright" format="1">
  <advance width="320"/>
  <unicode hex="0029"/>
  <outline>
    <contour>
      <point x="55" y="-185" type="curve"/>
      <point x="0" y="-130" type="line"/>
      <point x="80" y="-25"/>
      <point x="125" y="100"/>
      <point x="125" y="280" type="curve" smooth="yes"/>
      <point x="125" y="460"/>
      <point x="80" y="585"/>
      <point x="0" y="690" type="curve"/>
      <point x="55" y="745" type="line"/>
      <point x="180" y="641"/>
      <point x="265" y="469"/>
      <point x="265" y="280" type="curve" smooth="yes"/>
      <point x="265" y="91"/>
      <point x="180" y="-81"/>
    </contour>
  </outline>
</glyph>
<glyph name="asterisk" format="1">
  <advance width="440"/>
  <unicode hex="002A"/>
  <outline>
    <contour>
      <point x="175" y="330" type="line"/>
      <point x="175" y="437" type="line"/>
      <point x="75" y="380" type="line"/>
      <point x="30" y="460" type="line"/>
      <point x="126" y="515" type="line"/>
      <point x="30" y="570" type="line"/>
      <point x="75" y="650" type="line"/>
      <point x="175" y="592" type="line"/>
      <point x="175" y="700" type="line"/>
      <point x="265" y="700" type="line"/>
      <point x="265" y="592" type="line"/>
      <point x="365" y="650" type="line"/>
      <point x="410" y="570" type="line"/>
      <point x="314" y="515" type="line"/>
      <point x="410" y="460" type="line"/>
      <point x="365" y="380" type="line"/>
      <point x="265" y="437" type="line"/>
      <point x="265" y="330" type="line"/>
    </contour>
  </outline>
</glyph>
<glyph name="plus" format="1">
  <advance width="490"/>
  <unicode hex="002B"/>
  <outline>
    <contour>
      <point x="195" y="115" type="line"/>
      <point x="195" y="280" type="line"/>
      <point x="30" y="280" type="line"/>
      <point x="30" y="380" type="line"/>
      <point x="195" y="380" type="line"/>
      <point x="195" y="545" type="line"/>
      <point x="295" y="545" type="line"/>
      <point x="295" y="380" type="line"/>
      <point x="460" y="380" type="line"/>
      <point x="460" y="280" type="line"/>
      <point x="295" y="280" type="line"/>
      <point x="295" y="115" type="line"/>
    </contour>
  </outline>
</glyph>
<glyph name="comma" format="1">
  <advance width="220"/>
  <unicode hex="002C"/>
  <outline>
    <contour>
      <point x="75" y="-135" type="curve"/>
      <point x="45" y="-95" type="line"/>
      <point x="57" y="-88"/>
      <point x="68" y="-80"/>
      <point x="77" y="-71" type="curve" smooth="yes"/>
      <point x="93" y="-56"/>
      <point x="110" y="-35"/>
      <point x="110" y="-10" type="curve"/>
      <point x="70" y="-10"/>
      <point x="35" y="25"/>
      <point x="35" y="65" type="curve" smooth="yes"/>
      <point x="35" y="105"/>
      <point x="70" y="140"/>
      <point x="105" y="140" type="curve" smooth="yes"/>
      <point x="150" y="140"/>
      <point x="185" y="106"/>
      <point x="185" y="55" type="curve" smooth="yes"/>
      <point x="185" y="-18"/>
      <point x="157" y="-65"/>
      <point x="130" y="-94" type="curve" smooth="yes"/>
      <point x="113" y="-111"/>
      <point x="95" y="-125"/>
    </contour>
  </outline>
</glyph>
<glyph name="hyphen" format="1">
  <advance width="450"/>
  <unicode hex="002D"/>
  <outline>
    <contour>
      <point x="30" y="280" type="line"/>
      <point x="30" y="380" type="line"/>
      <point x="420" y="380" type="line"/>
      <point x="420" y="280" type="line"/>
    </contour>
  </outline>
</glyph>
<glyph name="period" format="1">
  <advance width="220"/>
  <unicode hex="002E"/>
  <outline>
    <contour>
      <point x="110" y="-10" type="curve" smooth="yes"/>
      <point x="70" y="-10"/>
      <point x="35" y="25"/>
      <point x="35" y="65" type="curve" smooth="yes"/>
      <point x="35" y="105"/>
      <point x="70" y="140"/>
      <point x="110" y="140" type="curve" smooth="yes"/>
      <point x="150" y="140"/>
      <point x="185" y="105"/>
      <point x="185" y="65" type="curve" smooth="yes"/>
      <point x="185" y="25"/>
      <point x="150" y="-10"/>
    </contour>
  </outline>
</glyph>
<glyph name="zero" format="1">
  <advance width="610"/>
  <unicode hex="0030"/>
  <outline>
    <contour>
      <point x="305" y="-10" type="curve" smooth="yes"/>
      <point x="155" y="-10"/>
      <point x="50" y="95"/>
      <point x="50" y="350" type="curve" smooth="yes"/>
      <point x="50" y="605"/>
      <point x="155" y="710"/>
      <point x="305" y="710" type="curve" smooth="yes"/>
      <point x="454" y="710"/>
      <point x="560" y="605"/>
      <point x="560" y="350" type="curve" smooth="yes"/>
      <point x="560" y="95"/>
      <point x="454" y="-10"/>
    </contour>
    <contour>
      <point x="305" y="80" type="curve" smooth="yes"/>
      <point x="365" y="80"/>
      <point x="420" y="135"/>
      <point x="420" y="350" type="curve" smooth="yes"/>
      <point x="420" y="565"/>
      <point x="365" y="620"/>
      <point x="305" y="620" type="curve" smooth="yes"/>
      <point x="245" y="620"/>
      <point x="190" y="565"/>
      <point x="190" y="350" type="curve" smooth="yes"/>
      <point x="190" y="135"/>
      <point x="245" y="80"/>
    </contour>
  </outline>
</glyph>
<glyph name="one" format="1">
  <advance width="410"/>
  <unicode hex="0031"/>
  <outline>
    <contour>
      <point x="50" y="0" type="line"/>
      <point x="50" y="90" type="line"/>
      <point x="150" y="90" type="line"/>
      <point x="150" y="560" type="line"/>
      <point x="70" y="505" type="line"/>
      <point x="15" y="580" type="line"/>
      <point x="160" y="700" type="line"/>
      <point x="290" y="700" type="line"/>
      <point x="290" y="90" type="line"/>
      <point x="390" y="90" type="line"/>
      <point x="390" y="0" type="line"/>
    </contour>
  </outline>
</glyph>
<glyph name="two" format="1">
  <advance width="515"/>
  <unicode hex="0032"/>
  <outline>
    <contour>
      <point x="20" y="0" type="line"/>
      <point x="20" y="70" type="line" smooth="yes"/>
      <point x="20" y="300"/>
      <point x="340" y="360"/>
      <point x="340" y="520" type="curve" smooth="yes"/>
      <point x="340" y="580"/>
      <point x="301" y="620"/>
      <point x="225" y="620" type="curve" smooth="yes"/>
      <point x="177" y="620"/>
      <point x="142" y="608"/>
      <point x="119" y="597" type="curve" smooth="yes"/>
      <point x="106" y="590"/>
      <point x="94" y="583"/>
      <point x="85" y="575" type="curve"/>
      <point x="75" y="575" type="line"/>
      <point x="30" y="655" type="line"/>
      <point x="45" y="665"/>
      <point x="62" y="674"/>
      <point x="82" y="682" type="curve" smooth="yes"/>
      <point x="117" y="697"/>
      <point x="167" y="710"/>
      <point x="235" y="710" type="curve" smooth="yes"/>
      <point x="400" y="710"/>
      <point x="480" y="630"/>
      <point x="480" y="510" type="curve" smooth="yes"/>
      <point x="480" y="301"/>
      <point x="160" y="230"/>
      <point x="160" y="90" type="curve"/>
      <point x="480" y="90" type="line"/>
      <point x="480" y="0" type="line"/>
    </contour>
  </outline>
</glyph>
<glyph name="three" format="1">
  <advance width="520"/>
  <unicode hex="0033"/>
  <outline>
    <contour>
      <point x="210" y="-10" type="curve" smooth="yes"/>
      <point x="142" y="-10"/>
      <point x="92" y="2"/>
      <point x="57" y="17" type="curve" smooth="yes"/>
      <point x="37" y="25"/>
      <point x="20" y="34"/>
      <point x="5" y="45" type="curve"/>
      <point x="50" y="125" type="line"/>
      <point x="60" y="125" type="line"/>
      <point x="69" y="116"/>
      <point x="81" y="109"/>
      <point x="94" y="102" type="curve" smooth="yes"/>
      <point x="117" y="91"/>
      <point x="152" y="80"/>
      <point x="200" y="80" type="curve" smooth="yes"/>
      <point x="300" y="80"/>
      <point x="345" y="124"/>
      <point x="345" y="200" type="curve" smooth="yes"/>
      <point x="345" y="285"/>
      <point x="300" y="330"/>
      <point x="200" y="330" type="curve" smooth="yes"/>
      <point x="85" y="330" type="line"/>
      <point x="85" y="420" type="line"/>
      <point x="295" y="610" type="line"/>
      <point x="20" y="610" type="line"/>
      <point x="20" y="700" type="line"/>
      <point x="455" y="700" type="line"/>
      <point x="455" y="610" type="line"/>
      <point x="235" y="420" type="line"/>
      <point x="399" y="420"/>
      <point x="485" y="324"/>
      <point x="485" y="200" type="curve" smooth="yes"/>
      <point x="485" y="75"/>
      <point x="399" y="-10"/>
    </contour>
  </outline>
</glyph>
<glyph name="four" format="1">
  <advance width="560"/>
  <unicode hex="0034"/>
  <outline>
    <contour>
      <point x="330" y="0" type="line"/>
      <point x="330" y="160" type="line"/>
      <point x="10" y="160" type="line"/>
      <point x="10" y="250" type="line"/>
      <point x="340" y="700" type="line"/>
      <point x="470" y="700" type="line"/>
      <point x="470" y="250" type="line"/>
      <point x="540" y="250" type="line"/>
      <point x="540" y="160" type="line"/>
      <point x="470" y="160" type="line"/>
      <point x="470" y="0" type="line"/>
    </contour>
    <contour>
      <point x="150" y="250" type="line"/>
      <point x="330" y="250" type="line"/>
      <point x="330" y="460" type="line" smooth="yes"/>
      <point x="330" y="475"/>
      <point x="332" y="489"/>
      <point x="335" y="501" type="curve" smooth="yes"/>
      <point x="336" y="508"/>
      <point x="338" y="514"/>
      <point x="340" y="520" type="curve"/>
      <point x="336" y="520" type="line"/>
      <point x="333" y="514"/>
      <point x="331" y="507"/>
      <point x="328" y="500" type="curve" smooth="yes"/>
      <point x="323" y="488"/>
      <point x="316" y="473"/>
      <point x="305" y="460" type="curve" smooth="yes"/>
    </contour>
  </outline>
</glyph>
<glyph name="five" format="1">
  <advance width="540"/>
  <unicode hex="0035"/>
  <outline>
    <contour>
      <point x="240" y="-10" type="curve" smooth="yes"/>
      <point x="172" y="-10"/>
      <point x="122" y="2"/>
      <point x="87" y="17" type="curve" smooth="yes"/>
      <point x="67" y="25"/>
      <point x="50" y="34"/>
      <point x="35" y="45" type="curve"/>
      <point x="80" y="125" type="line"/>
      <point x="90" y="125" type="line"/>
      <point x="99" y="116"/>
      <point x="111" y="109"/>
      <point x="124" y="102" type="curve" smooth="yes"/>
      <point x="147" y="91"/>
      <point x="182" y="80"/>
      <point x="230" y="80" type="curve" smooth="yes"/>
      <point x="320" y="80"/>
      <point x="365" y="125"/>
      <point x="365" y="215" type="curve" smooth="yes"/>
      <point x="365" y="305"/>
      <point x="320" y="350"/>
      <point x="230" y="350" type="curve" smooth="yes"/>
      <point x="104" y="350" type="line"/>
      <point x="65" y="391" type="line"/>
      <point x="65" y="700" type="line"/>
      <point x="469" y="700" type="line"/>
      <point x="469" y="620" type="line"/>
      <point x="205" y="620" type="line"/>
      <point x="205" y="440" type="line"/>
      <point x="245" y="440" type="line" smooth="yes"/>
      <point x="421" y="440"/>
      <point x="505" y="356"/>
      <point x="505" y="215" type="curve" smooth="yes"/>
      <point x="505" y="75"/>
      <point x="420" y="-10"/>
    </contour>
  </outline>
</glyph>
<glyph name="six" format="1">
  <advance width="560"/>
  <unicode hex="0036"/>
  <outline>
    <contour>
      <point x="291" y="-10" type="curve" smooth="yes"/>
      <point x="130" y="-10"/>
      <point x="45" y="74"/>
      <point x="45" y="230" type="curve" smooth="yes"/>
      <point x="45" y="430" type="line" smooth="yes"/>
      <point x="45" y="610"/>
      <point x="145" y="710"/>
      <point x="300" y="710" type="curve" smooth="yes"/>
      <point x="363" y="710"/>
      <point x="412" y="697"/>
      <point x="445" y="682" type="curve" smooth="yes"/>
      <point x="464" y="674"/>
      <point x="481" y="665"/>
      <point x="496" y="655" type="curve"/>
      <point x="451" y="575" type="line"/>
      <point x="441" y="575" type="line"/>
      <point x="431" y="583"/>
      <point x="420" y="590"/>
      <point x="407" y="597" type="curve" smooth="yes"/>
      <point x="384" y="608"/>
      <point x="353" y="620"/>
      <point x="310" y="620" type="curve" smooth="yes"/>
      <point x="235" y="620"/>
      <point x="185" y="570"/>
      <point x="185" y="430" type="curve"/>
      <point x="194" y="435"/>
      <point x="204" y="440"/>
      <point x="216" y="445" type="curve" smooth="yes"/>
      <point x="236" y="452"/>
      <point x="265" y="460"/>
      <point x="300" y="460" type="curve" smooth="yes"/>
      <point x="441" y="460"/>
      <point x="525" y="375"/>
      <point x="525" y="230" type="curve" smooth="yes"/>
      <point x="525" y="74"/>
      <point x="440" y="-10"/>
    </contour>
    <contour>
      <point x="290" y="80" type="curve" smooth="yes"/>
      <point x="340" y="80"/>
      <point x="385" y="125"/>
      <point x="385" y="230" type="curve" smooth="yes"/>
      <point x="385" y="326"/>
      <point x="340" y="370"/>
      <point x="275" y="370" type="curve" smooth="yes"/>
      <point x="250" y="370"/>
      <point x="227" y="362"/>
      <point x="211" y="355" type="curve" smooth="yes"/>
      <point x="185" y="340" type="line"/>
      <point x="185" y="230" type="line" smooth="yes"/>
      <point x="185" y="125"/>
      <point x="230" y="80"/>
    </contour>
  </outline>
</glyph>
<glyph name="seven" format="1">
  <advance width="480"/>
  <unicode hex="0037"/>
  <outline>
    <contour>
      <point x="150" y="0" type="line"/>
      <point x="150" y="90" type="line" smooth="yes"/>
      <point x="150" y="318"/>
      <point x="240" y="502"/>
      <point x="330" y="610" type="curve"/>
      <point x="10" y="610" type="line"/>
      <point x="10" y="700" type="line"/>
      <point x="470" y="700" type="line"/>
      <point x="470" y="610" type="line"/>
      <point x="380" y="502"/>
      <point x="290" y="318"/>
      <point x="290" y="90" type="curve" smooth="yes"/>
      <point x="290" y="0" type="line"/>
    </contour>
  </outline>
</glyph>
<glyph name="eight" format="1">
  <advance width="560"/>
  <unicode hex="0038"/>
  <outline>
    <contour>
      <point x="280" y="-10" type="curve" smooth="yes"/>
      <point x="110" y="-10"/>
      <point x="25" y="75"/>
      <point x="25" y="180" type="curve" smooth="yes"/>
      <point x="25" y="257"/>
      <point x="65" y="305"/>
      <point x="105" y="333" type="curve" smooth="yes"/>
      <point x="128" y="350"/>
      <point x="155" y="362"/>
      <point x="185" y="370" type="curve"/>
      <point x="160" y="377"/>
      <point x="137" y="388"/>
      <point x="117" y="402" type="curve" smooth="yes"/>
      <point x="82" y="426"/>
      <point x="50" y="467"/>
      <point x="50" y="535" type="curve" smooth="yes"/>
      <point x="50" y="626"/>
      <point x="135" y="710"/>
      <point x="280" y="710" type="curve" smooth="yes"/>
      <point x="425" y="710"/>
      <point x="510" y="626"/>
      <point x="510" y="535" type="curve" smooth="yes"/>
      <point x="510" y="467"/>
      <point x="477" y="426"/>
      <point x="442" y="402" type="curve" smooth="yes"/>
      <point x="422" y="388"/>
      <point x="400" y="377"/>
      <point x="375" y="370" type="curve"/>
      <point x="405" y="362"/>
      <point x="432" y="350"/>
      <point x="455" y="333" type="curve" smooth="yes"/>
      <point x="495" y="305"/>
      <point x="535" y="257"/>
      <point x="535" y="180" type="curve" smooth="yes"/>
      <point x="535" y="75"/>
      <point x="450" y="-10"/>
    </contour>
    <contour>
      <point x="280" y="425" type="curve"/>
      <point x="335" y="445"/>
      <point x="370" y="470"/>
      <point x="370" y="535" type="curve" smooth="yes"/>
      <point x="370" y="580"/>
      <point x="331" y="620"/>
      <point x="280" y="620" type="curve" smooth="yes"/>
      <point x="229" y="620"/>
      <point x="190" y="580"/>
      <point x="190" y="535" type="curve" smooth="yes"/>
      <point x="190" y="470"/>
      <point x="225" y="445"/>
    </contour>
    <contour>
      <point x="280" y="80" type="curve" smooth="yes"/>
      <point x="356" y="80"/>
      <point x="395" y="120"/>
      <point x="395" y="180" type="curve" smooth="yes"/>
      <point x="395" y="260"/>
      <point x="344" y="291"/>
      <point x="280" y="315" type="curve"/>
      <point x="216" y="291"/>
      <point x="165" y="260"/>
      <point x="165" y="180" type="curve" smooth="yes"/>
      <point x="165" y="120"/>
      <point x="204" y="80"/>
    </contour>
  </outline>
</glyph>
<glyph name="nine" format="1">
  <advance width="560"/>
  <unicode hex="0039"/>
  <outline>
    <contour>
      <point x="260" y="-10" type="curve" smooth="yes"/>
      <point x="196" y="-10"/>
      <point x="148" y="2"/>
      <point x="115" y="17" type="curve" smooth="yes"/>
      <point x="96" y="25"/>
      <point x="79" y="34"/>
      <point x="64" y="45" type="curve"/>
      <point x="109" y="125" type="line"/>
      <point x="119" y="125" type="line"/>
      <point x="129" y="116"/>
      <point x="140" y="109"/>
      <point x="153" y="102" type="curve" smooth="yes"/>
      <point x="176" y="91"/>
      <point x="207" y="80"/>
      <point x="250" y="80" type="curve" smooth="yes"/>
      <point x="325" y="80"/>
      <point x="375" y="130"/>
      <point x="375" y="270" type="curve"/>
      <point x="366" y="264"/>
      <point x="356" y="259"/>
      <point x="344" y="255" type="curve" smooth="yes"/>
      <point x="324" y="247"/>
      <point x="295" y="240"/>
      <point x="260" y="240" type="curve" smooth="yes"/>
      <point x="119" y="240"/>
      <point x="35" y="325"/>
      <point x="35" y="470" type="curve" smooth="yes"/>
      <point x="35" y="626"/>
      <point x="120" y="710"/>
      <point x="269" y="710" type="curve" smooth="yes"/>
      <point x="430" y="710"/>
      <point x="515" y="626"/>
      <point x="515" y="470" type="curve" smooth="yes"/>
      <point x="515" y="270" type="line" smooth="yes"/>
      <point x="515" y="90"/>
      <point x="415" y="-10"/>
    </contour>
    <contour>
      <point x="285" y="330" type="curve" smooth="yes"/>
      <point x="310" y="330"/>
      <point x="333" y="337"/>
      <point x="349" y="345" type="curve" smooth="yes"/>
      <point x="358" y="349"/>
      <point x="367" y="354"/>
      <point x="375" y="360" type="curve"/>
      <point x="375" y="470" type="line" smooth="yes"/>
      <point x="375" y="575"/>
      <point x="330" y="620"/>
      <point x="270" y="620" type="curve" smooth="yes"/>
      <point x="220" y="620"/>
      <point x="175" y="575"/>
      <point x="175" y="470" type="curve" smooth="yes"/>
      <point x="175" y="374"/>
      <point x="220" y="330"/>
    </contour>
  </outline>
</glyph>
<glyph name="colon" format="1">
  <advance width="220"/>
  <unicode hex="003A"/>
  <outline>
    <contour>
      <point x="110" y="360" type="curve" smooth="yes"/>
      <point x="70" y="360"/>
      <point x="35" y="395"/>
      <point x="35" y="435" type="curve" smooth="yes"/>
      <point x="35" y="475"/>
      <point x="70" y="510"/>
      <point x="110" y="510" type="curve" smooth="yes"/>
      <point x="150" y="510"/>
      <point x="185" y="475"/>
      <point x="185" y="435" type="curve" smooth="yes"/>
      <point x="185" y="395"/>
      <point x="150" y="360"/>
    </contour>
    <contour>
      <point x="110" y="-10" type="curve" smooth="yes"/>
      <point x="70" y="-10"/>
      <point x="35" y="25"/>
      <point x="35" y="65" type="curve" smooth="yes"/>
      <point x="35" y="105"/>
      <point x="70" y="140"/>
      <point x="110" y="140" type="curve" smooth="yes"/>
      <point x="150" y="140"/>
      <point x="185" y="105"/>
      <point x="185" y="65" type="curve" smooth="yes"/>
      <point x="185" y="25"/>
      <point x="150" y="-10"/>
    </contour>
  </outline>
</glyph>
<glyph name="less" format="1">
  <advance width="455"/>
  <unicode hex="003C"/>
  <outline>
    <contour>
      <point x="420" y="0" type="line"/>
      <point x="20" y="210" type="line"/>
      <point x="20" y="290" type="line"/>
      <point x="420" y="500" type="line"/>
      <point x="420" y="380" type="line"/>
      <point x="170" y="250" type="line"/>
      <point x="420" y="120" type="line"/>
    </contour>
  </outline>
</glyph>
<glyph name="equal" format="1">
  <advance width="510"/>
  <unicode hex="003D"/>
  <outline>
    <contour>
      <point x="35" y="376" type="line"/>
      <point x="35" y="476" type="line"/>
      <point x="475" y="476" type="line"/>
      <point x="475" y="376" type="line"/>
    </contour>
    <contour>
      <point x="35" y="185" type="line"/>
      <point x="35" y="285" type="line"/>
      <point x="475" y="285" type="line"/>
      <point x="475" y="185" type="line"/>
    </contour>
  </outline>
</glyph>
<glyph name="greater" format="1">
  <advance width="455"/>
  <unicode hex="003E"/>
  <outline>
    <contour>
      <point x="35" y="0" type="line"/>
      <point x="35" y="120" type="line"/>
      <point x="285" y="250" type="line"/>
      <point x="35" y="380" type="line"/>
      <point x="35" y="500" type="line"/>
      <point x="435" y="290" type="line"/>
      <point x="435" y="210" type="line"/>
    </contour>
  </outline>
</glyph>
<glyph name="question" format="1">
  <advance width="490"/>
  <unicode hex="003F"/>
  <outline>
    <contour>
      <point x="130" y="200" type="line"/>
      <point x="130" y="230" type="line" smooth="yes"/>
      <point x="130" y="400"/>
      <point x="315" y="399"/>
      <point x="315" y="530" type="curve" smooth="yes"/>
      <point x="315" y="581"/>
      <point x="275" y="620"/>
      <point x="195" y="620" type="curve" smooth="yes"/>
      <point x="147" y="620"/>
      <point x="112" y="608"/>
      <point x="89" y="597" type="curve" smooth="yes"/>
      <point x="76" y="590"/>
      <point x="64" y="583"/>
      <point x="55" y="575" type="curve"/>
      <point x="45" y="575" type="line"/>
      <point x="0" y="655" type="line"/>
      <point x="15" y="665"/>
      <point x="32" y="674"/>
      <point x="52" y="682" type="curve" smooth="yes"/>
      <point x="87" y="697"/>
      <point x="137" y="710"/>
      <point x="205" y="710" type="curve" smooth="yes"/>
      <point x="376" y="710"/>
      <point x="455" y="630"/>
      <point x="455" y="520" type="curve" smooth="yes"/>
      <point x="455" y="340"/>
      <point x="260" y="340"/>
      <point x="260" y="230" type="curve" smooth="yes"/>
      <point x="260" y="200" type="line"/>
    </contour>
    <contour>
      <point x="195" y="-10" type="curve" smooth="yes"/>
      <point x="155" y="-10"/>
      <point x="120" y="25"/>
      <point x="120" y="65" type="curve" smooth="yes"/>
      <point x="120" y="105"/>
      <point x="155" y="140"/>
      <point x="195" y="140" type="curve" smooth="yes"/>
      <point x="235" y="140"/>
      <point x="270" y="105"/>
      <point x="270" y="65" type="curve" smooth="yes"/>
      <point x="270" y="25"/>
      <point x="235" y="-10"/>
    </contour>
  </outline>
</glyph>
<glyph name="at" format="1">
  <advance width="960"/>
  <unicode hex="0040"/>
  <outline>
    <contour>
      <point x="470" y="-120" type="curve" smooth="yes"/>
      <point x="219" y="-120"/>
      <point x="40" y="60"/>
      <point x="40" y="300" type="curve" smooth="yes"/>
      <point x="40" y="540"/>
      <point x="220" y="720"/>
      <point x="480" y="720" type="curve" smooth="yes"/>
      <point x="740" y="720"/>
      <point x="920" y="540"/>
      <point x="920" y="300" type="curve" smooth="yes"/>
      <point x="920" y="145"/>
      <point x="830" y="55"/>
      <point x="705" y="55" type="curve" smooth="yes"/>
      <point x="660" y="55"/>
      <point x="627" y="67"/>
      <point x="606" y="82" type="curve" smooth="yes"/>
      <point x="594" y="90"/>
      <point x="584" y="99"/>
      <point x="575" y="110" type="curve"/>
      <point x="570" y="110" type="line"/>
      <point x="563" y="99"/>
      <point x="553" y="90"/>
      <point x="542" y="82" type="curve" smooth="yes"/>
      <point x="523" y="67"/>
      <point x="493" y="55"/>
      <point x="450" y="55" type="curve" smooth="yes"/>
      <point x="345" y="55"/>
      <point x="265" y="135"/>
      <point x="265" y="295" type="curve" smooth="yes"/>
      <point x="265" y="455"/>
      <point x="345" y="535"/>
      <point x="450" y="535" type="curve" smooth="yes"/>
      <point x="487" y="535"/>
      <point x="517" y="522"/>
      <point x="538" y="507" type="curve" smooth="yes"/>
      <point x="550" y="499"/>
      <point x="561" y="490"/>
      <point x="570" y="480" type="curve"/>
      <point x="575" y="480" type="line"/>
      <point x="585" y="525" type="line"/>
      <point x="675" y="525" type="line"/>
      <point x="675" y="155" type="line" smooth="yes"/>
      <point x="678" y="152"/>
      <point x="682" y="150"/>
      <point x="686" y="147" type="curve" smooth="yes"/>
      <point x="694" y="142"/>
      <point x="704" y="140"/>
      <point x="715" y="140" type="curve" smooth="yes"/>
      <point x="760" y="140"/>
      <point x="800" y="180"/>
      <point x="800" y="300" type="curve" smooth="yes"/>
      <point x="800" y="489"/>
      <point x="660" y="630"/>
      <point x="480" y="630" type="curve" smooth="yes"/>
      <point x="300" y="630"/>
      <point x="160" y="489"/>
      <point x="160" y="300" type="curve" smooth="yes"/>
      <point x="160" y="111"/>
      <point x="300" y="-30"/>
      <point x="480" y="-30" type="curve" smooth="yes"/>
      <point x="536" y="-30"/>
      <point x="574" y="-19"/>
      <point x="601" y="-8" type="curve" smooth="yes"/>
      <point x="616" y="-1"/>
      <point x="629" y="6"/>
      <point x="640" y="15" type="curve"/>
      <point x="650" y="15" type="line"/>
      <point x="695" y="-65" type="line"/>
      <point x="680" y="-76"/>
      <point x="661" y="-85"/>
      <point x="639" y="-93" type="curve" smooth="yes"/>
      <point x="600" y="-108"/>
      <point x="546" y="-120"/>
    </contour>
    <contour>
      <point x="475" y="145" type="curve" smooth="yes"/>
      <point x="498" y="145"/>
      <point x="515" y="150"/>
      <point x="527" y="157" type="curve" smooth="yes"/>
      <point x="534" y="160"/>
      <point x="540" y="165"/>
      <point x="545" y="170" type="curve"/>
      <point x="545" y="400" type="line"/>
      <point x="539" y="408"/>
      <point x="532" y="415"/>
      <point x="525" y="422" type="curve" smooth="yes"/>
      <point x="512" y="433"/>
      <point x="495" y="445"/>
      <point x="475" y="445" type="curve" smooth="yes"/>
      <point x="430" y="445"/>
      <point x="395" y="410"/>
      <point x="395" y="295" type="curve" smooth="yes"/>
      <point x="395" y="180"/>
      <point x="435" y="145"/>
    </contour>
  </outline>
</glyph>
<glyph name="B" format="1">
  <advance width="610"/>
  <unicode hex="0042"/>
  <outline>
    <contour>
      <point x="85" y="0" type="line"/>
      <point x="85" y="700" type="line"/>
      <point x="295" y="700" type="line" smooth="yes"/>
      <point x="459" y="700"/>
      <point x="535" y="624"/>
      <point x="535" y="520" type="curve" smooth="yes"/>
      <point x="535" y="455"/>
      <point x="503" y="417"/>
      <point x="472" y="396" type="curve" smooth="yes"/>
      <point x="454" y="384"/>
      <point x="433" y="375"/>
      <point x="410" y="370" type="curve"/>
      <point x="438" y="365"/>
      <point x="463" y="355"/>
      <point x="485" y="341" type="curve" smooth="yes"/>
      <point x="522" y="317"/>
      <point x="560" y="272"/>
      <point x="560" y="195" type="curve" smooth="yes"/>
      <point x="560" y="75"/>
      <point x="485" y="0"/>
      <point x="295" y="0" type="curve" smooth="yes"/>
    </contour>
    <contour>
      <point x="225" y="410" type="line"/>
      <point x="295" y="410" type="line" smooth="yes"/>
      <point x="355" y="410"/>
      <point x="395" y="450"/>
      <point x="395" y="510" type="curve" smooth="yes"/>
      <point x="395" y="570"/>
      <point x="355" y="610"/>
      <point x="295" y="610" type="curve" smooth="yes"/>
      <point x="225" y="610" type="line"/>
    </contour>
    <contour>
      <point x="225" y="90" type="line"/>
      <point x="295" y="90" type="line" smooth="yes"/>
      <point x="378" y="90"/>
      <point x="420" y="128"/>
      <point x="420" y="205" type="curve" smooth="yes"/>
      <point x="420" y="282"/>
      <point x="378" y="320"/>
      <point x="295" y="320" type="curve" smooth="yes"/>
      <point x="225" y="320" type="line"/>
    </contour>
  </outline>
</glyph>
<glyph name="D" format="1">
  <advance width="615"/>
  <unicode hex="0044"/>
  <outline>
    <contour>
      <point x="85" y="0" type="line"/>
      <point x="85" y="700" type="line"/>
      <point x="255" y="700" type="line" smooth="yes"/>
      <point x="455" y="700"/>
      <point x="565" y="590"/>
      <point x="565" y="350" type="curve" smooth="yes"/>
      <point x="565" y="110"/>
      <point x="455" y="0"/>
      <point x="255" y="0" type="curve" smooth="yes"/>
    </contour>
    <contour>
      <point x="225" y="90" type="line"/>
      <point x="255" y="90" type="line" smooth="yes"/>
      <point x="365" y="90"/>
      <point x="425" y="150"/>
      <point x="425" y="350" type="curve" smooth="yes"/>
      <point x="425" y="550"/>
      <point x="365" y="610"/>
      <point x="255" y="610" type="curve" smooth="yes"/>
      <point x="225" y="610" type="line"/>
    </contour>
  </outline>
</glyph>
<glyph name="F" format="1">
  <advance width="525"/>
  <unicode hex="0046"/>
  <outline>
    <contour>
      <point x="85" y="0" type="line"/>
      <point x="85" y="700" type="line"/>
      <point x="505" y="700" type="line"/>
      <point x="505" y="610" type="line"/>
      <point x="225" y="610" type="line"/>
      <point x="225" y="400" type="line"/>
      <point x="445" y="400" type="line"/>
      <point x="445" y="310" type="line"/>
      <point x="225" y="310" type="line"/>
      <point x="225" y="0" type="line"/>
    </contour>
  </outline>
</glyph>
<glyph name="G" format="1">
  <advance width="590"/>
  <unicode hex="0047"/>
  <outline>
    <contour>
      <point x="330" y="-10" type="curve" smooth="yes"/>
      <point x="154" y="-10"/>
      <point x="50" y="95"/>
      <point x="50" y="350" type="curve" smooth="yes"/>
      <point x="50" y="605"/>
      <point x="155" y="710"/>
      <point x="320" y="710" type="curve" smooth="yes"/>
      <point x="377" y="710"/>
      <point x="424" y="697"/>
      <point x="456" y="682" type="curve" smooth="yes"/>
      <point x="475" y="674"/>
      <point x="491" y="665"/>
      <point x="505" y="655" type="curve"/>
      <point x="460" y="575" type="line"/>
      <point x="450" y="575" type="line"/>
      <point x="441" y="583"/>
      <point x="430" y="590"/>
      <point x="418" y="597" type="curve" smooth="yes"/>
      <point x="397" y="608"/>
      <point x="367" y="620"/>
      <point x="330" y="620" type="curve" smooth="yes"/>
      <point x="250" y="620"/>
      <point x="190" y="561"/>
      <point x="190" y="350" type="curve" smooth="yes"/>
      <point x="190" y="139"/>
      <point x="250" y="80"/>
      <point x="340" y="80" type="curve" smooth="yes"/>
      <point x="353" y="80"/>
      <point x="364" y="82"/>
      <point x="374" y="85" type="curve" smooth="yes"/>
      <point x="379" y="86"/>
      <point x="385" y="88"/>
      <point x="390" y="90" type="curve"/>
      <point x="390" y="300" type="line"/>
      <point x="285" y="300" type="line"/>
      <point x="285" y="390" type="line"/>
      <point x="490" y="390" type="line"/>
      <point x="530" y="350" type="line"/>
      <point x="530" y="45" type="line"/>
      <point x="516" y="34"/>
      <point x="499" y="25"/>
      <point x="479" y="17" type="curve" smooth="yes"/>
      <point x="444" y="2"/>
      <point x="395" y="-10"/>
    </contour>
  </outline>
</glyph>
<glyph name="K" format="1">
  <advance width="585"/>
  <unicode hex="004B"/>
  <outline>
    <contour>
      <point x="85" y="0" type="line"/>
      <point x="85" y="700" type="line"/>
      <point x="225" y="700" type="line"/>
      <point x="225" y="390" type="line"/>
      <point x="410" y="700" type="line"/>
      <point x="565" y="700" type="line"/>
      <point x="355" y="365" type="line"/>
      <point x="580" y="0" type="line"/>
      <point x="420" y="0" type="line"/>
      <point x="225" y="330" type="line"/>
      <point x="225" y="0" type="line"/>
    </contour>
  </outline>
</glyph>
<glyph name="L" format="1">
  <advance width="505"/>
  <unicode hex="004C"/>
  <outline>
    <contour>
      <point x="85" y="0" type="line"/>
      <point x="85" y="700" type="line"/>
      <point x="225" y="700" type="line"/>
      <point x="225" y="90" type="line"/>
      <point x="495" y="90" type="line"/>
      <point x="495" y="0" type="line"/>
    </contour>
  </outline>
</glyph>
<glyph name="T" format="1">
  <advance width="510"/>
  <unicode hex="0054"/>
  <outline>
    <contour>
      <point x="185" y="0" type="line"/>
      <point x="185" y="610" type="line"/>
      <point x="10" y="610" type="line"/>
      <point x="10" y="700" type="line"/>
      <point x="500" y="700" type="line"/>
      <point x="500" y="610" type="line"/>
      <point x="325" y="610" type="line"/>
      <point x="325" y="0" type="line"/>
    </contour>
  </outline>
</glyph>
<glyph name="V" format="1">
  <advance width="590"/>
  <unicode hex="0056"/>
  <outline>
    <contour>
      <point x="227" y="0" type="line"/>
      <point x="27" y="700" type="line"/>
      <point x="155" y="700" type="line"/>
      <point x="280" y="240" type="line" smooth="yes"/>
      <point x="284" y="224"/>
      <point x="286" y="206"/>
      <point x="289" y="191" type="curve" smooth="yes"/>
      <point x="293" y="165" type="line"/>
      <point x="297" y="165" type="line"/>
      <point x="300" y="190" type="line" smooth="yes"/>
      <point x="303" y="205"/>
      <point x="305" y="224"/>
      <point x="310" y="240" type="curve" smooth="yes"/>
      <point x="435" y="700" type="line"/>
      <point x="557" y="700" type="line"/>
      <point x="357" y="0" type="line"/>
    </contour>
  </outline>
</glyph>
<glyph name="W" format="1">
  <advance width="886"/>
  <unicode hex="0057"/>
  <outline>
    <contour>
      <point x="197" y="0" type="line"/>
      <point x="27" y="700" type="line"/>
      <point x="167" y="700" type="line"/>
      <point x="267" y="260" type="line" smooth="yes"/>
      <point x="270" y="247"/>
      <point x="272" y="234"/>
      <point x="273" y="221" type="curve" smooth="yes"/>
      <point x="275" y="200" type="line"/>
      <point x="279" y="200" type="line"/>
      <point x="281" y="221" type="line" smooth="yes"/>
      <point x="282" y="234"/>
      <point x="284" y="247"/>
      <point x="287" y="260" type="curve" smooth="yes"/>
      <point x="398" y="700" type="line"/>
      <point x="496" y="700" type="line"/>
      <point x="607" y="260" type="line" smooth="yes"/>
      <point x="610" y="247"/>
      <point x="612" y="234"/>
      <point x="613" y="221" type="curve" smooth="yes"/>
      <point x="615" y="200" type="line"/>
      <point x="619" y="200" type="line"/>
      <point x="621" y="221" type="line" smooth="yes"/>
      <point x="622" y="234"/>
      <point x="624" y="247"/>
      <point x="627" y="260" type="curve" smooth="yes"/>
      <point x="727" y="700" type="line"/>
      <point x="853" y="700" type="line"/>
      <point x="683" y="0" type="line"/>
      <point x="557" y="0" type="line"/>
      <point x="452" y="435" type="line" smooth="yes"/>
      <point x="449" y="447"/>
      <point x="447" y="464"/>
      <point x="446" y="477" type="curve" smooth="yes"/>
      <point x="444" y="500" type="line"/>
      <point x="440" y="500" type="line"/>
      <point x="438" y="477" type="line" smooth="yes"/>
      <point x="437" y="464"/>
      <point x="435" y="447"/>
      <point x="432" y="435" type="curve" smooth="yes"/>
      <point x="327" y="0" type="line"/>
    </contour>
  </outline>
</glyph>
<glyph name="Z" format="1">
  <advance width="525"/>
  <unicode hex="005A"/>
  <outline>
    <contour>
      <point x="35" y="0" type="line"/>
      <point x="35" y="95" type="line"/>
      <point x="325" y="610" type="line"/>
      <point x="35" y="610" type="line"/>
      <point x="35" y="700" type="line"/>
      <point x="485" y="700" type="line"/>
      <point x="485" y="605" type="line"/>
      <point x="195" y="90" type="line"/>
      <point x="490" y="90" type="line"/>
      <point x="490" y="0" type="line"/>
    </contour>
  </outline>
</glyph>
<glyph name="bracketleft" format="1">
  <advance width="335"/>
  <unicode hex="005B"/>
  <outline>
    <contour>
      <point x="85" y="-170" type="line"/>
      <point x="85" y="730" type="line"/>
      <point x="325" y="730" type="line"/>
      <point x="325" y="640" type="line"/>
      <point x="225" y="640" type="line"/>
      <point x="225" y="-80" type="line"/>
      <point x="325" y="-80" type="line"/>
      <point x="325" y="-170" type="line"/>
    </contour>
  </outline>
</glyph>
<glyph name="bracketright" format="1">
  <advance width="335"/>
  <unicode hex="005D"/>
  <outline>
    <contour>
      <point x="10" y="-170" type="line"/>
      <point x="10" y="-80" type="line"/>
      <point x="110" y="-80" type="line"/>
      <point x="110" y="640" type="line"/>
      <point x="10" y="640" type="line"/>
      <point x="10" y="730" type="line"/>
      <point x="250" y="730" type="line"/>
      <point x="250" y="-170" type="line"/>
    </contour>
  </outline>
</glyph>
<glyph name="asciicircum" format="1">
  <advance width="470"/>
  <unicode hex="005E"/>
  <outline>
    <contour>
      <point x="0" y="440" type="line"/>
      <point x="185" y="720" type="line"/>
      <point x="285" y="720" type="line"/>
      <point x="470" y="440" type="line"/>
      <point x="340" y="440" type="line"/>
      <point x="235" y="600" type="line"/>
      <point x="130" y="440" type="line"/>
    </contour>
  </outline>
</glyph>
<glyph name="underscore" format="1">
  <advance width="390"/>
  <unicode hex="005F"/>
  <outline>
    <contour>
      <point x="0" y="-140" type="line"/>
      <point x="0" y="-40" type="line"/>
      <point x="390" y="-40" type="line"/>
      <point x="390" y="-140" type="line"/>
    </contour>
  </outline>
</glyph>
<glyph name="grave" format="1">
  <advance width="200"/>
  <unicode hex="0060"/>
  <outline>
    <contour>
      <point x="110" y="550" type="line"/>
      <point x="10" y="700" type="line"/>
      <point x="145" y="700" type="line"/>
      <point x="190" y="550" type="line"/>
    </contour>
  </outline>
</glyph>
<glyph name="b" format="1">
  <advance width="560"/>
  <unicode hex="0062"/>
  <outline>
    <contour>
      <point x="320" y="-10" type="curve" smooth="yes"/>
      <point x="275" y="-10"/>
      <point x="242" y="6"/>
      <point x="219" y="25" type="curve" smooth="yes"/>
      <point x="206" y="35"/>
      <point x="194" y="47"/>
      <point x="185" y="60" type="curve"/>
      <point x="180" y="60" type="line"/>
      <point x="170" y="0" type="line"/>
      <point x="70" y="0" type="line"/>
      <point x="70" y="660" type="line"/>
      <point x="110" y="700" type="line"/>
      <point x="210" y="700" type="line"/>
      <point x="210" y="480" type="line"/>
      <point x="217" y="485"/>
      <point x="226" y="490"/>
      <point x="237" y="495" type="curve" smooth="yes"/>
      <point x="254" y="502"/>
      <point x="279" y="510"/>
      <point x="310" y="510" type="curve" smooth="yes"/>
      <point x="435" y="510"/>
      <point x="520" y="425"/>
      <point x="520" y="250" type="curve" smooth="yes"/>
      <point x="520" y="75"/>
      <point x="435" y="-10"/>
    </contour>
    <contour>
      <point x="295" y="85" type="curve" smooth="yes"/>
      <point x="340" y="85"/>
      <point x="380" y="125"/>
      <point x="380" y="250" type="curve" smooth="yes"/>
      <point x="380" y="380"/>
      <point x="340" y="420"/>
      <point x="285" y="420" type="curve" smooth="yes"/>
      <point x="262" y="420"/>
      <point x="244" y="412"/>
      <point x="231" y="405" type="curve" smooth="yes"/>
      <point x="210" y="390" type="line"/>
      <point x="210" y="145" type="line"/>
      <point x="217" y="134"/>
      <point x="224" y="124"/>
      <point x="232" y="115" type="curve" smooth="yes"/>
      <point x="247" y="100"/>
      <point x="267" y="85"/>
    </contour>
  </outline>
</glyph>
<glyph name="d" format="1">
  <advance width="560"/>
  <unicode hex="0064"/>
  <outline>
    <contour>
      <point x="240" y="-10" type="curve" smooth="yes"/>
      <point x="125" y="-10"/>
      <point x="40" y="75"/>
      <point x="40" y="250" type="curve" smooth="yes"/>
      <point x="40" y="425"/>
      <point x="125" y="510"/>
      <point x="250" y="510" type="curve" smooth="yes"/>
      <point x="281" y="510"/>
      <point x="303" y="502"/>
      <point x="322" y="495" type="curve" smooth="yes"/>
      <point x="350" y="480" type="line"/>
      <point x="350" y="660" type="line"/>
      <point x="390" y="700" type="line"/>
      <point x="490" y="700" type="line"/>
      <point x="490" y="0" type="line"/>
      <point x="390" y="0" type="line"/>
      <point x="380" y="60" type="line"/>
      <point x="375" y="60" type="line"/>
      <point x="365" y="47"/>
      <point x="354" y="35"/>
      <point x="341" y="25" type="curve" smooth="yes"/>
      <point x="318" y="6"/>
      <point x="285" y="-10"/>
    </contour>
    <contour>
      <point x="265" y="85" type="curve" smooth="yes"/>
      <point x="292" y="85"/>
      <point x="313" y="100"/>
      <point x="328" y="115" type="curve" smooth="yes"/>
      <point x="336" y="124"/>
      <point x="343" y="134"/>
      <point x="350" y="145" type="curve"/>
      <point x="350" y="390" type="line"/>
      <point x="329" y="405" type="line" smooth="yes"/>
      <point x="316" y="412"/>
      <point x="298" y="420"/>
      <point x="275" y="420" type="curve" smooth="yes"/>
      <point x="220" y="420"/>
      <point x="180" y="380"/>
      <point x="180" y="250" type="curve" smooth="yes"/>
      <point x="180" y="125"/>
      <point x="220" y="85"/>
    </contour>
  </outline>
</glyph>
<glyph name="e" format="1">
  <advance width="520"/>
  <unicode hex="0065"/>
  <outline>
    <contour>
      <point x="290" y="-10" type="curve" smooth="yes"/>
      <point x="123" y="-10"/>
      <point x="40" y="77"/>
      <point x="40" y="250" type="curve" smooth="yes"/>
      <point x="40" y="425"/>
      <point x="125" y="510"/>
      <point x="260" y="510" type="curve" smooth="yes"/>
      <point x="395" y="510"/>
      <point x="480" y="425"/>
      <point x="480" y="260" type="curve" smooth="yes"/>
      <point x="480" y="235" type="line"/>
      <point x="450" y="205" type="line"/>
      <point x="180" y="205" type="line"/>
      <point x="180" y="122"/>
      <point x="220" y="80"/>
      <point x="300" y="80" type="curve" smooth="yes"/>
      <point x="332" y="80"/>
      <point x="358" y="89"/>
      <point x="377" y="100" type="curve" smooth="yes"/>
      <point x="388" y="106"/>
      <point x="397" y="113"/>
      <point x="405" y="120" type="curve"/>
      <point x="415" y="120" type="line"/>
      <point x="460" y="40" type="line"/>
      <point x="445" y="31"/>
      <point x="429" y="22"/>
      <point x="412" y="15" type="curve" smooth="yes"/>
      <point x="381" y="2"/>
      <point x="341" y="-10"/>
    </contour>
    <contour>
      <point x="180" y="295" type="curve"/>
      <point x="340" y="295" type="line"/>
      <point x="340" y="380"/>
      <point x="300" y="420"/>
      <point x="260" y="420" type="curve" smooth="yes"/>
      <point x="220" y="420"/>
      <point x="180" y="380"/>
    </contour>
  </outline>
</glyph>
<glyph name="f" format="1">
  <advance width="365"/>
  <unicode hex="0066"/>
  <outline>
    <contour>
      <point x="75" y="0" type="line"/>
      <point x="75" y="410" type="line"/>
      <point x="20" y="410" type="line"/>
      <point x="20" y="500" type="line"/>
      <point x="75" y="500" type="line"/>
      <point x="75" y="540" type="line" smooth="yes"/>
      <point x="75" y="640"/>
      <point x="145" y="710"/>
      <point x="270" y="710" type="curve" smooth="yes"/>
      <point x="310" y="710"/>
      <point x="347" y="697"/>
      <point x="375" y="685" type="curve" smooth="yes"/>
      <point x="391" y="678"/>
      <point x="406" y="669"/>
      <point x="420" y="660" type="curve"/>
      <point x="375" y="580" type="line"/>
      <point x="365" y="580" type="line"/>
      <point x="357" y="587"/>
      <point x="348" y="594"/>
      <point x="339" y="600" type="curve" smooth="yes"/>
      <point x="323" y="611"/>
      <point x="303" y="620"/>
      <point x="280" y="620" type="curve" smooth="yes"/>
      <point x="245" y="620"/>
      <point x="215" y="591"/>
      <point x="215" y="540" type="curve" smooth="yes"/>
      <point x="215" y="500" type="line"/>
      <point x="340" y="500" type="line"/>
      <point x="340" y="410" type="line"/>
      <point x="215" y="410" type="line"/>
      <point x="215" y="0" type="line"/>
    </contour>
  </outline>
</glyph>
<glyph name="l" format="1">
  <advance width="280"/>
  <unicode hex="006C"/>
  <outline>
    <contour>
      <point x="70" y="0" type="line"/>
      <point x="70" y="660" type="line"/>
      <point x="110" y="700" type="line"/>
      <point x="210" y="700" type="line"/>
      <point x="210" y="0" type="line"/>
    </contour>
  </outline>
</glyph>
<glyph name="m" format="1">
  <advance width="835"/>
  <unicode hex="006D"/>
  <outline>
    <contour>
      <point x="70" y="0" type="line"/>
      <point x="70" y="500" type="line"/>
      <point x="170" y="500" type="line"/>
      <point x="180" y="440" type="line"/>
      <point x="185" y="440" type="line"/>
      <point x="194" y="453"/>
      <point x="205" y="464"/>
      <point x="217" y="475" type="curve" smooth="yes"/>
      <point x="238" y="492"/>
      <point x="270" y="510"/>
      <point x="310" y="510" type="curve" smooth="yes"/>
      <point x="361" y="510"/>
      <point x="392" y="492"/>
      <point x="412" y="475" type="curve" smooth="yes"/>
      <point x="424" y="464"/>
      <point x="433" y="453"/>
      <point x="440" y="440" type="curve"/>
      <point x="451" y="453"/>
      <point x="464" y="464"/>
      <point x="479" y="475" type="curve" smooth="yes"/>
      <point x="506" y="492"/>
      <point x="542" y="510"/>
      <point x="590" y="510" type="curve" smooth="yes"/>
      <point x="701" y="510"/>
      <point x="770" y="441"/>
      <point x="770" y="320" type="curve" smooth="yes"/>
      <point x="770" y="0" type="line"/>
      <point x="630" y="0" type="line"/>
      <point x="630" y="320" type="line" smooth="yes"/>
      <point x="630" y="385"/>
      <point x="600" y="415"/>
      <point x="565" y="415" type="curve" smooth="yes"/>
      <point x="542" y="415"/>
      <point x="524" y="402"/>
      <point x="511" y="390" type="curve" smooth="yes"/>
      <point x="504" y="383"/>
      <point x="497" y="374"/>
      <point x="490" y="365" type="curve"/>
      <point x="490" y="0" type="line"/>
      <point x="350" y="0" type="line"/>
      <point x="350" y="320" type="line" smooth="yes"/>
      <point x="350" y="385"/>
      <point x="320" y="415"/>
      <point x="285" y="415" type="curve" smooth="yes"/>
      <point x="260" y="415"/>
      <point x="241" y="400"/>
      <point x="229" y="385" type="curve" smooth="yes"/>
      <point x="222" y="376"/>
      <point x="215" y="366"/>
      <point x="210" y="355" type="curve"/>
      <point x="210" y="0" type="line"/>
    </contour>
  </outline>
</glyph>
<glyph name="t" format="1">
  <advance width="415"/>
  <unicode hex="0074"/>
  <outline>
    <contour>
      <point x="265" y="-10" type="curve" smooth="yes"/>
      <point x="149" y="-10"/>
      <point x="80" y="60"/>
      <point x="80" y="160" type="curve" smooth="yes"/>
      <point x="80" y="410" type="line"/>
      <point x="15" y="410" type="line"/>
      <point x="15" y="470" type="line"/>
      <point x="165" y="620" type="line"/>
      <point x="220" y="620" type="line"/>
      <point x="220" y="500" type="line"/>
      <point x="335" y="500" type="line"/>
      <point x="335" y="410" type="line"/>
      <point x="220" y="410" type="line"/>
      <point x="220" y="160" type="line" smooth="yes"/>
      <point x="220" y="104"/>
      <point x="244" y="80"/>
      <point x="275" y="80" type="curve" smooth="yes"/>
      <point x="298" y="80"/>
      <point x="318" y="89"/>
      <point x="334" y="100" type="curve" smooth="yes"/>
      <point x="343" y="106"/>
      <point x="352" y="113"/>
      <point x="360" y="120" type="curve"/>
      <point x="370" y="120" type="line"/>
      <point x="415" y="40" type="line"/>
      <point x="401" y="31"/>
      <point x="386" y="22"/>
      <point x="370" y="15" type="curve" smooth="yes"/>
      <point x="342" y="2"/>
      <point x="305" y="-10"/>
    </contour>
  </outline>
</glyph>
<glyph name="v" format="1">
  <advance width="491"/>
  <unicode hex="0076"/>
  <outline>
    <contour>
      <point x="180" y="0" type="line"/>
      <point x="15" y="500" type="line"/>
      <point x="147" y="500" type="line"/>
      <point x="237" y="190" type="line" smooth="yes"/>
      <point x="240" y="179"/>
      <point x="242" y="166"/>
      <point x="243" y="155" type="curve" smooth="yes"/>
      <point x="245" y="135" type="line"/>
      <point x="249" y="135" type="line"/>
      <point x="251" y="155" type="line" smooth="yes"/>
      <point x="252" y="166"/>
      <point x="254" y="179"/>
      <point x="257" y="190" type="curve" smooth="yes"/>
      <point x="347" y="500" type="line"/>
      <point x="476" y="500" type="line"/>
      <point x="311" y="0" type="line"/>
    </contour>
  </outline>
</glyph>
<glyph name="x" format="1">
  <advance width="490"/>
  <unicode hex="0078"/>
  <outline>
    <contour>
      <point x="10" y="0" type="line"/>
      <point x="160" y="255" type="line"/>
      <point x="15" y="500" type="line"/>
      <point x="160" y="500" type="line"/>
      <point x="230" y="370" type="line" smooth="yes"/>
      <point x="235" y="359"/>
      <point x="238" y="349"/>
      <point x="241" y="342" type="curve" smooth="yes"/>
      <point x="242" y="337"/>
      <point x="243" y="333"/>
      <point x="243" y="330" type="curve" smooth="yes"/>
      <point x="247" y="330" type="line" smooth="yes"/>
      <point x="247" y="333"/>
      <point x="248" y="337"/>
      <point x="249" y="342" type="curve" smooth="yes"/>
      <point x="252" y="349"/>
      <point x="253" y="359"/>
      <point x="260" y="370" type="curve" smooth="yes"/>
      <point x="330" y="500" type="line"/>
      <point x="475" y="500" type="line"/>
      <point x="330" y="255" type="line"/>
      <point x="480" y="0" type="line"/>
      <point x="335" y="0" type="line"/>
      <point x="260" y="135" type="line" smooth="yes"/>
      <point x="253" y="146"/>
      <point x="252" y="154"/>
      <point x="249" y="162" type="curve" smooth="yes"/>
      <point x="248" y="166"/>
      <point x="247" y="170"/>
      <point x="247" y="175" type="curve"/>
      <point x="243" y="175" type="line"/>
      <point x="243" y="170"/>
      <point x="242" y="166"/>
      <point x="241" y="162" type="curve" smooth="yes"/>
      <point x="239" y="155"/>
      <point x="235" y="146"/>
      <point x="230" y="135" type="curve" smooth="yes"/>
      <point x="155" y="0" type="line"/>
    </contour>
  </outline>
</glyph>
<glyph name="z" format="1">
  <advance width="470"/>
  <unicode hex="007A"/>
  <outline>
    <contour>
      <point x="35" y="0" type="line"/>
      <point x="35" y="95" type="line"/>
      <point x="280" y="410" type="line"/>
      <point x="35" y="410" type="line"/>
      <point x="35" y="500" type="line"/>
      <point x="430" y="500" type="line"/>
      <point x="430" y="405" type="line"/>
      <point x="175" y="90" type="line"/>
      <point x="435" y="90" type="line"/>
      <point x="435" y="0" type="line"/>
    </contour>
  </outline>
</glyph>
<glyph name="braceleft" format="1">
  <advance width="335"/>
  <unicode hex="007B"/>
  <outline>
    <contour>
      <point x="290" y="-170" type="line" smooth="yes"/>
      <point x="155" y="-170"/>
      <point x="95" y="-111"/>
      <point x="95" y="-20" type="curve" smooth="yes"/>
      <point x="95" y="150" type="line" smooth="yes"/>
      <point x="95" y="215"/>
      <point x="76" y="235"/>
      <point x="20" y="235" type="curve"/>
      <point x="20" y="325" type="line"/>
      <point x="76" y="325"/>
      <point x="95" y="345"/>
      <point x="95" y="410" type="curve" smooth="yes"/>
      <point x="95" y="580" type="line" smooth="yes"/>
      <point x="95" y="670"/>
      <point x="155" y="730"/>
      <point x="290" y="730" type="curve" smooth="yes"/>
      <point x="325" y="730" type="line"/>
      <point x="325" y="640" type="line"/>
      <point x="290" y="640" type="line" smooth="yes"/>
      <point x="259" y="640"/>
      <point x="235" y="615"/>
      <point x="235" y="580" type="curve" smooth="yes"/>
      <point x="235" y="410" type="line" smooth="yes"/>
      <point x="235" y="350"/>
      <point x="213" y="317"/>
      <point x="190" y="300" type="curve" smooth="yes"/>
      <point x="177" y="289"/>
      <point x="162" y="283"/>
      <point x="145" y="280" type="curve"/>
      <point x="162" y="277"/>
      <point x="177" y="270"/>
      <point x="190" y="260" type="curve" smooth="yes"/>
      <point x="213" y="241"/>
      <point x="235" y="210"/>
      <point x="235" y="150" type="curve" smooth="yes"/>
      <point x="235" y="-20" type="line" smooth="yes"/>
      <point x="235" y="-55"/>
      <point x="259" y="-80"/>
      <point x="290" y="-80" type="curve" smooth="yes"/>
      <point x="325" y="-80" type="line"/>
      <point x="325" y="-170" type="line"/>
    </contour>
  </outline>
</glyph>
<glyph name="braceright" format="1">
  <advance width="335"/>
  <unicode hex="007D"/>
  <outline>
    <contour>
      <point x="10" y="-170" type="line"/>
      <point x="10" y="-80" type="line"/>
      <point x="45" y="-80" type="line" smooth="yes"/>
      <point x="76" y="-80"/>
      <point x="100" y="-55"/>
      <point x="100" y="-20" type="curve" smooth="yes"/>
      <point x="100" y="150" type="line" smooth="yes"/>
      <point x="100" y="210"/>
      <point x="122" y="241"/>
      <point x="145" y="260" type="curve" smooth="yes"/>
      <point x="158" y="270"/>
      <point x="173" y="277"/>
      <point x="190" y="280" type="curve"/>
      <point x="173" y="283"/>
      <point x="158" y="289"/>
      <point x="145" y="300" type="curve" smooth="yes"/>
      <point x="122" y="317"/>
      <point x="100" y="350"/>
      <point x="100" y="410" type="curve" smooth="yes"/>
      <point x="100" y="580" type="line" smooth="yes"/>
      <point x="100" y="615"/>
      <point x="76" y="640"/>
      <point x="45" y="640" type="curve" smooth="yes"/>
      <point x="10" y="640" type="line"/>
      <point x="10" y="730" type="line"/>
      <point x="45" y="730" type="line" smooth="yes"/>
      <point x="180" y="730"/>
      <point x="240" y="670"/>
      <point x="240" y="580" type="curve" smooth="yes"/>
      <point x="240" y="410" type="line" smooth="yes"/>
      <point x="240" y="345"/>
      <point x="259" y="325"/>
      <point x="315" y="325" type="curve"/>
      <point x="315" y="235" type="line"/>
      <point x="259" y="235"/>
      <point x="240" y="215"/>
      <point x="240" y="150" type="curve" smooth="yes"/>
      <point x="240" y="-20" type="line" smooth="yes"/>
      <point x="240" y="-111"/>
      <point x="180" y="-170"/>
      <point x="45" y="-170" type="curve" smooth="yes"/>
    </contour>
  </outline>
</glyph>
<glyph name="asciitilde" format="1">
  <advance width="498"/>
  <unicode hex="007E"/>
  <outline>
    <contour>
      <point x="344" y="225" type="curve" smooth="yes"/>
      <point x="253" y="225"/>
      <point x="230" y="295"/>
      <point x="174" y="295" type="curve" smooth="yes"/>
      <point x="133" y="295"/>
      <point x="105" y="235"/>
      <point x="105" y="235" type="curve"/>
      <point x="96" y="235" type="line"/>
      <point x="20" y="300" type="line"/>
      <point x="39" y="356"/>
      <point x="95" y="415"/>
      <point x="154" y="415" type="curve" smooth="yes"/>
      <point x="245" y="415"/>
      <point x="268" y="345"/>
      <point x="324" y="345" type="curve" smooth="yes"/>
      <point x="365" y="345"/>
      <point x="393" y="405"/>
      <point x="393" y="405" type="curve"/>
      <point x="402" y="405" type="line"/>
      <point x="478" y="340" type="line"/>
      <point x="457" y="284"/>
      <point x="404" y="225"/>
    </contour>
  </outline>
</glyph>
<glyph name="exclamdown" format="1">
  <advance width="290"/>
  <unicode hex="00A1"/>
  <outline>
    <contour>
      <point x="145" y="360" type="curve" smooth="yes"/>
      <point x="105" y="360"/>
      <point x="70" y="395"/>
      <point x="70" y="435" type="curve" smooth="yes"/>
      <point x="70" y="475"/>
      <point x="105" y="510"/>
      <point x="145" y="510" type="curve" smooth="yes"/>
      <point x="185" y="510"/>
      <point x="220" y="475"/>
      <point x="220" y="435" type="curve" smooth="yes"/>
      <point x="220" y="395"/>
      <point x="185" y="360"/>
    </contour>
    <contour>
      <point x="65" y="-200" type="line"/>
      <point x="85" y="300" type="line"/>
      <point x="205" y="300" type="line"/>
      <point x="225" y="-200" type="line"/>
    </contour>
  </outline>
</glyph>
<glyph name="cent" format="1">
  <advance width="475"/>
  <unicode hex="00A2"/>
  <outline>
    <contour>
      <point x="205" y="-70" type="line"/>
      <point x="205" y="0" type="line"/>
      <point x="94" y="25"/>
      <point x="40" y="105"/>
      <point x="40" y="250" type="curve" smooth="yes"/>
      <point x="40" y="395"/>
      <point x="100" y="475"/>
      <point x="205" y="500" type="curve"/>
      <point x="205" y="560" type="line"/>
      <point x="335" y="560" type="line"/>
      <point x="335" y="505" type="line"/>
      <point x="367" y="497"/>
      <point x="395" y="486"/>
      <point x="414" y="477" type="curve" smooth="yes"/>
      <point x="425" y="472"/>
      <point x="436" y="466"/>
      <point x="445" y="460" type="curve"/>
      <point x="400" y="380" type="line"/>
      <point x="390" y="380" type="line"/>
      <point x="382" y="387"/>
      <point x="373" y="394"/>
      <point x="362" y="400" type="curve" smooth="yes"/>
      <point x="343" y="411"/>
      <point x="317" y="420"/>
      <point x="285" y="420" type="curve" smooth="yes"/>
      <point x="221" y="420"/>
      <point x="180" y="380"/>
      <point x="180" y="250" type="curve" smooth="yes"/>
      <point x="180" y="120"/>
      <point x="220" y="80"/>
      <point x="295" y="80" type="curve" smooth="yes"/>
      <point x="327" y="80"/>
      <point x="353" y="89"/>
      <point x="372" y="100" type="curve" smooth="yes"/>
      <point x="383" y="106"/>
      <point x="392" y="113"/>
      <point x="400" y="120" type="curve"/>
      <point x="410" y="120" type="line"/>
      <point x="455" y="40" type="line"/>
      <point x="444" y="33"/>
      <point x="433" y="27"/>
      <point x="421" y="21" type="curve" smooth="yes"/>
      <point x="400" y="10"/>
      <point x="370" y="-1"/>
      <point x="335" y="-6" type="curve"/>
      <point x="335" y="-70" type="line"/>
    </contour>
  </outline>
</glyph>
<glyph name="sterling" format="1">
  <advance width="505"/>
  <unicode hex="00A3"/>
  <outline>
    <contour>
      <point x="35" y="0" type="line"/>
      <point x="35" y="90" type="line"/>
      <point x="48" y="99"/>
      <point x="61" y="110"/>
      <point x="72" y="124" type="curve" smooth="yes"/>
      <point x="91" y="148"/>
      <point x="110" y="184"/>
      <point x="110" y="240" type="curve" smooth="yes"/>
      <point x="110" y="320" type="line"/>
      <point x="55" y="320" type="line"/>
      <point x="55" y="410" type="line"/>
      <point x="110" y="410" type="line"/>
      <point x="110" y="540" type="line" smooth="yes"/>
      <point x="110" y="636"/>
      <point x="185" y="710"/>
      <point x="305" y="710" type="curve" smooth="yes"/>
      <point x="357" y="710"/>
      <point x="401" y="697"/>
      <point x="432" y="682" type="curve" smooth="yes"/>
      <point x="450" y="674"/>
      <point x="466" y="665"/>
      <point x="480" y="655" type="curve"/>
      <point x="435" y="575" type="line"/>
      <point x="425" y="575" type="line"/>
      <point x="416" y="583"/>
      <point x="405" y="590"/>
      <point x="394" y="597" type="curve" smooth="yes"/>
      <point x="375" y="608"/>
      <point x="347" y="620"/>
      <point x="315" y="620" type="curve" smooth="yes"/>
      <point x="275" y="620"/>
      <point x="250" y="591"/>
      <point x="250" y="540" type="curve" smooth="yes"/>
      <point x="250" y="410" type="line"/>
      <point x="375" y="410" type="line"/>
      <point x="375" y="320" type="line"/>
      <point x="250" y="320" type="line"/>
      <point x="250" y="240" type="line" smooth="yes"/>
      <point x="250" y="184"/>
      <point x="231" y="148"/>
      <point x="212" y="124" type="curve" smooth="yes"/>
      <point x="201" y="110"/>
      <point x="188" y="99"/>
      <point x="175" y="90" type="curve"/>
      <point x="495" y="90" type="line"/>
      <point x="495" y="0" type="line"/>
    </contour>
  </outline>
</glyph>
<glyph name="currency" format="1">
  <advance width="600"/>
  <unicode hex="00A4"/>
  <outline>
    <contour>
      <point x="90" y="0" type="line"/>
      <point x="90" y="155" type="line"/>
      <point x="20" y="155" type="line"/>
      <point x="20" y="230" type="line"/>
      <point x="90" y="230" type="line"/>
      <point x="90" y="275" type="line"/>
      <point x="20" y="275" type="line"/>
      <point x="20" y="350" type="line"/>
      <point x="90" y="350" type="line"/>
      <point x="90" y="700" type="line"/>
      <point x="290" y="700" type="line" smooth="yes"/>
      <point x="470" y="700"/>
      <point x="560" y="611"/>
      <point x="560" y="480" type="curve" smooth="yes"/>
      <point x="560" y="355"/>
      <point x="479" y="275"/>
      <point x="290" y="275" type="curve" smooth="yes"/>
      <point x="230" y="275" type="line"/>
      <point x="230" y="230" type="line"/>
      <point x="470" y="230" type="line"/>
      <point x="470" y="155" type="line"/>
      <point x="230" y="155" type="line"/>
      <point x="230" y="0" type="line"/>
    </contour>
    <contour>
      <point x="230" y="350" type="line"/>
      <point x="290" y="350" type="line" smooth="yes"/>
      <point x="377" y="350"/>
      <point x="420" y="393"/>
      <point x="420" y="480" type="curve" smooth="yes"/>
      <point x="420" y="567"/>
      <point x="377" y="610"/>
      <point x="290" y="610" type="curve" smooth="yes"/>
      <point x="230" y="610" type="line"/>
    </contour>
  </outline>
</glyph>
<glyph name="yen" format="1">
  <advance width="570"/>
  <unicode hex="00A5"/>
  <outline>
    <contour>
      <point x="215" y="0" type="line"/>
      <point x="215" y="170" type="line"/>
      <point x="75" y="170" type="line"/>
      <point x="75" y="255" type="line"/>
      <point x="200" y="255" type="line"/>
      <point x="180" y="300" type="line"/>
      <point x="75" y="300" type="line"/>
      <point x="75" y="385" type="line"/>
      <point x="145" y="385" type="line"/>
      <point x="0" y="700" type="line"/>
      <point x="145" y="700" type="line"/>
      <point x="270" y="405" type="line"/>
      <point x="280" y="375" type="line"/>
      <point x="283" y="360" type="line"/>
      <point x="287" y="360" type="line"/>
      <point x="290" y="375" type="line" smooth="yes"/>
      <point x="293" y="384"/>
      <point x="295" y="394"/>
      <point x="300" y="405" type="curve" smooth="yes"/>
      <point x="425" y="700" type="line"/>
      <point x="570" y="700" type="line"/>
      <point x="425" y="385" type="line"/>
      <point x="495" y="385" type="line"/>
      <point x="495" y="300" type="line"/>
      <point x="390" y="300" type="line"/>
      <point x="370" y="255" type="line"/>
      <point x="495" y="255" type="line"/>
      <point x="495" y="170" type="line"/>
      <point x="355" y="170" type="line"/>
      <point x="355" y="0" type="line"/>
    </contour>
  </outline>
</glyph>
<glyph name="brokenbar" format="1">
  <advance width="310"/>
  <unicode hex="00A6"/>
  <outline>
    <contour>
      <point x="85" y="310" type="line"/>
      <point x="85" y="700" type="line"/>
      <point x="225" y="700" type="line"/>
      <point x="225" y="310" type="line"/>
    </contour>
    <contour>
      <point x="85" y="-200" type="line"/>
      <point x="85" y="190" type="line"/>
      <point x="225" y="190" type="line"/>
      <point x="225" y="-200" type="line"/>
    </contour>
  </outline>
</glyph>
<glyph name="section" format="1">
  <advance width="540"/>
  <unicode hex="00A7"/>
  <outline>
    <contour>
      <point x="250" y="-210" type="curve" smooth="yes"/>
      <point x="194" y="-210"/>
      <point x="149" y="-197"/>
      <point x="114" y="-182" type="curve" smooth="yes"/>
      <point x="94" y="-174"/>
      <point x="76" y="-165"/>
      <point x="60" y="-154" type="curve"/>
      <point x="105" y="-74" type="line"/>
      <point x="115" y="-74" type="line"/>
      <point x="125" y="-83"/>
      <point x="136" y="-90"/>
      <point x="149" y="-97" type="curve" smooth="yes"/>
      <point x="172" y="-109"/>
      <point x="201" y="-120"/>
      <point x="240" y="-120" type="curve" smooth="yes"/>
      <point x="316" y="-120"/>
      <point x="350" y="-85"/>
      <point x="350" y="-40" type="curve" smooth="yes"/>
      <point x="350" y="80"/>
      <point x="40" y="49"/>
      <point x="40" y="260" type="curve" smooth="yes"/>
      <point x="40" y="316"/>
      <point x="61" y="351"/>
      <point x="82" y="374" type="curve" smooth="yes"/>
      <point x="94" y="387"/>
      <point x="108" y="397"/>
      <point x="125" y="405" type="curve"/>
      <point x="111" y="412"/>
      <point x="98" y="422"/>
      <point x="87" y="434" type="curve" smooth="yes"/>
      <point x="68" y="454"/>
      <point x="50" y="485"/>
      <point x="50" y="530" type="curve" smooth="yes"/>
      <point x="50" y="634"/>
      <point x="125" y="710"/>
      <point x="270" y="710" type="curve" smooth="yes"/>
      <point x="327" y="710"/>
      <point x="376" y="697"/>
      <point x="411" y="682" type="curve" smooth="yes"/>
      <point x="431" y="674"/>
      <point x="449" y="665"/>
      <point x="465" y="655" type="curve"/>
      <point x="420" y="575" type="line"/>
      <point x="410" y="575" type="line"/>
      <point x="399" y="583"/>
      <point x="388" y="590"/>
      <point x="375" y="597" type="curve" smooth="yes"/>
      <point x="352" y="608"/>
      <point x="320" y="620"/>
      <point x="280" y="620" type="curve" smooth="yes"/>
      <point x="224" y="620"/>
      <point x="190" y="585"/>
      <point x="190" y="540" type="curve" smooth="yes"/>
      <point x="190" y="420"/>
      <point x="500" y="450"/>
      <point x="500" y="240" type="curve" smooth="yes"/>
      <point x="500" y="184"/>
      <point x="478" y="149"/>
      <point x="457" y="126" type="curve" smooth="yes"/>
      <point x="445" y="113"/>
      <point x="431" y="102"/>
      <point x="415" y="95" type="curve"/>
      <point x="428" y="88"/>
      <point x="441" y="78"/>
      <point x="452" y="66" type="curve" smooth="yes"/>
      <point x="471" y="46"/>
      <point x="490" y="15"/>
      <point x="490" y="-30" type="curve" smooth="yes"/>
      <point x="490" y="-134"/>
      <point x="414" y="-210"/>
    </contour>
    <contour>
      <point x="310" y="155" type="curve"/>
      <point x="320" y="158"/>
      <point x="329" y="162"/>
      <point x="337" y="169" type="curve" smooth="yes"/>
      <point x="352" y="180"/>
      <point x="365" y="200"/>
      <point x="365" y="235" type="curve" smooth="yes"/>
      <point x="365" y="275"/>
      <point x="332" y="303"/>
      <point x="297" y="322" type="curve" smooth="yes"/>
      <point x="277" y="333"/>
      <point x="255" y="343"/>
      <point x="230" y="350" type="curve"/>
      <point x="219" y="347"/>
      <point x="210" y="343"/>
      <point x="202" y="336" type="curve" smooth="yes"/>
      <point x="187" y="325"/>
      <point x="175" y="305"/>
      <point x="175" y="270" type="curve" smooth="yes"/>
      <point x="175" y="230"/>
      <point x="207" y="201"/>
      <point x="242" y="182" type="curve" smooth="yes"/>
      <point x="262" y="171"/>
      <point x="285" y="162"/>
    </contour>
  </outline>
</glyph>
<glyph name="dieresis" format="1">
  <advance width="355"/>
  <unicode hex="00A8"/>
  <outline>
    <contour>
      <point x="80" y="570" type="curve" smooth="yes"/>
      <point x="43" y="570"/>
      <point x="10" y="603"/>
      <point x="10" y="640" type="curve" smooth="yes"/>
      <point x="10" y="677"/>
      <point x="43" y="710"/>
      <point x="80" y="710" type="curve" smooth="yes"/>
      <point x="117" y="710"/>
      <point x="150" y="677"/>
      <point x="150" y="640" type="curve" smooth="yes"/>
      <point x="150" y="603"/>
      <point x="117" y="570"/>
    </contour>
    <contour>
      <point x="275" y="570" type="curve" smooth="yes"/>
      <point x="238" y="570"/>
      <point x="205" y="603"/>
      <point x="205" y="640" type="curve" smooth="yes"/>
      <point x="205" y="677"/>
      <point x="238" y="710"/>
      <point x="275" y="710" type="curve" smooth="yes"/>
      <point x="312" y="710"/>
      <point x="345" y="677"/>
      <point x="345" y="640" type="curve" smooth="yes"/>
      <point x="345" y="603"/>
      <point x="312" y="570"/>
    </contour>
  </outline>
</glyph>
<glyph name="copyright" format="1">
  <advance width="910"/>
  <unicode hex="00A9"/>
  <outline>
    <contour>
      <point x="455" y="-40" type="curve" smooth="yes"/>
      <point x="215" y="-40"/>
      <point x="40" y="134"/>
      <point x="40" y="350" type="curve" smooth="yes"/>
      <point x="40" y="566"/>
      <point x="215" y="740"/>
      <point x="455" y="740" type="curve" smooth="yes"/>
      <point x="695" y="740"/>
      <point x="870" y="566"/>
      <point x="870" y="350" type="curve" smooth="yes"/>
      <point x="870" y="134"/>
      <point x="695" y="-40"/>
    </contour>
    <contour>
      <point x="455" y="50" type="curve" smooth="yes"/>
      <point x="626" y="50"/>
      <point x="750" y="175"/>
      <point x="750" y="350" type="curve" smooth="yes"/>
      <point x="750" y="525"/>
      <point x="626" y="650"/>
      <point x="455" y="650" type="curve" smooth="yes"/>
      <point x="284" y="650"/>
      <point x="160" y="525"/>
      <point x="160" y="350" type="curve" smooth="yes"/>
      <point x="160" y="175"/>
      <point x="284" y="50"/>
    </contour>
    <contour>
      <point x="475" y="125" type="curve" smooth="yes"/>
      <point x="350" y="125"/>
      <point x="265" y="210"/>
      <point x="265" y="350" type="curve" smooth="yes"/>
      <point x="265" y="490"/>
      <point x="350" y="575"/>
      <point x="465" y="575" type="curve" smooth="yes"/>
      <point x="508" y="575"/>
      <point x="546" y="562"/>
      <point x="573" y="550" type="curve" smooth="yes"/>
      <point x="589" y="543"/>
      <point x="603" y="534"/>
      <point x="615" y="525" type="curve"/>
      <point x="575" y="460" type="line"/>
      <point x="566" y="460" type="line"/>
      <point x="557" y="466"/>
      <point x="548" y="472"/>
      <point x="539" y="477" type="curve" smooth="yes"/>
      <point x="522" y="486"/>
      <point x="500" y="495"/>
      <point x="475" y="495" type="curve" smooth="yes"/>
      <point x="430" y="495"/>
      <point x="385" y="450"/>
      <point x="385" y="350" type="curve" smooth="yes"/>
      <point x="385" y="250"/>
      <point x="429" y="205"/>
      <point x="485" y="205" type="curve" smooth="yes"/>
      <point x="510" y="205"/>
      <point x="532" y="213"/>
      <point x="549" y="222" type="curve" smooth="yes"/>
      <point x="558" y="227"/>
      <point x="567" y="233"/>
      <point x="576" y="240" type="curve"/>
      <point x="585" y="240" type="line"/>
      <point x="625" y="175" type="line"/>
      <point x="613" y="166"/>
      <point x="599" y="157"/>
      <point x="583" y="150" type="curve" smooth="yes"/>
      <point x="556" y="137"/>
      <point x="518" y="125"/>
    </contour>
  </outline>
</glyph>
<glyph name="ordfeminine" format="1">
  <advance width="380"/>
  <unicode hex="00AA"/>
  <outline>
    <contour>
      <point x="145" y="350" type="curve" smooth="yes"/>
      <point x="69" y="350"/>
      <point x="25" y="395"/>
      <point x="25" y="455" type="curve" smooth="yes"/>
      <point x="25" y="520"/>
      <point x="70" y="565"/>
      <point x="185" y="565" type="curve" smooth="yes"/>
      <point x="225" y="565" type="line"/>
      <point x="225" y="580" type="line" smooth="yes"/>
      <point x="225" y="617"/>
      <point x="205" y="635"/>
      <point x="165" y="635" type="curve" smooth="yes"/>
      <point x="146" y="635"/>
      <point x="129" y="627"/>
      <point x="116" y="620" type="curve" smooth="yes"/>
      <point x="94" y="605" type="line"/>
      <point x="84" y="605" type="line"/>
      <point x="48" y="665" type="line"/>
      <point x="59" y="673"/>
      <point x="72" y="680"/>
      <point x="86" y="687" type="curve" smooth="yes"/>
      <point x="110" y="698"/>
      <point x="145" y="710"/>
      <point x="185" y="710" type="curve" smooth="yes"/>
      <point x="296" y="710"/>
      <point x="345" y="660"/>
      <point x="345" y="580" type="curve" smooth="yes"/>
      <point x="345" y="360" type="line"/>
      <point x="251" y="360" type="line"/>
      <point x="245" y="395" type="line"/>
      <point x="240" y="395" type="line"/>
      <point x="234" y="386"/>
      <point x="226" y="379"/>
      <point x="217" y="372" type="curve" smooth="yes"/>
      <point x="201" y="361"/>
      <point x="177" y="350"/>
    </contour>
    <contour>
      <point x="180" y="430" type="curve" smooth="yes"/>
      <point x="192" y="430"/>
      <point x="204" y="435"/>
      <point x="212" y="442" type="curve" smooth="yes"/>
      <point x="217" y="445"/>
      <point x="221" y="450"/>
      <point x="225" y="455" type="curve"/>
      <point x="225" y="490" type="line"/>
      <point x="185" y="490" type="line" smooth="yes"/>
      <point x="155" y="490"/>
      <point x="140" y="480"/>
      <point x="140" y="460" type="curve" smooth="yes"/>
      <point x="140" y="440"/>
      <point x="153" y="430"/>
    </contour>
  </outline>
</glyph>
<glyph name="guillemotleft" format="1">
  <advance width="520"/>
  <unicode hex="00AB"/>
  <outline>
    <contour>
      <point x="235" y="-5" type="line"/>
      <point x="10" y="250" type="line"/>
      <point x="235" y="505" type="line"/>
      <point x="316" y="430" type="line"/>
      <point x="160" y="250" type="line"/>
      <point x="316" y="70" type="line"/>
    </contour>
    <contour>
      <point x="420" y="40" type="line"/>
      <point x="235" y="250" type="line"/>
      <point x="420" y="460" type="line"/>
      <point x="500" y="385" type="line"/>
      <point x="385" y="250" type="line"/>
      <point x="500" y="115" type="line"/>
    </contour>
  </outline>
</glyph>
<glyph name="logicalnot" format="1">
  <advance width="500"/>
  <unicode hex="00AC"/>
  <outline>
    <contour>
      <point x="355" y="230" type="line"/>
      <point x="355" y="320" type="line"/>
      <point x="35" y="320" type="line"/>
      <point x="35" y="420" type="line"/>
      <point x="465" y="420" type="line"/>
      <point x="465" y="230" type="line"/>
    </contour>
  </outline>
</glyph>
<glyph name="uni00AD" format="1">
  <advance width="460"/>
  <unicode hex="00AD"/>
  <outline>
    <contour>
      <point x="35" y="280" type="line"/>
      <point x="35" y="380" type="line"/>
      <point x="425" y="380" type="line"/>
      <point x="425" y="280" type="line"/>
    </contour>
  </outline>
</glyph>
<glyph name="registered" format="1">
  <advance width="910"/>
  <unicode hex="00AE"/>
  <outline>
    <contour>
      <point x="455" y="-40" type="curve" smooth="yes"/>
      <point x="215" y="-40"/>
      <point x="40" y="134"/>
      <point x="40" y="350" type="curve" smooth="yes"/>
      <point x="40" y="566"/>
      <point x="215" y="740"/>
      <point x="455" y="740" type="curve" smooth="yes"/>
      <point x="695" y="740"/>
      <point x="870" y="566"/>
      <point x="870" y="350" type="curve" smooth="yes"/>
      <point x="870" y="134"/>
      <point x="695" y="-40"/>
    </contour>
    <contour>
      <point x="455" y="50" type="curve" smooth="yes"/>
      <point x="626" y="50"/>
      <point x="750" y="175"/>
      <point x="750" y="350" type="curve" smooth="yes"/>
      <point x="750" y="525"/>
      <point x="626" y="650"/>
      <point x="455" y="650" type="curve" smooth="yes"/>
      <point x="284" y="650"/>
      <point x="160" y="525"/>
      <point x="160" y="350" type="curve" smooth="yes"/>
      <point x="160" y="175"/>
      <point x="284" y="50"/>
    </contour>
    <contour>
      <point x="290" y="135" type="line"/>
      <point x="290" y="565" type="line"/>
      <point x="450" y="565" type="line" smooth="yes"/>
      <point x="581" y="565"/>
      <point x="640" y="505"/>
      <point x="640" y="420" type="curve" smooth="yes"/>
      <point x="640" y="349"/>
      <point x="600" y="310"/>
      <point x="560" y="295" type="curve"/>
      <point x="655" y="135" type="line"/>
      <point x="525" y="135" type="line"/>
      <point x="449" y="275" type="line"/>
      <point x="410" y="275" type="line"/>
      <point x="410" y="135" type="line"/>
    </contour>
    <contour>
      <point x="410" y="355" type="line"/>
      <point x="450" y="355" type="line" smooth="yes"/>
      <point x="501" y="355"/>
      <point x="522" y="380"/>
      <point x="522" y="420" type="curve" smooth="yes"/>
      <point x="522" y="460"/>
      <point x="501" y="485"/>
      <point x="450" y="485" type="curve" smooth="yes"/>
      <point x="410" y="485" type="line"/>
    </contour>
  </outline>
</glyph>
<glyph name="macron" format="1">
  <advance width="310"/>
  <unicode hex="00AF"/>
  <outline>
    <contour>
      <point x="10" y="570" type="line"/>
      <point x="10" y="660" type="line"/>
      <point x="300" y="660" type="line"/>
      <point x="300" y="570" type="line"/>
    </contour>
  </outline>
</glyph>
<glyph name="degree" format="1">
  <advance width="440"/>
  <unicode hex="00B0"/>
  <outline>
    <contour>
      <point x="220" y="370" type="curve" smooth="yes"/>
      <point x="104" y="370"/>
      <point x="35" y="440"/>
      <point x="35" y="540" type="curve" smooth="yes"/>
      <point x="35" y="640"/>
      <point x="104" y="710"/>
      <point x="220" y="710" type="curve" smooth="yes"/>
      <point x="336" y="710"/>
      <point x="405" y="640"/>
      <point x="405" y="540" type="curve" smooth="yes"/>
      <point x="405" y="440"/>
      <point x="336" y="370"/>
    </contour>
    <contour>
      <point x="220" y="450" type="curve" smooth="yes"/>
      <point x="260" y="450"/>
      <point x="290" y="480"/>
      <point x="290" y="540" type="curve" smooth="yes"/>
      <point x="290" y="600"/>
      <point x="260" y="630"/>
      <point x="220" y="630" type="curve" smooth="yes"/>
      <point x="180" y="630"/>
      <point x="150" y="600"/>
      <point x="150" y="540" type="curve" smooth="yes"/>
      <point x="150" y="480"/>
      <point x="180" y="450"/>
    </contour>
  </outline>
</glyph>
<glyph name="plusminus" format="1">
  <advance width="500"/>
  <unicode hex="00B1"/>
  <outline>
    <contour>
      <point x="35" y="75" type="line"/>
      <point x="35" y="175" type="line"/>
      <point x="200" y="175" type="line"/>
      <point x="200" y="300" type="line"/>
      <point x="35" y="300" type="line"/>
      <point x="35" y="400" type="line"/>
      <point x="200" y="400" type="line"/>
      <point x="200" y="565" type="line"/>
      <point x="300" y="565" type="line"/>
      <point x="300" y="400" type="line"/>
      <point x="465" y="400" type="line"/>
      <point x="465" y="300" type="line"/>
      <point x="300" y="300" type="line"/>
      <point x="300" y="175" type="line"/>
      <point x="465" y="175" type="line"/>
      <point x="465" y="75" type="line"/>
    </contour>
  </outline>
</glyph>
<glyph name="uni00B2" format="1">
  <advance width="355"/>
  <unicode hex="00B2"/>
  <outline>
    <contour>
      <point x="35" y="360" type="line"/>
      <point x="35" y="420" type="line" smooth="yes"/>
      <point x="35" y="546"/>
      <point x="200" y="544"/>
      <point x="200" y="595" type="curve" smooth="yes"/>
      <point x="200" y="615"/>
      <point x="186" y="630"/>
      <point x="155" y="630" type="curve" smooth="yes"/>
      <point x="136" y="630"/>
      <point x="119" y="622"/>
      <point x="106" y="615" type="curve" smooth="yes"/>
      <point x="84" y="600" type="line"/>
      <point x="74" y="600" type="line"/>
      <point x="38" y="665" type="line"/>
      <point x="49" y="673"/>
      <point x="62" y="680"/>
      <point x="76" y="687" type="curve" smooth="yes"/>
      <point x="100" y="698"/>
      <point x="135" y="710"/>
      <point x="175" y="710" type="curve" smooth="yes"/>
      <point x="271" y="710"/>
      <point x="320" y="660"/>
      <point x="320" y="595" type="curve" smooth="yes"/>
      <point x="320" y="490"/>
      <point x="155" y="491"/>
      <point x="155" y="440" type="curve"/>
      <point x="320" y="440" type="line"/>
      <point x="320" y="360" type="line"/>
    </contour>
  </outline>
</glyph>
<glyph name="uni00B3" format="1">
  <advance width="361"/>
  <unicode hex="00B3"/>
  <outline>
    <contour>
      <point x="172" y="350" type="curve" smooth="yes"/>
      <point x="132" y="350"/>
      <point x="97" y="361"/>
      <point x="73" y="372" type="curve" smooth="yes"/>
      <point x="59" y="379"/>
      <point x="46" y="386"/>
      <point x="35" y="395" type="curve"/>
      <point x="71" y="460" type="line"/>
      <point x="81" y="460" type="line"/>
      <point x="88" y="454"/>
      <point x="96" y="449"/>
      <point x="103" y="445" type="curve" smooth="yes"/>
      <point x="116" y="437"/>
      <point x="133" y="430"/>
      <point x="152" y="430" type="curve" smooth="yes"/>
      <point x="181" y="430"/>
      <point x="196" y="445"/>
      <point x="196" y="465" type="curve" smooth="yes"/>
      <point x="196" y="485"/>
      <point x="182" y="500"/>
      <point x="147" y="500" type="curve" smooth="yes"/>
      <point x="81" y="500" type="line"/>
      <point x="81" y="560" type="line"/>
      <point x="186" y="620" type="line"/>
      <point x="51" y="620" type="line"/>
      <point x="51" y="700" type="line"/>
      <point x="301" y="700" type="line"/>
      <point x="301" y="615" type="line"/>
      <point x="206" y="565" type="line"/>
      <point x="282" y="560"/>
      <point x="326" y="516"/>
      <point x="326" y="460" type="curve" smooth="yes"/>
      <point x="326" y="405"/>
      <point x="272" y="350"/>
    </contour>
  </outline>
</glyph>
<glyph name="uni00B5" format="1">
  <advance width="580"/>
  <unicode hex="00B5"/>
  <outline>
    <contour>
      <point x="70" y="-200" type="line"/>
      <point x="70" y="500" type="line"/>
      <point x="210" y="500" type="line"/>
      <point x="210" y="180" type="line" smooth="yes"/>
      <point x="210" y="115"/>
      <point x="240" y="85"/>
      <point x="285" y="85" type="curve" smooth="yes"/>
      <point x="312" y="85"/>
      <point x="333" y="100"/>
      <point x="348" y="115" type="curve" smooth="yes"/>
      <point x="356" y="124"/>
      <point x="363" y="134"/>
      <point x="370" y="145" type="curve"/>
      <point x="370" y="500" type="line"/>
      <point x="510" y="500" type="line"/>
      <point x="510" y="0" type="line"/>
      <point x="410" y="0" type="line"/>
      <point x="400" y="60" type="line"/>
      <point x="395" y="60" type="line"/>
      <point x="388" y="47"/>
      <point x="378" y="35"/>
      <point x="367" y="25" type="curve" smooth="yes"/>
      <point x="348" y="6"/>
      <point x="320" y="-10"/>
      <point x="280" y="-10" type="curve" smooth="yes"/>
      <point x="260" y="-10"/>
      <point x="242" y="-3"/>
      <point x="230" y="5" type="curve" smooth="yes"/>
      <point x="223" y="9"/>
      <point x="216" y="14"/>
      <point x="210" y="20" type="curve"/>
      <point x="210" y="-160" type="line"/>
      <point x="170" y="-200" type="line"/>
    </contour>
  </outline>
</glyph>
<glyph name="paragraph" format="1">
  <advance width="580"/>
  <unicode hex="00B6"/>
  <outline>
    <contour>
      <point x="220" y="-200" type="line"/>
      <point x="220" y="250" type="line"/>
      <point x="100" y="250"/>
      <point x="10" y="339"/>
      <point x="10" y="475" type="curve" smooth="yes"/>
      <point x="10" y="611"/>
      <point x="100" y="700"/>
      <point x="220" y="700" type="curve" smooth="yes"/>
      <point x="570" y="700" type="line"/>
      <point x="570" y="610" type="line"/>
      <point x="510" y="610" type="line"/>
      <point x="510" y="-200" type="line"/>
      <point x="390" y="-200" type="line"/>
      <point x="390" y="610" type="line"/>
      <point x="340" y="610" type="line"/>
      <point x="340" y="-200" type="line"/>
    </contour>
  </outline>
</glyph>
<glyph name="periodcentered" format="1">
  <advance width="300"/>
  <unicode hex="00B7"/>
  <outline>
    <contour>
      <point x="150" y="275" type="curve" smooth="yes"/>
      <point x="110" y="275"/>
      <point x="75" y="310"/>
      <point x="75" y="350" type="curve" smooth="yes"/>
      <point x="75" y="390"/>
      <point x="110" y="425"/>
      <point x="150" y="425" type="curve" smooth="yes"/>
      <point x="190" y="425"/>
      <point x="225" y="390"/>
      <point x="225" y="350" type="curve" smooth="yes"/>
      <point x="225" y="310"/>
      <point x="190" y="275"/>
    </contour>
  </outline>
</glyph>
<glyph name="cedilla" format="1">
  <advance width="215"/>
  <unicode hex="00B8"/>
  <outline>
    <contour>
      <point x="95" y="-195" type="curve" smooth="yes"/>
      <point x="70" y="-195"/>
      <point x="49" y="-190"/>
      <point x="34" y="-185" type="curve" smooth="yes"/>
      <point x="25" y="-182"/>
      <point x="17" y="-179"/>
      <point x="10" y="-175" type="curve"/>
      <point x="31" y="-125" type="line"/>
      <point x="40" y="-125" type="line" smooth="yes"/>
      <point x="39" y="-125"/>
      <point x="60" y="-140"/>
      <point x="85" y="-140" type="curve" smooth="yes"/>
      <point x="105" y="-140"/>
      <point x="120" y="-130"/>
      <point x="120" y="-110" type="curve" smooth="yes"/>
      <point x="120" y="-90"/>
      <point x="105" y="-80"/>
      <point x="85" y="-80" type="curve" smooth="yes"/>
      <point x="35" y="-80" type="line"/>
      <point x="35" y="20" type="line"/>
      <point x="110" y="20" type="line"/>
      <point x="110" y="-25" type="line"/>
      <point x="166" y="-25"/>
      <point x="205" y="-65"/>
      <point x="205" y="-110" type="curve" smooth="yes"/>
      <point x="205" y="-155"/>
      <point x="166" y="-195"/>
    </contour>
  </outline>
</glyph>
<glyph name="uni00B9" format="1">
  <advance width="315"/>
  <unicode hex="00B9"/>
  <outline>
    <contour>
      <point x="35" y="360" type="line"/>
      <point x="35" y="440" type="line"/>
      <point x="105" y="440" type="line"/>
      <point x="105" y="595" type="line"/>
      <point x="55" y="570" type="line"/>
      <point x="20" y="620" type="line"/>
      <point x="115" y="700" type="line"/>
      <point x="225" y="700" type="line"/>
      <point x="225" y="440" type="line"/>
      <point x="295" y="440" type="line"/>
      <point x="295" y="360" type="line"/>
    </contour>
  </outline>
</glyph>
<glyph name="ordmasculine" format="1">
  <advance width="420"/>
  <unicode hex="00BA"/>
  <outline>
    <contour>
      <point x="210" y="350" type="curve" smooth="yes"/>
      <point x="110" y="350"/>
      <point x="35" y="426"/>
      <point x="35" y="530" type="curve" smooth="yes"/>
      <point x="35" y="634"/>
      <point x="110" y="710"/>
      <point x="210" y="710" type="curve" smooth="yes"/>
      <point x="310" y="710"/>
      <point x="385" y="634"/>
      <point x="385" y="530" type="curve" smooth="yes"/>
      <point x="385" y="426"/>
      <point x="310" y="350"/>
    </contour>
    <contour>
      <point x="210" y="430" type="curve" smooth="yes"/>
      <point x="239" y="430"/>
      <point x="265" y="455"/>
      <point x="265" y="530" type="curve" smooth="yes"/>
      <point x="265" y="605"/>
      <point x="239" y="630"/>
      <point x="210" y="630" type="curve" smooth="yes"/>
      <point x="179" y="630"/>
      <point x="155" y="605"/>
      <point x="155" y="530" type="curve" smooth="yes"/>
      <point x="155" y="455"/>
      <point x="179" y="430"/>
    </contour>
  </outline>
</glyph>
<glyph name="guillemotright" format="1">
  <advance width="520"/>
  <unicode hex="00BB"/>
  <outline>
    <contour>
      <point x="285" y="-5" type="line"/>
      <point x="204" y="70" type="line"/>
      <point x="360" y="250" type="line"/>
      <point x="204" y="430" type="line"/>
      <point x="285" y="505" type="line"/>
      <point x="510" y="250" type="line"/>
    </contour>
    <contour>
      <point x="100" y="40" type="line"/>
      <point x="20" y="115" type="line"/>
      <point x="135" y="250" type="line"/>
      <point x="20" y="385" type="line"/>
      <point x="100" y="460" type="line"/>
      <point x="285" y="250" type="line"/>
    </contour>
  </outline>
</glyph>
<glyph name="onequarter" format="1">
  <advance width="790"/>
  <unicode hex="00BC"/>
  <outline>
    <contour>
      <point x="40" y="360" type="line"/>
      <point x="40" y="440" type="line"/>
      <point x="110" y="440" type="line"/>
      <point x="110" y="595" type="line"/>
      <point x="60" y="570" type="line"/>
      <point x="25" y="620" type="line"/>
      <point x="130" y="700" type="line"/>
      <point x="230" y="700" type="line"/>
      <point x="230" y="440" type="line"/>
      <point x="300" y="440" type="line"/>
      <point x="300" y="360" type="line"/>
    </contour>
    <contour>
      <point x="105" y="0" type="line"/>
      <point x="575" y="700" type="line"/>
      <point x="725" y="700" type="line"/>
      <point x="255" y="0" type="line"/>
    </contour>
    <contour>
      <point x="590" y="0" type="line"/>
      <point x="590" y="60" type="line"/>
      <point x="425" y="60" type="line"/>
      <point x="425" y="140" type="line"/>
      <point x="595" y="340" type="line"/>
      <point x="710" y="340" type="line"/>
      <point x="710" y="140" type="line"/>
      <point x="755" y="140" type="line"/>
      <point x="755" y="60" type="line"/>
      <point x="710" y="60" type="line"/>
      <point x="710" y="0" type="line"/>
    </contour>
    <contour>
      <point x="520" y="140" type="line"/>
      <point x="590" y="140" type="line"/>
      <point x="590" y="205" type="line" smooth="yes"/>
      <point x="590" y="210"/>
      <point x="591" y="217"/>
      <point x="592" y="224" type="curve" smooth="yes"/>
      <point x="595" y="235" type="line"/>
      <point x="591" y="235" type="line"/>
      <point x="590" y="231"/>
      <point x="589" y="227"/>
      <point x="587" y="224" type="curve" smooth="yes"/>
      <point x="584" y="217"/>
      <point x="580" y="209"/>
      <point x="575" y="204" type="curve" smooth="yes"/>
    </contour>
  </outline>
</glyph>
<glyph name="onehalf" format="1">
  <advance width="805"/>
  <unicode hex="00BD"/>
  <outline>
    <contour>
      <point x="40" y="360" type="line"/>
      <point x="40" y="440" type="line"/>
      <point x="110" y="440" type="line"/>
      <point x="110" y="595" type="line"/>
      <point x="60" y="570" type="line"/>
      <point x="25" y="620" type="line"/>
      <point x="130" y="700" type="line"/>
      <point x="230" y="700" type="line"/>
      <point x="230" y="440" type="line"/>
      <point x="300" y="440" type="line"/>
      <point x="300" y="360" type="line"/>
    </contour>
    <contour>
      <point x="105" y="0" type="line"/>
      <point x="575" y="700" type="line"/>
      <point x="725" y="700" type="line"/>
      <point x="255" y="0" type="line"/>
    </contour>
    <contour>
      <point x="475" y="0" type="line"/>
      <point x="475" y="60" type="line" smooth="yes"/>
      <point x="475" y="186"/>
      <point x="640" y="184"/>
      <point x="640" y="235" type="curve" smooth="yes"/>
      <point x="640" y="255"/>
      <point x="626" y="270"/>
      <point x="595" y="270" type="curve" smooth="yes"/>
      <point x="576" y="270"/>
      <point x="559" y="262"/>
      <point x="546" y="255" type="curve" smooth="yes"/>
      <point x="524" y="240" type="line"/>
      <point x="514" y="240" type="line"/>
      <point x="478" y="305" type="line"/>
      <point x="489" y="313"/>
      <point x="502" y="320"/>
      <point x="516" y="327" type="curve" smooth="yes"/>
      <point x="540" y="338"/>
      <point x="575" y="350"/>
      <point x="615" y="350" type="curve" smooth="yes"/>
      <point x="711" y="350"/>
      <point x="760" y="300"/>
      <point x="760" y="235" type="curve" smooth="yes"/>
      <point x="760" y="130"/>
      <point x="595" y="131"/>
      <point x="595" y="80" type="curve"/>
      <point x="760" y="80" type="line"/>
      <point x="760" y="0" type="line"/>
    </contour>
  </outline>
</glyph>
<glyph name="threequarters" format="1">
  <advance width="776"/>
  <unicode hex="00BE"/>
  <outline>
    <contour>
      <point x="162" y="350" type="curve" smooth="yes"/>
      <point x="122" y="350"/>
      <point x="87" y="361"/>
      <point x="63" y="372" type="curve" smooth="yes"/>
      <point x="49" y="379"/>
      <point x="36" y="386"/>
      <point x="25" y="395" type="curve"/>
      <point x="61" y="460" type="line"/>
      <point x="71" y="460" type="line"/>
      <point x="78" y="454"/>
      <point x="86" y="449"/>
      <point x="93" y="445" type="curve" smooth="yes"/>
      <point x="106" y="437"/>
      <point x="123" y="430"/>
      <point x="142" y="430" type="curve" smooth="yes"/>
      <point x="171" y="430"/>
      <point x="186" y="445"/>
      <point x="186" y="465" type="curve" smooth="yes"/>
      <point x="186" y="485"/>
      <point x="172" y="500"/>
      <point x="137" y="500" type="curve" smooth="yes"/>
      <point x="71" y="500" type="line"/>
      <point x="71" y="560" type="line"/>
      <point x="176" y="620" type="line"/>
      <point x="41" y="620" type="line"/>
      <point x="41" y="700" type="line"/>
      <point x="291" y="700" type="line"/>
      <point x="291" y="615" type="line"/>
      <point x="196" y="565" type="line"/>
      <point x="272" y="560"/>
      <point x="316" y="516"/>
      <point x="316" y="460" type="curve" smooth="yes"/>
      <point x="316" y="405"/>
      <point x="262" y="350"/>
    </contour>
    <contour>
      <point x="91" y="0" type="line"/>
      <point x="561" y="700" type="line"/>
      <point x="711" y="700" type="line"/>
      <point x="241" y="0" type="line"/>
    </contour>
    <contour>
      <point x="576" y="0" type="line"/>
      <point x="576" y="60" type="line"/>
      <point x="411" y="60" type="line"/>
      <point x="411" y="140" type="line"/>
      <point x="581" y="340" type="line"/>
      <point x="696" y="340" type="line"/>
      <point x="696" y="140" type="line"/>
      <point x="741" y="140" type="line"/>
      <point x="741" y="60" type="line"/>
      <point x="696" y="60" type="line"/>
      <point x="696" y="0" type="line"/>
    </contour>
    <contour>
      <point x="506" y="140" type="line"/>
      <point x="576" y="140" type="line"/>
      <point x="576" y="205" type="line" smooth="yes"/>
      <point x="576" y="210"/>
      <point x="577" y="217"/>
      <point x="578" y="224" type="curve" smooth="yes"/>
      <point x="581" y="235" type="line"/>
      <point x="577" y="235" type="line"/>
      <point x="576" y="231"/>
      <point x="575" y="227"/>
      <point x="573" y="224" type="curve" smooth="yes"/>
      <point x="570" y="217"/>
      <point x="566" y="209"/>
      <point x="561" y="204" type="curve" smooth="yes"/>
    </contour>
  </outline>
</glyph>
<glyph name="questiondown" format="1">
  <advance width="490"/>
  <unicode hex="00BF"/>
  <outline>
    <contour>
      <point x="295" y="360" type="curve" smooth="yes"/>
      <point x="255" y="360"/>
      <point x="220" y="395"/>
      <point x="220" y="435" type="curve" smooth="yes"/>
      <point x="220" y="475"/>
      <point x="255" y="510"/>
      <point x="295" y="510" type="curve" smooth="yes"/>
      <point x="335" y="510"/>
      <point x="370" y="475"/>
      <point x="370" y="435" type="curve" smooth="yes"/>
      <point x="370" y="395"/>
      <point x="335" y="360"/>
    </contour>
    <contour>
      <point x="285" y="-210" type="curve" smooth="yes"/>
      <point x="114" y="-210"/>
      <point x="35" y="-130"/>
      <point x="35" y="-20" type="curve" smooth="yes"/>
      <point x="35" y="161"/>
      <point x="230" y="159"/>
      <point x="230" y="270" type="curve" smooth="yes"/>
      <point x="230" y="300" type="line"/>
      <point x="360" y="300" type="line"/>
      <point x="360" y="270" type="line" smooth="yes"/>
      <point x="360" y="99"/>
      <point x="175" y="100"/>
      <point x="175" y="-30" type="curve" smooth="yes"/>
      <point x="175" y="-81"/>
      <point x="215" y="-120"/>
      <point x="295" y="-120" type="curve" smooth="yes"/>
      <point x="342" y="-120"/>
      <point x="378" y="-109"/>
      <point x="401" y="-98" type="curve" smooth="yes"/>
      <point x="414" y="-91"/>
      <point x="426" y="-84"/>
      <point x="435" y="-75" type="curve"/>
      <point x="445" y="-75" type="line"/>
      <point x="490" y="-155" type="line"/>
      <point x="475" y="-166"/>
      <point x="458" y="-175"/>
      <point x="438" y="-183" type="curve" smooth="yes"/>
      <point x="403" y="-198"/>
      <point x="353" y="-210"/>
    </contour>
  </outline>
</glyph>
<glyph name="Atilde" format="1">
  <advance width="600"/>
  <unicode hex="00C3"/>
  <outline>
    <contour>
      <point x="205" y="760" type="curve" smooth="yes"/>
      <point x="196" y="760" type="line"/>
      <point x="140" y="790" type="line"/>
      <point x="145" y="841"/>
      <point x="184" y="890"/>
      <point x="235" y="890" type="curve" smooth="yes"/>
      <point x="290" y="890"/>
      <point x="310" y="845"/>
      <point x="345" y="845" type="curve" smooth="yes"/>
      <point x="369" y="844"/>
      <point x="386" y="884"/>
      <point x="385" y="885" type="curve" smooth="yes"/>
      <point x="394" y="885" type="line"/>
      <point x="450" y="855" type="line"/>
      <point x="445" y="804"/>
      <point x="406" y="755"/>
      <point x="355" y="755" type="curve" smooth="yes"/>
      <point x="300" y="755"/>
      <point x="280" y="800"/>
      <point x="245" y="800" type="curve" smooth="yes"/>
      <point x="220" y="799"/>
      <point x="205" y="761"/>
    </contour>
    <contour>
      <point x="380" y="700" type="line"/>
      <point x="585" y="0" type="line"/>
      <point x="445" y="0" type="line"/>
      <point x="400" y="160" type="line"/>
      <point x="200" y="160" type="line"/>
      <point x="155" y="0" type="line"/>
      <point x="15" y="0" type="line"/>
      <point x="220" y="700" type="line"/>
    </contour>
    <contour>
      <point x="225" y="250" type="line"/>
      <point x="375" y="250" type="line"/>
      <point x="315" y="460" type="line" smooth="yes"/>
      <point x="310" y="476"/>
      <point x="308" y="494"/>
      <point x="305" y="509" type="curve" smooth="yes"/>
      <point x="302" y="535" type="line"/>
      <point x="298" y="535" type="line"/>
      <point x="294" y="509" type="line" smooth="yes"/>
      <point x="291" y="494"/>
      <point x="289" y="475"/>
      <point x="285" y="460" type="curve" smooth="yes"/>
    </contour>
  </outline>
</glyph>
<glyph name="Adieresis" format="1">
  <advance width="600"/>
  <unicode hex="00C4"/>
  <outline>
    <contour>
      <point x="200" y="760" type="curve" smooth="yes"/>
      <point x="163" y="760"/>
      <point x="130" y="793"/>
      <point x="130" y="830" type="curve" smooth="yes"/>
      <point x="130" y="867"/>
      <point x="163" y="900"/>
      <point x="200" y="900" type="curve" smooth="yes"/>
      <point x="237" y="900"/>
      <point x="270" y="867"/>
      <point x="270" y="830" type="curve" smooth="yes"/>
      <point x="270" y="793"/>
      <point x="237" y="760"/>
    </contour>
    <contour>
      <point x="395" y="760" type="curve" smooth="yes"/>
      <point x="358" y="760"/>
      <point x="325" y="793"/>
      <point x="325" y="830" type="curve" smooth="yes"/>
      <point x="325" y="867"/>
      <point x="358" y="900"/>
      <point x="395" y="900" type="curve" smooth="yes"/>
      <point x="432" y="900"/>
      <point x="465" y="867"/>
      <point x="465" y="830" type="curve" smooth="yes"/>
      <point x="465" y="793"/>
      <point x="432" y="760"/>
    </contour>
    <contour>
      <point x="15" y="0" type="line"/>
      <point x="220" y="700" type="line"/>
      <point x="380" y="700" type="line"/>
      <point x="585" y="0" type="line"/>
      <point x="445" y="0" type="line"/>
      <point x="400" y="160" type="line"/>
      <point x="200" y="160" type="line"/>
      <point x="155" y="0" type="line"/>
    </contour>
    <contour>
      <point x="225" y="250" type="line"/>
      <point x="375" y="250" type="line"/>
      <point x="315" y="460" type="line" smooth="yes"/>
      <point x="310" y="476"/>
      <point x="308" y="494"/>
      <point x="305" y="509" type="curve" smooth="yes"/>
      <point x="302" y="535" type="line"/>
      <point x="298" y="535" type="line"/>
      <point x="294" y="509" type="line" smooth="yes"/>
      <point x="291" y="494"/>
      <point x="289" y="475"/>
      <point x="285" y="460" type="curve" smooth="yes"/>
    </contour>
  </outline>
</glyph>
<glyph name="Aring" format="1">
  <advance width="600"/>
  <unicode hex="00C5"/>
  <outline>
    <contour>
      <point x="300" y="745" type="curve" smooth="yes"/>
      <point x="235" y="745"/>
      <point x="190" y="790"/>
      <point x="190" y="850" type="curve" smooth="yes"/>
      <point x="190" y="910"/>
      <point x="235" y="955"/>
      <point x="300" y="955" type="curve" smooth="yes"/>
      <point x="365" y="955"/>
      <point x="410" y="910"/>
      <point x="410" y="850" type="curve" smooth="yes"/>
      <point x="410" y="790"/>
      <point x="365" y="745"/>
    </contour>
    <contour>
      <point x="300" y="810" type="curve" smooth="yes"/>
      <point x="320" y="810"/>
      <point x="335" y="825"/>
      <point x="335" y="850" type="curve" smooth="yes"/>
      <point x="335" y="875"/>
      <point x="320" y="890"/>
      <point x="300" y="890" type="curve" smooth="yes"/>
      <point x="280" y="890"/>
      <point x="265" y="875"/>
      <point x="265" y="850" type="curve" smooth="yes"/>
      <point x="265" y="825"/>
      <point x="280" y="810"/>
    </contour>
    <contour>
      <point x="15" y="0" type="line"/>
      <point x="220" y="700" type="line"/>
      <point x="380" y="700" type="line"/>
      <point x="585" y="0" type="line"/>
      <point x="445" y="0" type="line"/>
      <point x="400" y="160" type="line"/>
      <point x="200" y="160" type="line"/>
      <point x="155" y="0" type="line"/>
    </contour>
    <contour>
      <point x="225" y="250" type="line"/>
      <point x="375" y="250" type="line"/>
      <point x="315" y="460" type="line" smooth="yes"/>
      <point x="310" y="476"/>
      <point x="308" y="494"/>
      <point x="305" y="509" type="curve" smooth="yes"/>
      <point x="302" y="535" type="line"/>
      <point x="298" y="535" type="line"/>
      <point x="294" y="509" type="line" smooth="yes"/>
      <point x="291" y="494"/>
      <point x="289" y="475"/>
      <point x="285" y="460" type="curve" smooth="yes"/>
    </contour>
  </outline>
</glyph>
<glyph name="AE" format="1">
  <advance width="845"/>
  <unicode hex="00C6"/>
  <outline>
    <contour>
      <point x="-25" y="0" type="line"/>
      <point x="270" y="700" type="line"/>
      <point x="820" y="700" type="line"/>
      <point x="820" y="610" type="line"/>
      <point x="540" y="610" type="line"/>
      <point x="540" y="410" type="line"/>
      <point x="760" y="410" type="line"/>
      <point x="760" y="320" type="line"/>
      <point x="540" y="320" type="line"/>
      <point x="540" y="90" type="line"/>
      <point x="820" y="90" type="line"/>
      <point x="820" y="0" type="line"/>
      <point x="400" y="0" type="line"/>
      <point x="400" y="190" type="line"/>
      <point x="195" y="190" type="line"/>
      <point x="115" y="0" type="line"/>
    </contour>
    <contour>
      <point x="235" y="280" type="line"/>
      <point x="400" y="280" type="line"/>
      <point x="400" y="610" type="line"/>
      <point x="370" y="610" type="line"/>
    </contour>
  </outline>
</glyph>
<glyph name="Ccedilla" format="1">
  <advance width="535"/>
  <unicode hex="00C7"/>
  <outline>
    <contour>
      <point x="466" y="17" type="curve" smooth="yes"/>
      <point x="435" y="2"/>
      <point x="390" y="-9"/>
      <point x="335" y="-10" type="curve"/>
      <point x="335" y="-25" type="line"/>
      <point x="391" y="-25"/>
      <point x="430" y="-65"/>
      <point x="430" y="-110" type="curve" smooth="yes"/>
      <point x="430" y="-155"/>
      <point x="391" y="-195"/>
      <point x="320" y="-195" type="curve" smooth="yes"/>
      <point x="295" y="-195"/>
      <point x="274" y="-190"/>
      <point x="259" y="-185" type="curve" smooth="yes"/>
      <point x="250" y="-182"/>
      <point x="242" y="-179"/>
      <point x="235" y="-175" type="curve"/>
      <point x="256" y="-125" type="line"/>
      <point x="265" y="-125" type="line" smooth="yes"/>
      <point x="264" y="-125"/>
      <point x="285" y="-140"/>
      <point x="310" y="-140" type="curve" smooth="yes"/>
      <point x="330" y="-140"/>
      <point x="345" y="-130"/>
      <point x="345" y="-110" type="curve" smooth="yes"/>
      <point x="345" y="-90"/>
      <point x="330" y="-80"/>
      <point x="310" y="-80" type="curve" smooth="yes"/>
      <point x="260" y="-80" type="line"/>
      <point x="260" y="-4" type="line"/>
      <point x="127" y="23"/>
      <point x="50" y="131"/>
      <point x="50" y="350" type="curve" smooth="yes"/>
      <point x="50" y="605"/>
      <point x="155" y="710"/>
      <point x="320" y="710" type="curve" smooth="yes"/>
      <point x="377" y="710"/>
      <point x="424" y="697"/>
      <point x="456" y="682" type="curve" smooth="yes"/>
      <point x="475" y="674"/>
      <point x="491" y="665"/>
      <point x="505" y="655" type="curve"/>
      <point x="460" y="575" type="line"/>
      <point x="450" y="575" type="line"/>
      <point x="441" y="583"/>
      <point x="430" y="590"/>
      <point x="418" y="597" type="curve" smooth="yes"/>
      <point x="397" y="608"/>
      <point x="367" y="620"/>
      <point x="330" y="620" type="curve" smooth="yes"/>
      <point x="250" y="620"/>
      <point x="190" y="561"/>
      <point x="190" y="350" type="curve" smooth="yes"/>
      <point x="190" y="139"/>
      <point x="250" y="80"/>
      <point x="340" y="80" type="curve" smooth="yes"/>
      <point x="377" y="80"/>
      <point x="407" y="91"/>
      <point x="428" y="102" type="curve" smooth="yes"/>
      <point x="440" y="109"/>
      <point x="451" y="116"/>
      <point x="460" y="125" type="curve"/>
      <point x="470" y="125" type="line"/>
      <point x="515" y="45" type="line"/>
      <point x="501" y="34"/>
      <point x="485" y="25"/>
    </contour>
  </outline>
</glyph>
<glyph name="Ecircumflex" format="1">
  <advance width="530"/>
  <unicode hex="00CA"/>
  <outline>
    <contour>
      <point x="142" y="760" type="line"/>
      <point x="252" y="894" type="line"/>
      <point x="352" y="894" type="line"/>
      <point x="462" y="760" type="line"/>
      <point x="367" y="760" type="line"/>
      <point x="302" y="830" type="line"/>
      <point x="237" y="760" type="line"/>
    </contour>
    <contour>
      <point x="85" y="0" type="line"/>
      <point x="85" y="700" type="line"/>
      <point x="505" y="700" type="line"/>
      <point x="505" y="610" type="line"/>
      <point x="225" y="610" type="line"/>
      <point x="225" y="410" type="line"/>
      <point x="445" y="410" type="line"/>
      <point x="445" y="320" type="line"/>
      <point x="225" y="320" type="line"/>
      <point x="225" y="90" type="line"/>
      <point x="505" y="90" type="line"/>
      <point x="505" y="0" type="line"/>
    </contour>
  </outline>
</glyph>
<glyph name="Edieresis" format="1">
  <advance width="530"/>
  <unicode hex="00CB"/>
  <outline>
    <contour>
      <point x="202" y="770" type="curve" smooth="yes"/>
      <point x="165" y="770"/>
      <point x="132" y="803"/>
      <point x="132" y="840" type="curve" smooth="yes"/>
      <point x="132" y="877"/>
      <point x="165" y="910"/>
      <point x="202" y="910" type="curve" smooth="yes"/>
      <point x="239" y="910"/>
      <point x="272" y="877"/>
      <point x="272" y="840" type="curve" smooth="yes"/>
      <point x="272" y="803"/>
      <point x="239" y="770"/>
    </contour>
    <contour>
      <point x="397" y="770" type="curve" smooth="yes"/>
      <point x="360" y="770"/>
      <point x="327" y="803"/>
      <point x="327" y="840" type="curve" smooth="yes"/>
      <point x="327" y="877"/>
      <point x="360" y="910"/>
      <point x="397" y="910" type="curve" smooth="yes"/>
      <point x="434" y="910"/>
      <point x="467" y="877"/>
      <point x="467" y="840" type="curve" smooth="yes"/>
      <point x="467" y="803"/>
      <point x="434" y="770"/>
    </contour>
    <contour>
      <point x="85" y="0" type="line"/>
      <point x="85" y="700" type="line"/>
      <point x="505" y="700" type="line"/>
      <point x="505" y="610" type="line"/>
      <point x="225" y="610" type="line"/>
      <point x="225" y="410" type="line"/>
      <point x="445" y="410" type="line"/>
      <point x="445" y="320" type="line"/>
      <point x="225" y="320" type="line"/>
      <point x="225" y="90" type="line"/>
      <point x="505" y="90" type="line"/>
      <point x="505" y="0" type="line"/>
    </contour>
  </outline>
</glyph>
<glyph name="Igrave" format="1">
  <advance width="288"/>
  <unicode hex="00CC"/>
  <outline>
    <contour>
      <point x="115" y="750" type="line"/>
      <point x="15" y="900" type="line"/>
      <point x="150" y="900" type="line"/>
      <point x="195" y="750" type="line"/>
    </contour>
    <contour>
      <point x="85" y="0" type="line"/>
      <point x="85" y="700" type="line"/>
      <point x="225" y="700" type="line"/>
      <point x="225" y="0" type="line"/>
    </contour>
  </outline>
</glyph>
<glyph name="Icircumflex" format="1">
  <advance width="290"/>
  <unicode hex="00CE"/>
  <outline>
    <contour>
      <point x="-14" y="760" type="line"/>
      <point x="96" y="894" type="line"/>
      <point x="196" y="894" type="line"/>
      <point x="306" y="760" type="line"/>
      <point x="211" y="760" type="line"/>
      <point x="146" y="830" type="line"/>
      <point x="81" y="760" type="line"/>
    </contour>
    <contour>
      <point x="85" y="0" type="line"/>
      <point x="85" y="700" type="line"/>
      <point x="225" y="700" type="line"/>
      <point x="225" y="0" type="line"/>
    </contour>
  </outline>
</glyph>
<glyph name="Idieresis" format="1">
  <advance width="310"/>
  <unicode hex="00CF"/>
  <outline>
    <contour>
      <point x="56" y="770" type="curve" smooth="yes"/>
      <point x="19" y="770"/>
      <point x="-14" y="803"/>
      <point x="-14" y="840" type="curve" smooth="yes"/>
      <point x="-14" y="877"/>
      <point x="19" y="910"/>
      <point x="56" y="910" type="curve" smooth="yes"/>
      <point x="93" y="910"/>
      <point x="126" y="877"/>
      <point x="126" y="840" type="curve" smooth="yes"/>
      <point x="126" y="803"/>
      <point x="93" y="770"/>
    </contour>
    <contour>
      <point x="251" y="770" type="curve" smooth="yes"/>
      <point x="214" y="770"/>
      <point x="181" y="803"/>
      <point x="181" y="840" type="curve" smooth="yes"/>
      <point x="181" y="877"/>
      <point x="214" y="910"/>
      <point x="251" y="910" type="curve" smooth="yes"/>
      <point x="288" y="910"/>
      <point x="321" y="877"/>
      <point x="321" y="840" type="curve" smooth="yes"/>
      <point x="321" y="803"/>
      <point x="288" y="770"/>
    </contour>
    <contour>
      <point x="85" y="0" type="line"/>
      <point x="85" y="700" type="line"/>
      <point x="225" y="700" type="line"/>
      <point x="225" y="0" type="line"/>
    </contour>
  </outline>
</glyph>
<glyph name="Eth" format="1">
  <advance width="620"/>
  <unicode hex="00D0"/>
  <outline>
    <contour>
      <point x="90" y="0" type="line"/>
      <point x="90" y="310" type="line"/>
      <point x="35" y="310" type="line"/>
      <point x="35" y="410" type="line"/>
      <point x="90" y="410" type="line"/>
      <point x="90" y="700" type="line"/>
      <point x="260" y="700" type="line" smooth="yes"/>
      <point x="460" y="700"/>
      <point x="570" y="590"/>
      <point x="570" y="350" type="curve" smooth="yes"/>
      <point x="570" y="110"/>
      <point x="460" y="0"/>
      <point x="260" y="0" type="curve" smooth="yes"/>
    </contour>
    <contour>
      <point x="230" y="90" type="line"/>
      <point x="260" y="90" type="line" smooth="yes"/>
      <point x="370" y="90"/>
      <point x="430" y="150"/>
      <point x="430" y="350" type="curve" smooth="yes"/>
      <point x="430" y="550"/>
      <point x="370" y="610"/>
      <point x="260" y="610" type="curve" smooth="yes"/>
      <point x="230" y="610" type="line"/>
      <point x="230" y="410" type="line"/>
      <point x="325" y="410" type="line"/>
      <point x="325" y="310" type="line"/>
      <point x="230" y="310" type="line"/>
    </contour>
  </outline>
</glyph>
<glyph name="Ntilde" format="1">
  <advance width="640"/>
  <unicode hex="00D1"/>
  <outline>
    <contour>
      <point x="225" y="760" type="curve" smooth="yes"/>
      <point x="216" y="760" type="line"/>
      <point x="160" y="790" type="line"/>
      <point x="165" y="841"/>
      <point x="204" y="890"/>
      <point x="255" y="890" type="curve" smooth="yes"/>
      <point x="310" y="890"/>
      <point x="330" y="845"/>
      <point x="365" y="845" type="curve" smooth="yes"/>
      <point x="389" y="844"/>
      <point x="406" y="884"/>
      <point x="405" y="885" type="curve" smooth="yes"/>
      <point x="414" y="885" type="line"/>
      <point x="470" y="855" type="line"/>
      <point x="465" y="804"/>
      <point x="426" y="755"/>
      <point x="375" y="755" type="curve" smooth="yes"/>
      <point x="320" y="755"/>
      <point x="300" y="800"/>
      <point x="265" y="800" type="curve" smooth="yes"/>
      <point x="240" y="799"/>
      <point x="225" y="761"/>
    </contour>
    <contour>
      <point x="435" y="700" type="line"/>
      <point x="575" y="700" type="line"/>
      <point x="575" y="0" type="line"/>
      <point x="425" y="0" type="line"/>
      <point x="250" y="420" type="line"/>
      <point x="232" y="464" type="line"/>
      <point x="224" y="485" type="line"/>
      <point x="220" y="485" type="line"/>
      <point x="222" y="464" type="line" smooth="yes"/>
      <point x="223" y="451"/>
      <point x="225" y="435"/>
      <point x="225" y="420" type="curve" smooth="yes"/>
      <point x="225" y="0" type="line"/>
      <point x="85" y="0" type="line"/>
      <point x="85" y="700" type="line"/>
      <point x="235" y="700" type="line"/>
      <point x="410" y="280" type="line"/>
      <point x="428" y="236" type="line"/>
      <point x="436" y="215" type="line"/>
      <point x="440" y="215" type="line"/>
      <point x="437" y="236" type="line" smooth="yes"/>
      <point x="435" y="248"/>
      <point x="435" y="265"/>
      <point x="435" y="280" type="curve" smooth="yes"/>
    </contour>
  </outline>
</glyph>
<glyph name="Otilde" format="1">
  <advance width="630"/>
  <unicode hex="00D5"/>
  <outline>
    <contour>
      <point x="220" y="770" type="curve" smooth="yes"/>
      <point x="211" y="770" type="line"/>
      <point x="155" y="800" type="line"/>
      <point x="160" y="851"/>
      <point x="199" y="900"/>
      <point x="250" y="900" type="curve" smooth="yes"/>
      <point x="305" y="900"/>
      <point x="325" y="855"/>
      <point x="360" y="855" type="curve" smooth="yes"/>
      <point x="384" y="854"/>
      <point x="401" y="894"/>
      <point x="400" y="895" type="curve" smooth="yes"/>
      <point x="409" y="895" type="line"/>
      <point x="465" y="865" type="line"/>
      <point x="460" y="814"/>
      <point x="421" y="765"/>
      <point x="370" y="765" type="curve" smooth="yes"/>
      <point x="315" y="765"/>
      <point x="295" y="810"/>
      <point x="260" y="810" type="curve" smooth="yes"/>
      <point x="235" y="809"/>
      <point x="220" y="771"/>
    </contour>
    <contour>
      <point x="315" y="710" type="curve" smooth="yes"/>
      <point x="475" y="710"/>
      <point x="580" y="605"/>
      <point x="580" y="350" type="curve" smooth="yes"/>
      <point x="580" y="95"/>
      <point x="475" y="-10"/>
      <point x="315" y="-10" type="curve" smooth="yes"/>
      <point x="155" y="-10"/>
      <point x="50" y="95"/>
      <point x="50" y="350" type="curve" smooth="yes"/>
      <point x="50" y="605"/>
      <point x="155" y="710"/>
    </contour>
    <contour>
      <point x="315" y="80" type="curve" smooth="yes"/>
      <point x="380" y="80"/>
      <point x="440" y="139"/>
      <point x="440" y="350" type="curve" smooth="yes"/>
      <point x="440" y="561"/>
      <point x="380" y="620"/>
      <point x="315" y="620" type="curve" smooth="yes"/>
      <point x="250" y="620"/>
      <point x="190" y="561"/>
      <point x="190" y="350" type="curve" smooth="yes"/>
      <point x="190" y="139"/>
      <point x="250" y="80"/>
    </contour>
  </outline>
</glyph>
<glyph name="Odieresis" format="1">
  <advance width="630"/>
  <unicode hex="00D6"/>
  <outline>
    <contour>
      <point x="215" y="770" type="curve" smooth="yes"/>
      <point x="178" y="770"/>
      <point x="145" y="803"/>
      <point x="145" y="840" type="curve" smooth="yes"/>
      <point x="145" y="877"/>
      <point x="178" y="910"/>
      <point x="215" y="910" type="curve" smooth="yes"/>
      <point x="252" y="910"/>
      <point x="285" y="877"/>
      <point x="285" y="840" type="curve" smooth="yes"/>
      <point x="285" y="803"/>
      <point x="252" y="770"/>
    </contour>
    <contour>
      <point x="410" y="770" type="curve" smooth="yes"/>
      <point x="373" y="770"/>
      <point x="340" y="803"/>
      <point x="340" y="840" type="curve" smooth="yes"/>
      <point x="340" y="877"/>
      <point x="373" y="910"/>
      <point x="410" y="910" type="curve" smooth="yes"/>
      <point x="447" y="910"/>
      <point x="480" y="877"/>
      <point x="480" y="840" type="curve" smooth="yes"/>
      <point x="480" y="803"/>
      <point x="447" y="770"/>
    </contour>
    <contour>
      <point x="315" y="-10" type="curve" smooth="yes"/>
      <point x="155" y="-10"/>
      <point x="50" y="95"/>
      <point x="50" y="350" type="curve" smooth="yes"/>
      <point x="50" y="605"/>
      <point x="155" y="710"/>
      <point x="315" y="710" type="curve" smooth="yes"/>
      <point x="475" y="710"/>
      <point x="580" y="605"/>
      <point x="580" y="350" type="curve" smooth="yes"/>
      <point x="580" y="95"/>
      <point x="475" y="-10"/>
    </contour>
    <contour>
      <point x="315" y="80" type="curve" smooth="yes"/>
      <point x="380" y="80"/>
      <point x="440" y="139"/>
      <point x="440" y="350" type="curve" smooth="yes"/>
      <point x="440" y="561"/>
      <point x="380" y="620"/>
      <point x="315" y="620" type="curve" smooth="yes"/>
      <point x="250" y="620"/>
      <point x="190" y="561"/>
      <point x="190" y="350" type="curve" smooth="yes"/>
      <point x="190" y="139"/>
      <point x="250" y="80"/>
    </contour>
  </outline>
</glyph>
<glyph name="multiply" format="1">
  <advance width="440"/>
  <unicode hex="00D7"/>
  <outline>
    <contour>
      <point x="105" y="145" type="line"/>
      <point x="35" y="215" type="line"/>
      <point x="150" y="330" type="line"/>
      <point x="35" y="445" type="line"/>
      <point x="105" y="515" type="line"/>
      <point x="220" y="400" type="line"/>
      <point x="335" y="515" type="line"/>
      <point x="405" y="445" type="line"/>
      <point x="290" y="330" type="line"/>
      <point x="405" y="215" type="line"/>
      <point x="335" y="145" type="line"/>
      <point x="220" y="260" type="line"/>
    </contour>
  </outline>
</glyph>
<glyph name="Oslash" format="1">
  <advance width="630"/>
  <unicode hex="00D8"/>
  <outline>
    <contour>
      <point x="315" y="-10" type="curve" smooth="yes"/>
      <point x="263" y="-10"/>
      <point x="218" y="1"/>
      <point x="179" y="24" type="curve"/>
      <point x="165" y="0" type="line"/>
      <point x="50" y="0" type="line"/>
      <point x="107" y="96" type="line"/>
      <point x="70" y="155"/>
      <point x="50" y="237"/>
      <point x="50" y="350" type="curve" smooth="yes"/>
      <point x="50" y="605"/>
      <point x="155" y="710"/>
      <point x="315" y="710" type="curve" smooth="yes"/>
      <point x="368" y="710"/>
      <point x="413" y="699"/>
      <point x="450" y="676" type="curve"/>
      <point x="465" y="700" type="line"/>
      <point x="580" y="700" type="line"/>
      <point x="523" y="604" type="line"/>
      <point x="559" y="545"/>
      <point x="580" y="463"/>
      <point x="580" y="350" type="curve" smooth="yes"/>
      <point x="580" y="95"/>
      <point x="475" y="-10"/>
    </contour>
    <contour>
      <point x="196" y="246" type="curve"/>
      <point x="392" y="578" type="line"/>
      <point x="369" y="609"/>
      <point x="343" y="620"/>
      <point x="315" y="620" type="curve" smooth="yes"/>
      <point x="250" y="620"/>
      <point x="190" y="561"/>
      <point x="190" y="350" type="curve" smooth="yes"/>
      <point x="190" y="309"/>
      <point x="192" y="275"/>
    </contour>
    <contour>
      <point x="315" y="80" type="curve" smooth="yes"/>
      <point x="380" y="80"/>
      <point x="440" y="139"/>
      <point x="440" y="350" type="curve" smooth="yes"/>
      <point x="440" y="389"/>
      <point x="438" y="424"/>
      <point x="434" y="453" type="curve"/>
      <point x="237" y="122" type="line"/>
      <point x="260" y="91"/>
      <point x="286" y="80"/>
    </contour>
  </outline>
</glyph>
<glyph name="Udieresis" format="1">
  <advance width="640"/>
  <unicode hex="00DC"/>
  <outline>
    <contour>
      <point x="220" y="770" type="curve" smooth="yes"/>
      <point x="183" y="770"/>
      <point x="150" y="803"/>
      <point x="150" y="840" type="curve" smooth="yes"/>
      <point x="150" y="877"/>
      <point x="183" y="910"/>
      <point x="220" y="910" type="curve" smooth="yes"/>
      <point x="257" y="910"/>
      <point x="290" y="877"/>
      <point x="290" y="840" type="curve" smooth="yes"/>
      <point x="290" y="803"/>
      <point x="257" y="770"/>
    </contour>
    <contour>
      <point x="415" y="770" type="curve" smooth="yes"/>
      <point x="378" y="770"/>
      <point x="345" y="803"/>
      <point x="345" y="840" type="curve" smooth="yes"/>
      <point x="345" y="877"/>
      <point x="378" y="910"/>
      <point x="415" y="910" type="curve" smooth="yes"/>
      <point x="452" y="910"/>
      <point x="485" y="877"/>
      <point x="485" y="840" type="curve" smooth="yes"/>
      <point x="485" y="803"/>
      <point x="452" y="770"/>
    </contour>
    <contour>
      <point x="320" y="-10" type="curve" smooth="yes"/>
      <point x="164" y="-10"/>
      <point x="75" y="79"/>
      <point x="75" y="230" type="curve" smooth="yes"/>
      <point x="75" y="700" type="line"/>
      <point x="215" y="700" type="line"/>
      <point x="215" y="230" type="line" smooth="yes"/>
      <point x="215" y="125"/>
      <point x="260" y="80"/>
      <point x="320" y="80" type="curve" smooth="yes"/>
      <point x="380" y="80"/>
      <point x="425" y="125"/>
      <point x="425" y="230" type="curve" smooth="yes"/>
      <point x="425" y="700" type="line"/>
      <point x="565" y="700" type="line"/>
      <point x="565" y="230" type="line" smooth="yes"/>
      <point x="565" y="79"/>
      <point x="476" y="-10"/>
    </contour>
  </outline>
</glyph>
<glyph name="Yacute" format="1">
  <advance width="570"/>
  <unicode hex="00DD"/>
  <outline>
    <contour>
      <point x="232" y="730" type="line"/>
      <point x="277" y="880" type="line"/>
      <point x="412" y="880" type="line"/>
      <point x="312" y="730" type="line"/>
    </contour>
    <contour>
      <point x="215" y="0" type="line"/>
      <point x="215" y="230" type="line"/>
      <point x="0" y="700" type="line"/>
      <point x="145" y="700" type="line"/>
      <point x="276" y="385" type="line"/>
      <point x="286" y="355" type="line"/>
      <point x="289" y="340" type="line"/>
      <point x="293" y="340" type="line"/>
      <point x="296" y="355" type="line" smooth="yes"/>
      <point x="299" y="364"/>
      <point x="302" y="374"/>
      <point x="306" y="385" type="curve" smooth="yes"/>
      <point x="433" y="700" type="line"/>
      <point x="570" y="700" type="line"/>
      <point x="355" y="230" type="line"/>
      <point x="355" y="0" type="line"/>
    </contour>
  </outline>
</glyph>
<glyph name="Thorn" format="1">
  <advance width="645"/>
  <unicode hex="00DE"/>
  <outline>
    <contour>
      <point x="85" y="-20" type="line"/>
      <point x="85" y="720" type="line"/>
      <point x="225" y="720" type="line"/>
      <point x="225" y="650" type="line"/>
      <point x="295" y="650" type="line" smooth="yes"/>
      <point x="490" y="650"/>
      <point x="605" y="534"/>
      <point x="605" y="350" type="curve" smooth="yes"/>
      <point x="605" y="166"/>
      <point x="490" y="50"/>
      <point x="295" y="50" type="curve" smooth="yes"/>
      <point x="225" y="50" type="line"/>
      <point x="225" y="-20" type="line"/>
    </contour>
    <contour>
      <point x="225" y="140" type="line"/>
      <point x="295" y="140" type="line" smooth="yes"/>
      <point x="395" y="140"/>
      <point x="465" y="210"/>
      <point x="465" y="350" type="curve" smooth="yes"/>
      <point x="465" y="490"/>
      <point x="395" y="560"/>
      <point x="295" y="560" type="curve" smooth="yes"/>
      <point x="225" y="560" type="line"/>
    </contour>
  </outline>
</glyph>
<glyph name="germandbls" format="1">
  <advance width="620"/>
  <unicode hex="00DF"/>
  <outline>
    <contour>
      <point x="385" y="-10" type="curve" smooth="yes"/>
      <point x="350" y="-10"/>
      <point x="320" y="-3"/>
      <point x="299" y="5" type="curve" smooth="yes"/>
      <point x="287" y="9"/>
      <point x="276" y="14"/>
      <point x="265" y="20" type="curve"/>
      <point x="300" y="105" type="line"/>
      <point x="310" y="105" type="line"/>
      <point x="315" y="100"/>
      <point x="320" y="95"/>
      <point x="327" y="92" type="curve" smooth="yes"/>
      <point x="338" y="85"/>
      <point x="355" y="80"/>
      <point x="375" y="80" type="curve" smooth="yes"/>
      <point x="432" y="80"/>
      <point x="460" y="110"/>
      <point x="460" y="170" type="curve" smooth="yes"/>
      <point x="460" y="269"/>
      <point x="285" y="281"/>
      <point x="285" y="420" type="curve" smooth="yes"/>
      <point x="285" y="480"/>
      <point x="325" y="510"/>
      <point x="325" y="560" type="curve" smooth="yes"/>
      <point x="325" y="595"/>
      <point x="301" y="620"/>
      <point x="270" y="620" type="curve" smooth="yes"/>
      <point x="239" y="620"/>
      <point x="215" y="595"/>
      <point x="215" y="550" type="curve" smooth="yes"/>
      <point x="215" y="0" type="line"/>
      <point x="75" y="0" type="line"/>
      <point x="75" y="410" type="line"/>
      <point x="20" y="410" type="line"/>
      <point x="20" y="500" type="line"/>
      <point x="75" y="500" type="line"/>
      <point x="75" y="550" type="line" smooth="yes"/>
      <point x="75" y="635"/>
      <point x="151" y="710"/>
      <point x="260" y="710" type="curve" smooth="yes"/>
      <point x="390" y="710"/>
      <point x="465" y="635"/>
      <point x="465" y="560" type="curve" smooth="yes"/>
      <point x="465" y="499"/>
      <point x="415" y="470"/>
      <point x="415" y="420" type="curve" smooth="yes"/>
      <point x="415" y="330"/>
      <point x="600" y="320"/>
      <point x="600" y="170" type="curve" smooth="yes"/>
      <point x="600" y="66"/>
      <point x="525" y="-10"/>
    </contour>
  </outline>
</glyph>
<glyph name="adieresis" format="1">
  <advance width="540"/>
  <unicode hex="00E4"/>
  <outline>
    <contour>
      <point x="170" y="570" type="curve" smooth="yes"/>
      <point x="133" y="570"/>
      <point x="100" y="603"/>
      <point x="100" y="640" type="curve" smooth="yes"/>
      <point x="100" y="677"/>
      <point x="133" y="710"/>
      <point x="170" y="710" type="curve" smooth="yes"/>
      <point x="207" y="710"/>
      <point x="240" y="677"/>
      <point x="240" y="640" type="curve" smooth="yes"/>
      <point x="240" y="603"/>
      <point x="207" y="570"/>
    </contour>
    <contour>
      <point x="365" y="570" type="curve" smooth="yes"/>
      <point x="328" y="570"/>
      <point x="295" y="603"/>
      <point x="295" y="640" type="curve" smooth="yes"/>
      <point x="295" y="677"/>
      <point x="328" y="710"/>
      <point x="365" y="710" type="curve" smooth="yes"/>
      <point x="402" y="710"/>
      <point x="435" y="677"/>
      <point x="435" y="640" type="curve" smooth="yes"/>
      <point x="435" y="603"/>
      <point x="402" y="570"/>
    </contour>
    <contour>
      <point x="225" y="-10" type="curve" smooth="yes"/>
      <point x="105" y="-10"/>
      <point x="40" y="54"/>
      <point x="40" y="145" type="curve" smooth="yes"/>
      <point x="40" y="241"/>
      <point x="105" y="305"/>
      <point x="265" y="305" type="curve" smooth="yes"/>
      <point x="335" y="305" type="line"/>
      <point x="335" y="320" type="line" smooth="yes"/>
      <point x="335" y="391"/>
      <point x="305" y="420"/>
      <point x="240" y="420" type="curve" smooth="yes"/>
      <point x="207" y="420"/>
      <point x="182" y="411"/>
      <point x="163" y="400" type="curve" smooth="yes"/>
      <point x="152" y="394"/>
      <point x="143" y="387"/>
      <point x="135" y="380" type="curve"/>
      <point x="125" y="380" type="line"/>
      <point x="80" y="460" type="line"/>
      <point x="94" y="469"/>
      <point x="110" y="478"/>
      <point x="127" y="485" type="curve" smooth="yes"/>
      <point x="158" y="497"/>
      <point x="199" y="510"/>
      <point x="250" y="510" type="curve" smooth="yes"/>
      <point x="394" y="510"/>
      <point x="475" y="430"/>
      <point x="475" y="320" type="curve" smooth="yes"/>
      <point x="475" y="0" type="line"/>
      <point x="375" y="0" type="line"/>
      <point x="365" y="60" type="line"/>
      <point x="360" y="60" type="line"/>
      <point x="350" y="47"/>
      <point x="339" y="35"/>
      <point x="326" y="25" type="curve" smooth="yes"/>
      <point x="303" y="6"/>
      <point x="270" y="-10"/>
    </contour>
    <contour>
      <point x="250" y="85" type="curve" smooth="yes"/>
      <point x="275" y="85"/>
      <point x="296" y="100"/>
      <point x="311" y="115" type="curve" smooth="yes"/>
      <point x="320" y="124"/>
      <point x="328" y="134"/>
      <point x="335" y="145" type="curve"/>
      <point x="335" y="215" type="line"/>
      <point x="265" y="215" type="line" smooth="yes"/>
      <point x="205" y="215"/>
      <point x="180" y="190"/>
      <point x="180" y="145" type="curve" smooth="yes"/>
      <point x="180" y="110"/>
      <point x="205" y="85"/>
    </contour>
  </outline>
</glyph>
<glyph name="ccedilla" format="1">
  <advance width="475"/>
  <unicode hex="00E7"/>
  <outline>
    <contour>
      <point x="407" y="15" type="curve" smooth="yes"/>
      <point x="377" y="3"/>
      <point x="340" y="-9"/>
      <point x="292" y="-10" type="curve"/>
      <point x="292" y="-25" type="line"/>
      <point x="348" y="-25"/>
      <point x="387" y="-65"/>
      <point x="387" y="-110" type="curve" smooth="yes"/>
      <point x="387" y="-155"/>
      <point x="348" y="-195"/>
      <point x="277" y="-195" type="curve" smooth="yes"/>
      <point x="252" y="-195"/>
      <point x="231" y="-190"/>
      <point x="216" y="-185" type="curve" smooth="yes"/>
      <point x="207" y="-182"/>
      <point x="199" y="-179"/>
      <point x="192" y="-175" type="curve"/>
      <point x="213" y="-125" type="line"/>
      <point x="222" y="-125" type="line" smooth="yes"/>
      <point x="221" y="-125"/>
      <point x="242" y="-140"/>
      <point x="267" y="-140" type="curve" smooth="yes"/>
      <point x="287" y="-140"/>
      <point x="302" y="-130"/>
      <point x="302" y="-110" type="curve" smooth="yes"/>
      <point x="302" y="-90"/>
      <point x="287" y="-80"/>
      <point x="267" y="-80" type="curve" smooth="yes"/>
      <point x="217" y="-80" type="line"/>
      <point x="217" y="-4" type="line"/>
      <point x="100" y="18"/>
      <point x="40" y="101"/>
      <point x="40" y="250" type="curve" smooth="yes"/>
      <point x="40" y="426"/>
      <point x="124" y="510"/>
      <point x="275" y="510" type="curve" smooth="yes"/>
      <point x="326" y="510"/>
      <point x="366" y="497"/>
      <point x="397" y="485" type="curve" smooth="yes"/>
      <point x="414" y="478"/>
      <point x="430" y="469"/>
      <point x="445" y="460" type="curve"/>
      <point x="400" y="380" type="line"/>
      <point x="390" y="380" type="line"/>
      <point x="382" y="387"/>
      <point x="373" y="394"/>
      <point x="362" y="400" type="curve" smooth="yes"/>
      <point x="343" y="411"/>
      <point x="317" y="420"/>
      <point x="285" y="420" type="curve" smooth="yes"/>
      <point x="221" y="420"/>
      <point x="180" y="380"/>
      <point x="180" y="250" type="curve" smooth="yes"/>
      <point x="180" y="120"/>
      <point x="220" y="80"/>
      <point x="295" y="80" type="curve" smooth="yes"/>
      <point x="327" y="80"/>
      <point x="353" y="89"/>
      <point x="372" y="100" type="curve" smooth="yes"/>
      <point x="383" y="106"/>
      <point x="392" y="113"/>
      <point x="400" y="120" type="curve"/>
      <point x="410" y="120" type="line"/>
      <point x="455" y="40" type="line"/>
      <point x="440" y="31"/>
      <point x="424" y="22"/>
    </contour>
  </outline>
</glyph>
<glyph name="igrave" format="1">
  <advance width="283"/>
  <unicode hex="00EC"/>
  <outline>
    <contour>
      <point x="115" y="550" type="line"/>
      <point x="15" y="700" type="line"/>
      <point x="150" y="700" type="line"/>
      <point x="195" y="550" type="line"/>
    </contour>
    <contour>
      <point x="73" y="0" type="line"/>
      <point x="73" y="500" type="line"/>
      <point x="213" y="500" type="line"/>
      <point x="213" y="0" type="line"/>
    </contour>
  </outline>
</glyph>
<glyph name="iacute" format="1">
  <advance width="282"/>
  <unicode hex="00ED"/>
  <outline>
    <contour>
      <point x="87" y="550" type="line"/>
      <point x="132" y="700" type="line"/>
      <point x="267" y="700" type="line"/>
      <point x="167" y="550" type="line"/>
    </contour>
    <contour>
      <point x="70" y="0" type="line"/>
      <point x="70" y="500" type="line"/>
      <point x="210" y="500" type="line"/>
      <point x="210" y="0" type="line"/>
    </contour>
  </outline>
</glyph>
<glyph name="icircumflex" format="1">
  <advance width="290"/>
  <unicode hex="00EE"/>
  <outline>
    <contour>
      <point x="-15" y="560" type="line"/>
      <point x="95" y="694" type="line"/>
      <point x="195" y="694" type="line"/>
      <point x="305" y="560" type="line"/>
      <point x="210" y="560" type="line"/>
      <point x="145" y="630" type="line"/>
      <point x="80" y="560" type="line"/>
    </contour>
    <contour>
      <point x="75" y="0" type="line"/>
      <point x="75" y="500" type="line"/>
      <point x="215" y="500" type="line"/>
      <point x="215" y="0" type="line"/>
    </contour>
  </outline>
</glyph>
<glyph name="idieresis" format="1">
  <advance width="300"/>
  <unicode hex="00EF"/>
  <outline>
    <contour>
      <point x="50" y="570" type="curve" smooth="yes"/>
      <point x="13" y="570"/>
      <point x="-20" y="603"/>
      <point x="-20" y="640" type="curve" smooth="yes"/>
      <point x="-20" y="677"/>
      <point x="13" y="710"/>
      <point x="50" y="710" type="curve" smooth="yes"/>
      <point x="87" y="710"/>
      <point x="120" y="677"/>
      <point x="120" y="640" type="curve" smooth="yes"/>
      <point x="120" y="603"/>
      <point x="87" y="570"/>
    </contour>
    <contour>
      <point x="245" y="570" type="curve" smooth="yes"/>
      <point x="208" y="570"/>
      <point x="175" y="603"/>
      <point x="175" y="640" type="curve" smooth="yes"/>
      <point x="175" y="677"/>
      <point x="208" y="710"/>
      <point x="245" y="710" type="curve" smooth="yes"/>
      <point x="282" y="710"/>
      <point x="315" y="677"/>
      <point x="315" y="640" type="curve" smooth="yes"/>
      <point x="315" y="603"/>
      <point x="282" y="570"/>
    </contour>
    <contour>
      <point x="80" y="0" type="line"/>
      <point x="80" y="500" type="line"/>
      <point x="220" y="500" type="line"/>
      <point x="220" y="0" type="line"/>
    </contour>
  </outline>
</glyph>
<glyph name="eth" format="1">
  <advance width="545"/>
  <unicode hex="00F0"/>
  <outline>
    <contour>
      <point x="265" y="-10" type="curve" smooth="yes"/>
      <point x="120" y="-10"/>
      <point x="35" y="74"/>
      <point x="35" y="225" type="curve" smooth="yes"/>
      <point x="35" y="375"/>
      <point x="120" y="460"/>
      <point x="240" y="460" type="curve" smooth="yes"/>
      <point x="300" y="460"/>
      <point x="349" y="435"/>
      <point x="380" y="400" type="curve"/>
      <point x="380" y="465"/>
      <point x="358" y="515"/>
      <point x="314" y="549" type="curve"/>
      <point x="290" y="490" type="line"/>
      <point x="205" y="525" type="line"/>
      <point x="231" y="588" type="line"/>
      <point x="200" y="596" type="line"/>
      <point x="130" y="610" type="line"/>
      <point x="150" y="695" type="line"/>
      <point x="215" y="680" type="line" smooth="yes"/>
      <point x="232" y="676"/>
      <point x="248" y="672"/>
      <point x="264" y="667" type="curve"/>
      <point x="290" y="730" type="line"/>
      <point x="375" y="695" type="line"/>
      <point x="348" y="631" type="line"/>
      <point x="449" y="575"/>
      <point x="495" y="482"/>
      <point x="495" y="325" type="curve" smooth="yes"/>
      <point x="495" y="225" type="line" smooth="yes"/>
      <point x="495" y="74"/>
      <point x="410" y="-10"/>
    </contour>
    <contour>
      <point x="265" y="80" type="curve" smooth="yes"/>
      <point x="316" y="80"/>
      <point x="355" y="120"/>
      <point x="355" y="225" type="curve" smooth="yes"/>
      <point x="355" y="325"/>
      <point x="316" y="365"/>
      <point x="265" y="365" type="curve" smooth="yes"/>
      <point x="214" y="365"/>
      <point x="175" y="325"/>
      <point x="175" y="225" type="curve" smooth="yes"/>
      <point x="175" y="120"/>
      <point x="214" y="80"/>
    </contour>
  </outline>
</glyph>
<glyph name="ntilde" format="1">
  <advance width="575"/>
  <unicode hex="00F1"/>
  <outline>
    <contour>
      <point x="202" y="581" type="curve" smooth="yes"/>
      <point x="193" y="581" type="line"/>
      <point x="137" y="611" type="line"/>
      <point x="142" y="662"/>
      <point x="181" y="711"/>
      <point x="232" y="711" type="curve" smooth="yes"/>
      <point x="287" y="711"/>
      <point x="307" y="666"/>
      <point x="342" y="666" type="curve" smooth="yes"/>
      <point x="366" y="665"/>
      <point x="383" y="705"/>
      <point x="382" y="706" type="curve" smooth="yes"/>
      <point x="391" y="706" type="line"/>
      <point x="447" y="676" type="line"/>
      <point x="442" y="625"/>
      <point x="403" y="576"/>
      <point x="352" y="576" type="curve" smooth="yes"/>
      <point x="297" y="576"/>
      <point x="277" y="621"/>
      <point x="242" y="621" type="curve" smooth="yes"/>
      <point x="217" y="620"/>
      <point x="202" y="582"/>
    </contour>
    <contour>
      <point x="320" y="510" type="curve" smooth="yes"/>
      <point x="441" y="510"/>
      <point x="510" y="441"/>
      <point x="510" y="320" type="curve" smooth="yes"/>
      <point x="510" y="0" type="line"/>
      <point x="370" y="0" type="line"/>
      <point x="370" y="320" type="line" smooth="yes"/>
      <point x="370" y="385"/>
      <point x="340" y="415"/>
      <point x="295" y="415" type="curve" smooth="yes"/>
      <point x="267" y="415"/>
      <point x="247" y="400"/>
      <point x="232" y="385" type="curve" smooth="yes"/>
      <point x="224" y="376"/>
      <point x="217" y="366"/>
      <point x="210" y="355" type="curve"/>
      <point x="210" y="0" type="line"/>
      <point x="70" y="0" type="line"/>
      <point x="70" y="500" type="line"/>
      <point x="170" y="500" type="line"/>
      <point x="180" y="440" type="line"/>
      <point x="185" y="440" type="line"/>
      <point x="194" y="453"/>
      <point x="206" y="464"/>
      <point x="219" y="475" type="curve" smooth="yes"/>
      <point x="242" y="492"/>
      <point x="275" y="510"/>
    </contour>
  </outline>
</glyph>
<glyph name="ocircumflex" format="1">
  <advance width="540"/>
  <unicode hex="00F4"/>
  <outline>
    <contour>
      <point x="110" y="560" type="line"/>
      <point x="220" y="694" type="line"/>
      <point x="320" y="694" type="line"/>
      <point x="430" y="560" type="line"/>
      <point x="335" y="560" type="line"/>
      <point x="270" y="630" type="line"/>
      <point x="205" y="560" type="line"/>
    </contour>
    <contour>
      <point x="270" y="-10" type="curve" smooth="yes"/>
      <point x="125" y="-10"/>
      <point x="40" y="74"/>
      <point x="40" y="250" type="curve" smooth="yes"/>
      <point x="40" y="426"/>
      <point x="125" y="510"/>
      <point x="270" y="510" type="curve" smooth="yes"/>
      <point x="415" y="510"/>
      <point x="500" y="426"/>
      <point x="500" y="250" type="curve" smooth="yes"/>
      <point x="500" y="74"/>
      <point x="415" y="-10"/>
    </contour>
    <contour>
      <point x="270" y="80" type="curve" smooth="yes"/>
      <point x="321" y="80"/>
      <point x="360" y="120"/>
      <point x="360" y="250" type="curve" smooth="yes"/>
      <point x="360" y="380"/>
      <point x="321" y="420"/>
      <point x="270" y="420" type="curve" smooth="yes"/>
      <point x="219" y="420"/>
      <point x="180" y="380"/>
      <point x="180" y="250" type="curve" smooth="yes"/>
      <point x="180" y="120"/>
      <point x="219" y="80"/>
    </contour>
  </outline>
</glyph>
<glyph name="otilde" format="1">
  <advance width="540"/>
  <unicode hex="00F5"/>
  <outline>
    <contour>
      <point x="175" y="571" type="curve" smooth="yes"/>
      <point x="166" y="571" type="line"/>
      <point x="110" y="601" type="line"/>
      <point x="115" y="652"/>
      <point x="154" y="701"/>
      <point x="205" y="701" type="curve" smooth="yes"/>
      <point x="260" y="701"/>
      <point x="280" y="656"/>
      <point x="315" y="656" type="curve" smooth="yes"/>
      <point x="339" y="655"/>
      <point x="356" y="695"/>
      <point x="355" y="696" type="curve" smooth="yes"/>
      <point x="364" y="696" type="line"/>
      <point x="420" y="666" type="line"/>
      <point x="415" y="615"/>
      <point x="376" y="566"/>
      <point x="325" y="566" type="curve" smooth="yes"/>
      <point x="270" y="566"/>
      <point x="250" y="611"/>
      <point x="215" y="611" type="curve" smooth="yes"/>
      <point x="190" y="610"/>
      <point x="175" y="572"/>
    </contour>
    <contour>
      <point x="270" y="510" type="curve" smooth="yes"/>
      <point x="415" y="510"/>
      <point x="500" y="426"/>
      <point x="500" y="250" type="curve" smooth="yes"/>
      <point x="500" y="74"/>
      <point x="415" y="-10"/>
      <point x="270" y="-10" type="curve" smooth="yes"/>
      <point x="125" y="-10"/>
      <point x="40" y="74"/>
      <point x="40" y="250" type="curve" smooth="yes"/>
      <point x="40" y="426"/>
      <point x="125" y="510"/>
    </contour>
    <contour>
      <point x="270" y="80" type="curve" smooth="yes"/>
      <point x="321" y="80"/>
      <point x="360" y="120"/>
      <point x="360" y="250" type="curve" smooth="yes"/>
      <point x="360" y="380"/>
      <point x="321" y="420"/>
      <point x="270" y="420" type="curve" smooth="yes"/>
      <point x="219" y="420"/>
      <point x="180" y="380"/>
      <point x="180" y="250" type="curve" smooth="yes"/>
      <point x="180" y="120"/>
      <point x="219" y="80"/>
    </contour>
  </outline>
</glyph>
<glyph name="odieresis" format="1">
  <advance width="540"/>
  <unicode hex="00F6"/>
  <outline>
    <contour>
      <point x="170" y="570" type="curve" smooth="yes"/>
      <point x="133" y="570"/>
      <point x="100" y="603"/>
      <point x="100" y="640" type="curve" smooth="yes"/>
      <point x="100" y="677"/>
      <point x="133" y="710"/>
      <point x="170" y="710" type="curve" smooth="yes"/>
      <point x="207" y="710"/>
      <point x="240" y="677"/>
      <point x="240" y="640" type="curve" smooth="yes"/>
      <point x="240" y="603"/>
      <point x="207" y="570"/>
    </contour>
    <contour>
      <point x="365" y="570" type="curve" smooth="yes"/>
      <point x="328" y="570"/>
      <point x="295" y="603"/>
      <point x="295" y="640" type="curve" smooth="yes"/>
      <point x="295" y="677"/>
      <point x="328" y="710"/>
      <point x="365" y="710" type="curve" smooth="yes"/>
      <point x="402" y="710"/>
      <point x="435" y="677"/>
      <point x="435" y="640" type="curve" smooth="yes"/>
      <point x="435" y="603"/>
      <point x="402" y="570"/>
    </contour>
    <contour>
      <point x="270" y="-10" type="curve" smooth="yes"/>
      <point x="125" y="-10"/>
      <point x="40" y="74"/>
      <point x="40" y="250" type="curve" smooth="yes"/>
      <point x="40" y="426"/>
      <point x="125" y="510"/>
      <point x="270" y="510" type="curve" smooth="yes"/>
      <point x="415" y="510"/>
      <point x="500" y="426"/>
      <point x="500" y="250" type="curve" smooth="yes"/>
      <point x="500" y="74"/>
      <point x="415" y="-10"/>
    </contour>
    <contour>
      <point x="270" y="80" type="curve" smooth="yes"/>
      <point x="321" y="80"/>
      <point x="360" y="120"/>
      <point x="360" y="250" type="curve" smooth="yes"/>
      <point x="360" y="380"/>
      <point x="321" y="420"/>
      <point x="270" y="420" type="curve" smooth="yes"/>
      <point x="219" y="420"/>
      <point x="180" y="380"/>
      <point x="180" y="250" type="curve" smooth="yes"/>
      <point x="180" y="120"/>
      <point x="219" y="80"/>
    </contour>
  </outline>
</glyph>
<glyph name="divide" format="1">
  <advance width="470"/>
  <unicode hex="00F7"/>
  <outline>
    <contour>
      <point x="235" y="430" type="curve" smooth="yes"/>
      <point x="195" y="430"/>
      <point x="160" y="465"/>
      <point x="160" y="505" type="curve" smooth="yes"/>
      <point x="160" y="545"/>
      <point x="195" y="580"/>
      <point x="235" y="580" type="curve" smooth="yes"/>
      <point x="275" y="580"/>
      <point x="310" y="545"/>
      <point x="310" y="505" type="curve" smooth="yes"/>
      <point x="310" y="465"/>
      <point x="275" y="430"/>
    </contour>
    <contour>
      <point x="30" y="280" type="line"/>
      <point x="30" y="380" type="line"/>
      <point x="440" y="380" type="line"/>
      <point x="440" y="280" type="line"/>
    </contour>
    <contour>
      <point x="235" y="80" type="curve" smooth="yes"/>
      <point x="195" y="80"/>
      <point x="160" y="115"/>
      <point x="160" y="155" type="curve" smooth="yes"/>
      <point x="160" y="195"/>
      <point x="195" y="230"/>
      <point x="235" y="230" type="curve" smooth="yes"/>
      <point x="275" y="230"/>
      <point x="310" y="195"/>
      <point x="310" y="155" type="curve" smooth="yes"/>
      <point x="310" y="115"/>
      <point x="275" y="80"/>
    </contour>
  </outline>
</glyph>
<glyph name="oslash" format="1">
  <advance width="540"/>
  <unicode hex="00F8"/>
  <outline>
    <contour>
      <point x="270" y="-10" type="curve" smooth="yes"/>
      <point x="222" y="-10"/>
      <point x="181" y="-1"/>
      <point x="147" y="17" type="curve"/>
      <point x="135" y="0" type="line"/>
      <point x="40" y="0" type="line"/>
      <point x="89" y="68" type="line"/>
      <point x="56" y="112"/>
      <point x="40" y="173"/>
      <point x="40" y="250" type="curve" smooth="yes"/>
      <point x="40" y="426"/>
      <point x="125" y="510"/>
      <point x="270" y="510" type="curve" smooth="yes"/>
      <point x="318" y="510"/>
      <point x="359" y="501"/>
      <point x="392" y="482" type="curve"/>
      <point x="405" y="500" type="line"/>
      <point x="499" y="500" type="line"/>
      <point x="450" y="432" type="line"/>
      <point x="482" y="389"/>
      <point x="500" y="330"/>
      <point x="500" y="250" type="curve" smooth="yes"/>
      <point x="500" y="74"/>
      <point x="415" y="-10"/>
    </contour>
    <contour>
      <point x="182" y="195" type="curve"/>
      <point x="327" y="393" type="line"/>
      <point x="312" y="411"/>
      <point x="293" y="420"/>
      <point x="270" y="420" type="curve" smooth="yes"/>
      <point x="219" y="420"/>
      <point x="180" y="380"/>
      <point x="180" y="250" type="curve" smooth="yes"/>
      <point x="180" y="229"/>
      <point x="179" y="211"/>
    </contour>
    <contour>
      <point x="270" y="80" type="curve" smooth="yes"/>
      <point x="321" y="80"/>
      <point x="360" y="120"/>
      <point x="360" y="250" type="curve" smooth="yes"/>
      <point x="360" y="269"/>
      <point x="359" y="288"/>
      <point x="357" y="305" type="curve"/>
      <point x="213" y="107" type="line"/>
      <point x="228" y="87"/>
      <point x="247" y="80"/>
    </contour>
  </outline>
</glyph>
<glyph name="thorn" format="1">
  <advance width="560"/>
  <unicode hex="00FE"/>
  <outline>
    <contour>
      <point x="70" y="-200" type="line"/>
      <point x="70" y="660" type="line"/>
      <point x="110" y="700" type="line"/>
      <point x="210" y="700" type="line"/>
      <point x="210" y="480" type="line"/>
      <point x="217" y="485"/>
      <point x="226" y="490"/>
      <point x="237" y="495" type="curve" smooth="yes"/>
      <point x="254" y="502"/>
      <point x="279" y="510"/>
      <point x="310" y="510" type="curve" smooth="yes"/>
      <point x="435" y="510"/>
      <point x="520" y="425"/>
      <point x="520" y="250" type="curve" smooth="yes"/>
      <point x="520" y="75"/>
      <point x="435" y="-10"/>
      <point x="310" y="-10" type="curve" smooth="yes"/>
      <point x="279" y="-10"/>
      <point x="254" y="-3"/>
      <point x="237" y="5" type="curve" smooth="yes"/>
      <point x="226" y="9"/>
      <point x="217" y="14"/>
      <point x="210" y="20" type="curve"/>
      <point x="210" y="-200" type="line"/>
    </contour>
    <contour>
      <point x="285" y="80" type="curve" smooth="yes"/>
      <point x="340" y="80"/>
      <point x="380" y="120"/>
      <point x="380" y="250" type="curve" smooth="yes"/>
      <point x="380" y="380"/>
      <point x="340" y="420"/>
      <point x="285" y="420" type="curve" smooth="yes"/>
      <point x="262" y="420"/>
      <point x="244" y="412"/>
      <point x="231" y="405" type="curve" smooth="yes"/>
      <point x="210" y="390" type="line"/>
      <point x="210" y="110" type="line"/>
      <point x="217" y="104"/>
      <point x="224" y="99"/>
      <point x="231" y="95" type="curve" smooth="yes"/>
      <point x="244" y="87"/>
      <point x="262" y="80"/>
    </contour>
  </outline>
</glyph>
<glyph name="ydieresis" format="1">
  <advance width="495"/>
  <unicode hex="00FF"/>
  <outline>
    <contour>
      <point x="147" y="570" type="curve" smooth="yes"/>
      <point x="110" y="570"/>
      <point x="77" y="603"/>
      <point x="77" y="640" type="curve" smooth="yes"/>
      <point x="77" y="677"/>
      <point x="110" y="710"/>
      <point x="147" y="710" type="curve" smooth="yes"/>
      <point x="184" y="710"/>
      <point x="217" y="677"/>
      <point x="217" y="640" type="curve" smooth="yes"/>
      <point x="217" y="603"/>
      <point x="184" y="570"/>
    </contour>
    <contour>
      <point x="342" y="570" type="curve" smooth="yes"/>
      <point x="305" y="570"/>
      <point x="272" y="603"/>
      <point x="272" y="640" type="curve" smooth="yes"/>
      <point x="272" y="677"/>
      <point x="305" y="710"/>
      <point x="342" y="710" type="curve" smooth="yes"/>
      <point x="379" y="710"/>
      <point x="412" y="677"/>
      <point x="412" y="640" type="curve" smooth="yes"/>
      <point x="412" y="603"/>
      <point x="379" y="570"/>
    </contour>
    <contour>
      <point x="145" y="-210" type="curve" smooth="yes"/>
      <point x="114" y="-210"/>
      <point x="87" y="-203"/>
      <point x="67" y="-195" type="curve" smooth="yes"/>
      <point x="55" y="-191"/>
      <point x="44" y="-186"/>
      <point x="35" y="-180" type="curve"/>
      <point x="70" y="-95" type="line"/>
      <point x="80" y="-95" type="line"/>
      <point x="85" y="-100"/>
      <point x="90" y="-105"/>
      <point x="96" y="-108" type="curve" smooth="yes"/>
      <point x="107" y="-115"/>
      <point x="120" y="-120"/>
      <point x="135" y="-120" type="curve" smooth="yes"/>
      <point x="166" y="-120"/>
      <point x="195" y="-97"/>
      <point x="208" y="-50" type="curve" smooth="yes"/>
      <point x="222" y="0" type="line"/>
      <point x="184" y="0" type="line"/>
      <point x="19" y="500" type="line"/>
      <point x="150" y="500" type="line"/>
      <point x="250" y="175" type="line" smooth="yes"/>
      <point x="253" y="164"/>
      <point x="255" y="151"/>
      <point x="256" y="140" type="curve" smooth="yes"/>
      <point x="258" y="120" type="line"/>
      <point x="262" y="120" type="line"/>
      <point x="264" y="140" type="line" smooth="yes"/>
      <point x="265" y="151"/>
      <point x="267" y="164"/>
      <point x="270" y="175" type="curve" smooth="yes"/>
      <point x="355" y="500" type="line"/>
      <point x="495" y="500" type="line"/>
      <point x="330" y="-50" type="line" smooth="yes"/>
      <point x="299" y="-150"/>
      <point x="241" y="-210"/>
    </contour>
  </outline>
</glyph>
<glyph name="Amacron" format="1">
  <advance width="600"/>
  <unicode hex="0100"/>
  <outline>
    <contour>
      <point x="155" y="760" type="line"/>
      <point x="155" y="850" type="line"/>
      <point x="445" y="850" type="line"/>
      <point x="445" y="760" type="line"/>
    </contour>
    <contour>
      <point x="15" y="0" type="line"/>
      <point x="220" y="700" type="line"/>
      <point x="380" y="700" type="line"/>
      <point x="585" y="0" type="line"/>
      <point x="445" y="0" type="line"/>
      <point x="400" y="160" type="line"/>
      <point x="200" y="160" type="line"/>
      <point x="155" y="0" type="line"/>
    </contour>
    <contour>
      <point x="225" y="250" type="line"/>
      <point x="375" y="250" type="line"/>
      <point x="315" y="460" type="line" smooth="yes"/>
      <point x="310" y="476"/>
      <point x="308" y="494"/>
      <point x="305" y="509" type="curve" smooth="yes"/>
      <point x="302" y="535" type="line"/>
      <point x="298" y="535" type="line"/>
      <point x="294" y="509" type="line" smooth="yes"/>
      <point x="291" y="494"/>
      <point x="289" y="475"/>
      <point x="285" y="460" type="curve" smooth="yes"/>
    </contour>
  </outline>
</glyph>
<glyph name="abreve" format="1">
  <advance width="540"/>
  <unicode hex="0103"/>
  <outline>
    <contour>
      <point x="270" y="551" type="curve" smooth="yes"/>
      <point x="159" y="551"/>
      <point x="110" y="600"/>
      <point x="110" y="691" type="curve"/>
      <point x="220" y="691" type="line"/>
      <point x="220" y="640"/>
      <point x="239" y="621"/>
      <point x="270" y="621" type="curve" smooth="yes"/>
      <point x="301" y="621"/>
      <point x="320" y="640"/>
      <point x="320" y="691" type="curve"/>
      <point x="430" y="691" type="line"/>
      <point x="430" y="600"/>
      <point x="381" y="551"/>
    </contour>
    <contour>
      <point x="225" y="-10" type="curve" smooth="yes"/>
      <point x="105" y="-10"/>
      <point x="40" y="54"/>
      <point x="40" y="145" type="curve" smooth="yes"/>
      <point x="40" y="241"/>
      <point x="105" y="305"/>
      <point x="265" y="305" type="curve" smooth="yes"/>
      <point x="335" y="305" type="line"/>
      <point x="335" y="320" type="line" smooth="yes"/>
      <point x="335" y="391"/>
      <point x="305" y="420"/>
      <point x="240" y="420" type="curve" smooth="yes"/>
      <point x="207" y="420"/>
      <point x="182" y="411"/>
      <point x="163" y="400" type="curve" smooth="yes"/>
      <point x="152" y="394"/>
      <point x="143" y="387"/>
      <point x="135" y="380" type="curve"/>
      <point x="125" y="380" type="line"/>
      <point x="80" y="460" type="line"/>
      <point x="94" y="469"/>
      <point x="110" y="478"/>
      <point x="127" y="485" type="curve" smooth="yes"/>
      <point x="158" y="497"/>
      <point x="199" y="510"/>
      <point x="250" y="510" type="curve" smooth="yes"/>
      <point x="394" y="510"/>
      <point x="475" y="430"/>
      <point x="475" y="320" type="curve" smooth="yes"/>
      <point x="475" y="0" type="line"/>
      <point x="375" y="0" type="line"/>
      <point x="365" y="60" type="line"/>
      <point x="360" y="60" type="line"/>
      <point x="350" y="47"/>
      <point x="339" y="35"/>
      <point x="326" y="25" type="curve" smooth="yes"/>
      <point x="303" y="6"/>
      <point x="270" y="-10"/>
    </contour>
    <contour>
      <point x="250" y="85" type="curve" smooth="yes"/>
      <point x="275" y="85"/>
      <point x="296" y="100"/>
      <point x="311" y="115" type="curve" smooth="yes"/>
      <point x="320" y="124"/>
      <point x="328" y="134"/>
      <point x="335" y="145" type="curve"/>
      <point x="335" y="215" type="line"/>
      <point x="265" y="215" type="line" smooth="yes"/>
      <point x="205" y="215"/>
      <point x="180" y="190"/>
      <point x="180" y="145" type="curve" smooth="yes"/>
      <point x="180" y="110"/>
      <point x="205" y="85"/>
    </contour>
  </outline>
</glyph>
<glyph name="Aogonek" format="1">
  <advance width="600"/>
  <unicode hex="0104"/>
  <outline>
    <contour>
      <point x="611" y="-93" type="curve" smooth="yes"/>
      <point x="620" y="-93" type="line"/>
      <point x="620" y="-160" type="line"/>
      <point x="614" y="-165"/>
      <point x="607" y="-170"/>
      <point x="599" y="-173" type="curve" smooth="yes"/>
      <point x="584" y="-180"/>
      <point x="565" y="-185"/>
      <point x="540" y="-185" type="curve" smooth="yes"/>
      <point x="464" y="-185"/>
      <point x="430" y="-151"/>
      <point x="430" y="-95" type="curve" smooth="yes"/>
      <point x="430" y="-68"/>
      <point x="443" y="-44"/>
      <point x="458" y="-27" type="curve" smooth="yes"/>
      <point x="466" y="-17"/>
      <point x="475" y="-8"/>
      <point x="486" y="0" type="curve"/>
      <point x="445" y="0" type="line"/>
      <point x="400" y="160" type="line"/>
      <point x="200" y="160" type="line"/>
      <point x="155" y="0" type="line"/>
      <point x="15" y="0" type="line"/>
      <point x="220" y="700" type="line"/>
      <point x="380" y="700" type="line"/>
      <point x="585" y="0" type="line"/>
      <point x="590" y="0" type="line"/>
      <point x="577" y="-7"/>
      <point x="565" y="-15"/>
      <point x="555" y="-23" type="curve" smooth="yes"/>
      <point x="536" y="-38"/>
      <point x="520" y="-57"/>
      <point x="520" y="-80" type="curve" smooth="yes"/>
      <point x="520" y="-100"/>
      <point x="535" y="-115"/>
      <point x="560" y="-115" type="curve" smooth="yes"/>
      <point x="590" y="-115"/>
      <point x="612" y="-93"/>
    </contour>
    <contour>
      <point x="225" y="250" type="line"/>
      <point x="375" y="250" type="line"/>
      <point x="315" y="460" type="line" smooth="yes"/>
      <point x="310" y="476"/>
      <point x="308" y="494"/>
      <point x="305" y="509" type="curve" smooth="yes"/>
      <point x="302" y="535" type="line"/>
      <point x="298" y="535" type="line"/>
      <point x="294" y="509" type="line" smooth="yes"/>
      <point x="291" y="494"/>
      <point x="289" y="475"/>
      <point x="285" y="460" type="curve" smooth="yes"/>
    </contour>
  </outline>
</glyph>
<glyph name="aogonek" format="1">
  <advance width="530"/>
  <unicode hex="0105"/>
  <outline>
    <contour>
      <point x="501" y="-93" type="curve" smooth="yes"/>
      <point x="510" y="-93" type="line"/>
      <point x="510" y="-160" type="line"/>
      <point x="504" y="-165"/>
      <point x="497" y="-170"/>
      <point x="489" y="-173" type="curve" smooth="yes"/>
      <point x="474" y="-180"/>
      <point x="455" y="-185"/>
      <point x="430" y="-185" type="curve" smooth="yes"/>
      <point x="354" y="-185"/>
      <point x="320" y="-151"/>
      <point x="320" y="-95" type="curve" smooth="yes"/>
      <point x="320" y="-68"/>
      <point x="333" y="-44"/>
      <point x="348" y="-27" type="curve" smooth="yes"/>
      <point x="356" y="-17"/>
      <point x="365" y="-8"/>
      <point x="376" y="0" type="curve"/>
      <point x="375" y="0" type="line"/>
      <point x="365" y="60" type="line"/>
      <point x="360" y="60" type="line"/>
      <point x="350" y="47"/>
      <point x="339" y="35"/>
      <point x="326" y="25" type="curve" smooth="yes"/>
      <point x="303" y="6"/>
      <point x="270" y="-10"/>
      <point x="225" y="-10" type="curve" smooth="yes"/>
      <point x="105" y="-10"/>
      <point x="40" y="54"/>
      <point x="40" y="145" type="curve" smooth="yes"/>
      <point x="40" y="241"/>
      <point x="105" y="305"/>
      <point x="265" y="305" type="curve" smooth="yes"/>
      <point x="335" y="305" type="line"/>
      <point x="335" y="320" type="line" smooth="yes"/>
      <point x="335" y="391"/>
      <point x="305" y="420"/>
      <point x="240" y="420" type="curve" smooth="yes"/>
      <point x="207" y="420"/>
      <point x="182" y="411"/>
      <point x="163" y="400" type="curve" smooth="yes"/>
      <point x="152" y="394"/>
      <point x="143" y="387"/>
      <point x="135" y="380" type="curve"/>
      <point x="125" y="380" type="line"/>
      <point x="80" y="460" type="line"/>
      <point x="94" y="469"/>
      <point x="110" y="478"/>
      <point x="127" y="485" type="curve" smooth="yes"/>
      <point x="158" y="497"/>
      <point x="199" y="510"/>
      <point x="250" y="510" type="curve" smooth="yes"/>
      <point x="394" y="510"/>
      <point x="475" y="430"/>
      <point x="475" y="320" type="curve" smooth="yes"/>
      <point x="475" y="0" type="line"/>
      <point x="480" y="0" type="line"/>
      <point x="467" y="-7"/>
      <point x="455" y="-15"/>
      <point x="445" y="-23" type="curve" smooth="yes"/>
      <point x="426" y="-38"/>
      <point x="410" y="-57"/>
      <point x="410" y="-80" type="curve" smooth="yes"/>
      <point x="410" y="-100"/>
      <point x="425" y="-115"/>
      <point x="450" y="-115" type="curve" smooth="yes"/>
      <point x="480" y="-115"/>
      <point x="502" y="-93"/>
    </contour>
    <contour>
      <point x="335" y="145" type="curve"/>
      <point x="335" y="215" type="line"/>
      <point x="265" y="215" type="line" smooth="yes"/>
      <point x="205" y="215"/>
      <point x="180" y="190"/>
      <point x="180" y="145" type="curve" smooth="yes"/>
      <point x="180" y="110"/>
      <point x="205" y="85"/>
      <point x="250" y="85" type="curve" smooth="yes"/>
      <point x="275" y="85"/>
      <point x="296" y="100"/>
      <point x="311" y="115" type="curve" smooth="yes"/>
      <point x="320" y="124"/>
      <point x="328" y="134"/>
    </contour>
  </outline>
</glyph>
<glyph name="dcaron" format="1">
  <advance width="655"/>
  <unicode hex="010F"/>
  <outline>
    <contour>
      <point x="240" y="-10" type="curve" smooth="yes"/>
      <point x="125" y="-10"/>
      <point x="40" y="75"/>
      <point x="40" y="250" type="curve" smooth="yes"/>
      <point x="40" y="425"/>
      <point x="125" y="510"/>
      <point x="250" y="510" type="curve" smooth="yes"/>
      <point x="281" y="510"/>
      <point x="303" y="502"/>
      <point x="322" y="495" type="curve" smooth="yes"/>
      <point x="350" y="480" type="line"/>
      <point x="350" y="660" type="line"/>
      <point x="390" y="700" type="line"/>
      <point x="490" y="700" type="line"/>
      <point x="490" y="0" type="line"/>
      <point x="390" y="0" type="line"/>
      <point x="380" y="60" type="line"/>
      <point x="375" y="60" type="line"/>
      <point x="365" y="47"/>
      <point x="354" y="35"/>
      <point x="341" y="25" type="curve" smooth="yes"/>
      <point x="318" y="6"/>
      <point x="285" y="-10"/>
    </contour>
    <contour>
      <point x="565" y="484" type="curve"/>
      <point x="535" y="515" type="line"/>
      <point x="544" y="522"/>
      <point x="553" y="529"/>
      <point x="560" y="537" type="curve" smooth="yes"/>
      <point x="572" y="552"/>
      <point x="585" y="570"/>
      <point x="585" y="590" type="curve"/>
      <point x="560" y="590"/>
      <point x="535" y="614"/>
      <point x="535" y="645" type="curve" smooth="yes"/>
      <point x="535" y="676"/>
      <point x="560" y="700"/>
      <point x="585" y="700" type="curve" smooth="yes"/>
      <point x="620" y="700"/>
      <point x="645" y="675"/>
      <point x="645" y="636" type="curve" smooth="yes"/>
      <point x="645" y="583"/>
      <point x="625" y="545"/>
      <point x="605" y="520" type="curve" smooth="yes"/>
      <point x="593" y="505"/>
      <point x="580" y="493"/>
    </contour>
    <contour>
      <point x="265" y="85" type="curve" smooth="yes"/>
      <point x="292" y="85"/>
      <point x="313" y="100"/>
      <point x="328" y="115" type="curve" smooth="yes"/>
      <point x="336" y="124"/>
      <point x="343" y="134"/>
      <point x="350" y="145" type="curve"/>
      <point x="350" y="390" type="line"/>
      <point x="329" y="405" type="line" smooth="yes"/>
      <point x="316" y="412"/>
      <point x="298" y="420"/>
      <point x="275" y="420" type="curve" smooth="yes"/>
      <point x="220" y="420"/>
      <point x="180" y="380"/>
      <point x="180" y="250" type="curve" smooth="yes"/>
      <point x="180" y="125"/>
      <point x="220" y="85"/>
    </contour>
  </outline>
</glyph>
<glyph name="dcroat" format="1">
  <advance width="560"/>
  <unicode hex="0111"/>
  <outline>
    <contour>
      <point x="240" y="-10" type="curve" smooth="yes"/>
      <point x="125" y="-10"/>
      <point x="40" y="75"/>
      <point x="40" y="235" type="curve" smooth="yes"/>
      <point x="40" y="395"/>
      <point x="125" y="480"/>
      <point x="250" y="480" type="curve" smooth="yes"/>
      <point x="281" y="480"/>
      <point x="303" y="472"/>
      <point x="322" y="465" type="curve" smooth="yes"/>
      <point x="350" y="450" type="line"/>
      <point x="350" y="520" type="line"/>
      <point x="255" y="520" type="line"/>
      <point x="255" y="610" type="line"/>
      <point x="350" y="610" type="line"/>
      <point x="350" y="660" type="line"/>
      <point x="390" y="700" type="line"/>
      <point x="490" y="700" type="line"/>
      <point x="490" y="610" type="line"/>
      <point x="545" y="610" type="line"/>
      <point x="545" y="520" type="line"/>
      <point x="490" y="520" type="line"/>
      <point x="490" y="0" type="line"/>
      <point x="390" y="0" type="line"/>
      <point x="380" y="60" type="line"/>
      <point x="375" y="60" type="line"/>
      <point x="365" y="47"/>
      <point x="354" y="35"/>
      <point x="341" y="25" type="curve" smooth="yes"/>
      <point x="318" y="6"/>
      <point x="285" y="-10"/>
    </contour>
    <contour>
      <point x="265" y="85" type="curve" smooth="yes"/>
      <point x="292" y="85"/>
      <point x="313" y="100"/>
      <point x="328" y="115" type="curve" smooth="yes"/>
      <point x="336" y="124"/>
      <point x="343" y="134"/>
      <point x="350" y="145" type="curve"/>
      <point x="350" y="360" type="line"/>
      <point x="329" y="375" type="line" smooth="yes"/>
      <point x="316" y="382"/>
      <point x="298" y="390"/>
      <point x="275" y="390" type="curve" smooth="yes"/>
      <point x="220" y="390"/>
      <point x="180" y="350"/>
      <point x="180" y="235" type="curve" smooth="yes"/>
      <point x="180" y="126"/>
      <point x="220" y="85"/>
    </contour>
  </outline>
</glyph>
<glyph name="Emacron" format="1">
  <advance width="520"/>
  <unicode hex="0112"/>
  <outline>
    <contour>
      <point x="147" y="770" type="line"/>
      <point x="147" y="860" type="line"/>
      <point x="437" y="860" type="line"/>
      <point x="437" y="770" type="line"/>
    </contour>
    <contour>
      <point x="85" y="0" type="line"/>
      <point x="85" y="700" type="line"/>
      <point x="505" y="700" type="line"/>
      <point x="505" y="610" type="line"/>
      <point x="225" y="610" type="line"/>
      <point x="225" y="410" type="line"/>
      <point x="445" y="410" type="line"/>
      <point x="445" y="320" type="line"/>
      <point x="225" y="320" type="line"/>
      <point x="225" y="90" type="line"/>
      <point x="505" y="90" type="line"/>
      <point x="505" y="0" type="line"/>
    </contour>
  </outline>
</glyph>
<glyph name="Edotaccent" format="1">
  <advance width="520"/>
  <unicode hex="0116"/>
  <outline>
    <contour>
      <point x="302" y="760" type="curve" smooth="yes"/>
      <point x="262" y="760"/>
      <point x="227" y="795"/>
      <point x="227" y="835" type="curve" smooth="yes"/>
      <point x="227" y="875"/>
      <point x="262" y="910"/>
      <point x="302" y="910" type="curve" smooth="yes"/>
      <point x="342" y="910"/>
      <point x="377" y="875"/>
      <point x="377" y="835" type="curve" smooth="yes"/>
      <point x="377" y="795"/>
      <point x="342" y="760"/>
    </contour>
    <contour>
      <point x="85" y="0" type="line"/>
      <point x="85" y="700" type="line"/>
      <point x="505" y="700" type="line"/>
      <point x="505" y="610" type="line"/>
      <point x="225" y="610" type="line"/>
      <point x="225" y="410" type="line"/>
      <point x="445" y="410" type="line"/>
      <point x="445" y="320" type="line"/>
      <point x="225" y="320" type="line"/>
      <point x="225" y="90" type="line"/>
      <point x="505" y="90" type="line"/>
      <point x="505" y="0" type="line"/>
    </contour>
  </outline>
</glyph>
<glyph name="Eogonek" format="1">
  <advance width="530"/>
  <unicode hex="0118"/>
  <outline>
    <contour>
      <point x="505" y="610" type="line"/>
      <point x="225" y="610" type="line"/>
      <point x="225" y="410" type="line"/>
      <point x="445" y="410" type="line"/>
      <point x="445" y="320" type="line"/>
      <point x="225" y="320" type="line"/>
      <point x="225" y="90" type="line"/>
      <point x="505" y="90" type="line"/>
      <point x="505" y="0" type="line"/>
      <point x="375" y="0" type="line"/>
      <point x="362" y="-7"/>
      <point x="350" y="-15"/>
      <point x="340" y="-23" type="curve" smooth="yes"/>
      <point x="321" y="-38"/>
      <point x="305" y="-57"/>
      <point x="305" y="-80" type="curve" smooth="yes"/>
      <point x="305" y="-100"/>
      <point x="320" y="-115"/>
      <point x="345" y="-115" type="curve" smooth="yes"/>
      <point x="375" y="-115"/>
      <point x="397" y="-93"/>
      <point x="396" y="-93" type="curve" smooth="yes"/>
      <point x="405" y="-93" type="line"/>
      <point x="405" y="-160" type="line"/>
      <point x="399" y="-165"/>
      <point x="392" y="-170"/>
      <point x="384" y="-173" type="curve" smooth="yes"/>
      <point x="369" y="-180"/>
      <point x="350" y="-185"/>
      <point x="325" y="-185" type="curve" smooth="yes"/>
      <point x="249" y="-185"/>
      <point x="215" y="-151"/>
      <point x="215" y="-95" type="curve" smooth="yes"/>
      <point x="215" y="-68"/>
      <point x="228" y="-44"/>
      <point x="243" y="-27" type="curve" smooth="yes"/>
      <point x="251" y="-17"/>
      <point x="260" y="-8"/>
      <point x="271" y="0" type="curve"/>
      <point x="85" y="0" type="line"/>
      <point x="85" y="700" type="line"/>
      <point x="505" y="700" type="line"/>
    </contour>
  </outline>
</glyph>
<glyph name="eogonek" format="1">
  <advance width="520"/>
  <unicode hex="0119"/>
  <outline>
    <contour>
      <point x="480" y="235" type="line"/>
      <point x="450" y="205" type="line"/>
      <point x="180" y="205" type="line"/>
      <point x="180" y="122"/>
      <point x="220" y="80"/>
      <point x="300" y="80" type="curve" smooth="yes"/>
      <point x="332" y="80"/>
      <point x="358" y="89"/>
      <point x="377" y="100" type="curve" smooth="yes"/>
      <point x="388" y="106"/>
      <point x="397" y="113"/>
      <point x="405" y="120" type="curve"/>
      <point x="415" y="120" type="line"/>
      <point x="460" y="40" type="line"/>
      <point x="445" y="31"/>
      <point x="429" y="22"/>
      <point x="412" y="15" type="curve" smooth="yes"/>
      <point x="389" y="5"/>
      <point x="361" y="-4"/>
      <point x="326" y="-8" type="curve"/>
      <point x="319" y="-13"/>
      <point x="311" y="-18"/>
      <point x="305" y="-23" type="curve" smooth="yes"/>
      <point x="286" y="-38"/>
      <point x="270" y="-57"/>
      <point x="270" y="-80" type="curve" smooth="yes"/>
      <point x="270" y="-100"/>
      <point x="285" y="-115"/>
      <point x="310" y="-115" type="curve" smooth="yes"/>
      <point x="340" y="-115"/>
      <point x="362" y="-93"/>
      <point x="361" y="-93" type="curve" smooth="yes"/>
      <point x="370" y="-93" type="line"/>
      <point x="370" y="-160" type="line"/>
      <point x="364" y="-165"/>
      <point x="357" y="-170"/>
      <point x="349" y="-173" type="curve" smooth="yes"/>
      <point x="334" y="-180"/>
      <point x="315" y="-185"/>
      <point x="290" y="-185" type="curve" smooth="yes"/>
      <point x="214" y="-185"/>
      <point x="180" y="-151"/>
      <point x="180" y="-95" type="curve" smooth="yes"/>
      <point x="180" y="-68"/>
      <point x="193" y="-44"/>
      <point x="208" y="-27" type="curve" smooth="yes"/>
      <point x="214" y="-19"/>
      <point x="221" y="-12"/>
      <point x="229" y="-6" type="curve"/>
      <point x="103" y="14"/>
      <point x="40" y="100"/>
      <point x="40" y="250" type="curve" smooth="yes"/>
      <point x="40" y="425"/>
      <point x="125" y="510"/>
      <point x="260" y="510" type="curve" smooth="yes"/>
      <point x="395" y="510"/>
      <point x="480" y="425"/>
      <point x="480" y="260" type="curve" smooth="yes"/>
    </contour>
    <contour>
      <point x="180" y="295" type="curve"/>
      <point x="340" y="295" type="line"/>
      <point x="340" y="380"/>
      <point x="300" y="420"/>
      <point x="260" y="420" type="curve" smooth="yes"/>
      <point x="220" y="420"/>
      <point x="180" y="380"/>
    </contour>
  </outline>
</glyph>
<glyph name="Ecaron" format="1">
  <advance width="530"/>
  <unicode hex="011A"/>
  <outline>
    <contour>
      <point x="262" y="766" type="line"/>
      <point x="152" y="900" type="line"/>
      <point x="247" y="900" type="line"/>
      <point x="312" y="830" type="line"/>
      <point x="377" y="900" type="line"/>
      <point x="472" y="900" type="line"/>
      <point x="362" y="766" type="line"/>
    </contour>
    <contour>
      <point x="85" y="0" type="line"/>
      <point x="85" y="700" type="line"/>
      <point x="505" y="700" type="line"/>
      <point x="505" y="610" type="line"/>
      <point x="225" y="610" type="line"/>
      <point x="225" y="410" type="line"/>
      <point x="445" y="410" type="line"/>
      <point x="445" y="320" type="line"/>
      <point x="225" y="320" type="line"/>
      <point x="225" y="90" type="line"/>
      <point x="505" y="90" type="line"/>
      <point x="505" y="0" type="line"/>
    </contour>
  </outline>
</glyph>
<glyph name="Gbreve" format="1">
  <advance width="590"/>
  <unicode hex="011E"/>
  <outline>
    <contour>
      <point x="312" y="750" type="curve" smooth="yes"/>
      <point x="201" y="750"/>
      <point x="152" y="799"/>
      <point x="152" y="890" type="curve"/>
      <point x="262" y="890" type="line"/>
      <point x="262" y="839"/>
      <point x="281" y="820"/>
      <point x="312" y="820" type="curve" smooth="yes"/>
      <point x="343" y="820"/>
      <point x="362" y="839"/>
      <point x="362" y="890" type="curve"/>
      <point x="472" y="890" type="line"/>
      <point x="472" y="799"/>
      <point x="423" y="750"/>
    </contour>
    <contour>
      <point x="330" y="-10" type="curve" smooth="yes"/>
      <point x="154" y="-10"/>
      <point x="50" y="95"/>
      <point x="50" y="350" type="curve" smooth="yes"/>
      <point x="50" y="605"/>
      <point x="155" y="710"/>
      <point x="320" y="710" type="curve" smooth="yes"/>
      <point x="377" y="710"/>
      <point x="424" y="697"/>
      <point x="456" y="682" type="curve" smooth="yes"/>
      <point x="475" y="674"/>
      <point x="491" y="665"/>
      <point x="505" y="655" type="curve"/>
      <point x="460" y="575" type="line"/>
      <point x="450" y="575" type="line"/>
      <point x="441" y="583"/>
      <point x="430" y="590"/>
      <point x="418" y="597" type="curve" smooth="yes"/>
      <point x="397" y="608"/>
      <point x="367" y="620"/>
      <point x="330" y="620" type="curve" smooth="yes"/>
      <point x="250" y="620"/>
      <point x="190" y="561"/>
      <point x="190" y="350" type="curve" smooth="yes"/>
      <point x="190" y="139"/>
      <point x="250" y="80"/>
      <point x="340" y="80" type="curve" smooth="yes"/>
      <point x="353" y="80"/>
      <point x="364" y="82"/>
      <point x="374" y="85" type="curve" smooth="yes"/>
      <point x="379" y="86"/>
      <point x="385" y="88"/>
      <point x="390" y="90" type="curve"/>
      <point x="390" y="300" type="line"/>
      <point x="285" y="300" type="line"/>
      <point x="285" y="390" type="line"/>
      <point x="490" y="390" type="line"/>
      <point x="530" y="350" type="line"/>
      <point x="530" y="45" type="line"/>
      <point x="516" y="34"/>
      <point x="499" y="25"/>
      <point x="479" y="17" type="curve" smooth="yes"/>
      <point x="444" y="2"/>
      <point x="395" y="-10"/>
    </contour>
  </outline>
</glyph>
<glyph name="gbreve" format="1">
  <advance width="590"/>
  <unicode hex="011F"/>
  <outline>
    <contour>
      <point x="307" y="560" type="curve" smooth="yes"/>
      <point x="196" y="560"/>
      <point x="147" y="609"/>
      <point x="147" y="700" type="curve"/>
      <point x="257" y="700" type="line"/>
      <point x="257" y="649"/>
      <point x="276" y="630"/>
      <point x="307" y="630" type="curve" smooth="yes"/>
      <point x="338" y="630"/>
      <point x="357" y="649"/>
      <point x="357" y="700" type="curve"/>
      <point x="467" y="700" type="line"/>
      <point x="467" y="609"/>
      <point x="418" y="560"/>
    </contour>
    <contour>
      <point x="255" y="-210" type="curve" smooth="yes"/>
      <point x="202" y="-210"/>
      <point x="159" y="-198"/>
      <point x="128" y="-185" type="curve" smooth="yes"/>
      <point x="110" y="-178"/>
      <point x="94" y="-169"/>
      <point x="80" y="-160" type="curve"/>
      <point x="125" y="-80" type="line"/>
      <point x="135" y="-80" type="line"/>
      <point x="143" y="-87"/>
      <point x="153" y="-94"/>
      <point x="164" y="-100" type="curve" smooth="yes"/>
      <point x="183" y="-111"/>
      <point x="210" y="-120"/>
      <point x="245" y="-120" type="curve" smooth="yes"/>
      <point x="310" y="-120"/>
      <point x="350" y="-81"/>
      <point x="350" y="-10" type="curve" smooth="yes"/>
      <point x="350" y="20" type="line"/>
      <point x="341" y="14"/>
      <point x="332" y="9"/>
      <point x="322" y="5" type="curve" smooth="yes"/>
      <point x="303" y="-3"/>
      <point x="281" y="-10"/>
      <point x="250" y="-10" type="curve" smooth="yes"/>
      <point x="125" y="-10"/>
      <point x="40" y="75"/>
      <point x="40" y="250" type="curve" smooth="yes"/>
      <point x="40" y="425"/>
      <point x="125" y="510"/>
      <point x="240" y="510" type="curve" smooth="yes"/>
      <point x="285" y="510"/>
      <point x="318" y="492"/>
      <point x="341" y="475" type="curve" smooth="yes"/>
      <point x="354" y="464"/>
      <point x="365" y="453"/>
      <point x="375" y="440" type="curve"/>
      <point x="380" y="440" type="line"/>
      <point x="390" y="500" type="line"/>
      <point x="490" y="500" type="line"/>
      <point x="490" y="-10" type="line" smooth="yes"/>
      <point x="490" y="-125"/>
      <point x="405" y="-210"/>
    </contour>
    <contour>
      <point x="275" y="80" type="curve" smooth="yes"/>
      <point x="298" y="80"/>
      <point x="316" y="87"/>
      <point x="329" y="95" type="curve" smooth="yes"/>
      <point x="336" y="99"/>
      <point x="343" y="104"/>
      <point x="350" y="110" type="curve"/>
      <point x="350" y="355" type="line"/>
      <point x="343" y="366"/>
      <point x="336" y="376"/>
      <point x="328" y="385" type="curve" smooth="yes"/>
      <point x="313" y="400"/>
      <point x="292" y="415"/>
      <point x="265" y="415" type="curve" smooth="yes"/>
      <point x="220" y="415"/>
      <point x="180" y="375"/>
      <point x="180" y="250" type="curve" smooth="yes"/>
      <point x="180" y="120"/>
      <point x="220" y="80"/>
    </contour>
  </outline>
</glyph>
<glyph name="hbar" format="1">
  <advance width="575"/>
  <unicode hex="0127"/>
  <outline>
    <contour>
      <point x="75" y="0" type="line"/>
      <point x="75" y="500" type="line"/>
      <point x="20" y="500" type="line"/>
      <point x="20" y="590" type="line"/>
      <point x="75" y="590" type="line"/>
      <point x="75" y="660" type="line"/>
      <point x="115" y="700" type="line"/>
      <point x="215" y="700" type="line"/>
      <point x="215" y="590" type="line"/>
      <point x="340" y="590" type="line"/>
      <point x="340" y="500" type="line"/>
      <point x="215" y="500" type="line"/>
      <point x="215" y="405" type="line"/>
      <point x="223" y="413"/>
      <point x="233" y="420"/>
      <point x="244" y="427" type="curve" smooth="yes"/>
      <point x="263" y="438"/>
      <point x="290" y="450"/>
      <point x="325" y="450" type="curve" smooth="yes"/>
      <point x="446" y="450"/>
      <point x="515" y="381"/>
      <point x="515" y="260" type="curve" smooth="yes"/>
      <point x="515" y="0" type="line"/>
      <point x="375" y="0" type="line"/>
      <point x="375" y="260" type="line" smooth="yes"/>
      <point x="375" y="325"/>
      <point x="345" y="355"/>
      <point x="300" y="355" type="curve" smooth="yes"/>
      <point x="272" y="355"/>
      <point x="252" y="340"/>
      <point x="237" y="325" type="curve" smooth="yes"/>
      <point x="229" y="316"/>
      <point x="222" y="306"/>
      <point x="215" y="295" type="curve"/>
      <point x="215" y="0" type="line"/>
    </contour>
  </outline>
</glyph>
<glyph name="Itilde" format="1">
  <advance width="305"/>
  <unicode hex="0128"/>
  <outline>
    <contour>
      <point x="250" y="915" type="line"/>
      <point x="306" y="885" type="line"/>
      <point x="301" y="834"/>
      <point x="262" y="785"/>
      <point x="211" y="785" type="curve" smooth="yes"/>
      <point x="156" y="785"/>
      <point x="136" y="830"/>
      <point x="101" y="830" type="curve" smooth="yes"/>
      <point x="76" y="829"/>
      <point x="61" y="791"/>
      <point x="61" y="790" type="curve" smooth="yes"/>
      <point x="52" y="790" type="line"/>
      <point x="-4" y="820" type="line"/>
      <point x="1" y="871"/>
      <point x="40" y="920"/>
      <point x="91" y="920" type="curve" smooth="yes"/>
      <point x="146" y="920"/>
      <point x="166" y="875"/>
      <point x="201" y="875" type="curve" smooth="yes"/>
      <point x="225" y="874"/>
      <point x="242" y="914"/>
      <point x="241" y="915" type="curve" smooth="yes"/>
    </contour>
    <contour>
      <point x="85" y="0" type="line"/>
      <point x="85" y="700" type="line"/>
      <point x="225" y="700" type="line"/>
      <point x="225" y="0" type="line"/>
    </contour>
  </outline>
</glyph>
